<svg id="Titelskærm" xmlns="http://www.w3.org/2000/svg" width="470" height="700" viewBox="0 0 470 700"><defs><style>.cls-1{fill:#6d1c03;}.cls-2{fill:#d1a16b;}.cls-3{fill:#511502;}.cls-4{fill:#f2bc79;}.cls-5{fill:#876645;}.cls-6{fill:#1e0c07;}.cls-7{fill:#684f33;}.cls-8{fill:#e2dddc;}</style></defs><title>Abe_startside_åbne_øjne</title><path class="cls-1" d="M311.87,600.61c-2.67-.38-18.61-2.2-21.33-2.81-32.08-7.2-66.85-31.7-67.63-64.77l8.68-4.76c23.43,23.83,37.39,41.9,66.7,48.47,19.39,4.35,27.27,4.87,39-3.67C343,569,351,559.3,346.38,543c-7.1-25.23-19.92-63.49-6.09-101.12,15.54-42.27,42.61-48,57.26-49.22,23.62-1.91,51.56,14.72,56.83,39.09,4.24,19.66-2.31,44.83-12,55.79-9,10.13-25.41,11.36-35,10.5-.35,0-.69-.07-1-.12-12.77-1.79-24.82-15.32-27.17-30.72-2.71-17.83,5.42-42,20.88-46.4,8.5-2.42,23.94,2.09,29.43,10,5,7.17,2.74,21.64-6.5,32a6.36,6.36,0,0,1-9.79-.3h0a3.12,3.12,0,0,1,.35-4.2c8.09-7.46,5.69-15.65,3.12-19.33-2.43-3.5-6.47-7.29-11.68-5.81-10.72,3.06-18,19.63-16,32.56,1.66,10.94,10.09,19.92,18.49,21.1.19,0-.2,0,0,0,6.19.56,15-2.4,21.62-9.91,8.09-9.15,15.5-24.65,12-40.7C437,416.76,417,401,398.35,402.52c-11.77,1-28.68,9.93-42.41,47.29-12.73,34.61,1.41,62.79,8.14,86.71,5.63,20,.19,43.29-11.05,51.45C340.52,597.05,331.23,603.33,311.87,600.61Z"/><g id="Fødder"><rect class="cls-1" x="131.03" y="538.28" width="33.82" height="146.74" rx="12" transform="translate(-7.51 1.87) rotate(-0.7)"/><rect class="cls-1" x="187.94" y="537.58" width="33.82" height="146.74" rx="12" transform="translate(-7.5 2.57) rotate(-0.7)"/><rect class="cls-2" x="126.89" y="661.17" width="43.72" height="33.02" rx="9" transform="translate(-8.32 1.88) rotate(-0.7)"/><rect class="cls-2" x="183.81" y="660.47" width="43.72" height="33.02" rx="9" transform="translate(-8.31 2.58) rotate(-0.7)"/></g><g id="Krop"><ellipse class="cls-3" cx="170.34" cy="430.76" rx="118.15" ry="164.15" transform="translate(-5.35 2.16) rotate(-0.71)"/><ellipse class="cls-2" cx="170.27" cy="424.51" rx="45.97" ry="69.58" transform="translate(-5.28 2.16) rotate(-0.71)"/><g id="Venstre_arm" data-name="Venstre arm"><path class="cls-1" d="M76,332.77c-37.25-1.19-41,58.43-59.26,116.29-2.32,7.35-2.32,17.56,2.52,23.93L56.22,521.6c.23.31-11.45-14.12.71.89s27.63-6.38,17.18-23.57c-7.43-12.21-15.1-22.77-29.57-40.07-2.22-2.65-2.49-6.89-.61-9.44l32.63-75Z"/><ellipse class="cls-4" cx="65.08" cy="510.13" rx="14.35" ry="20.59" transform="translate(-112.98 27.68) rotate(-12.99)"/></g><g id="Venstre_arm-2" data-name="Venstre arm"><path class="cls-1" d="M262.35,329.09c37.2-2.13,42.44,57.38,62.14,114.76,2.5,7.29,2.77,17.5-1.91,24l-35.7,49.53c-.23.31,11.09-14.41-.69.9s-27.78-5.68-17.76-23.13C275.55,482.75,283,472,297,454.34c2.16-2.71,2.33-7,.38-9.45l-34.49-74.14Z"/><ellipse class="cls-4" cx="277.74" cy="506.11" rx="20.59" ry="14.35" transform="translate(-273.76 676.81) rotate(-78.44)"/></g><ellipse class="cls-4" cx="171.53" cy="494.91" rx="64.58" ry="55.83" transform="translate(-6.26 2.21) rotate(-0.73)"/><path class="cls-5" d="M141,445.79s28.56-14.7,60.12-.6C201.13,445.19,172.13,421.73,141,445.79Z"/></g><circle class="cls-1" cx="56.29" cy="203.84" r="33.69"/><circle class="cls-1" cx="286.71" cy="202.1" r="33.69"/><path class="cls-3" d="M183.79,52.12c.53-4-4.43-10.7.9-14-12-.94-12.95,7.77-15.1,10-1.94,2-4.48-10.81,5.22-17.45-21.48-.81-17.3,16.09-25.5,22.89-53.47,10.93-93.53,61.64-92.79,122,.83,67.83,52.81,122.18,116.1,121.4S286.53,240.59,285.7,172.76C284.93,110.08,240.47,58.91,183.79,52.12Z"/><ellipse class="cls-4" cx="171.76" cy="243.19" rx="120.64" ry="67.93" transform="translate(-2.98 2.13) rotate(-0.7)"/><g id="Næsebor"><path class="cls-6" d="M166.28,197.59c1.15-8.68-.13-12.39-9.89-15.71Z"/><path class="cls-6" d="M176.12,198c-1.36-8.66-.17-12.39,9.5-16Z"/></g><path class="cls-6" d="M213.34,247c.1,7.51-18.29-7.92-41.39-7.64s-42.2,16.17-42.29,8.67,18.57-13.81,41.68-14.1S213.25,239.52,213.34,247Z"/><ellipse class="cls-7" cx="171.71" cy="498.8" rx="1.65" ry="4.54" transform="translate(-6.12 2.15) rotate(-0.7)"/><g id="Øjne"><ellipse class="cls-6" cx="152.27" cy="143.97" rx="9.78" ry="15.16" transform="translate(-1.76 1.88) rotate(-0.7)"/><ellipse class="cls-6" cx="188.46" cy="142.55" rx="9.78" ry="15.16" transform="translate(-1.74 2.33) rotate(-0.7)"/></g><ellipse class="cls-8" cx="156.81" cy="134.29" rx="1.49" ry="2.97" transform="translate(-1.64 1.94) rotate(-0.7)"/><ellipse class="cls-8" cx="193.93" cy="133.83" rx="1.49" ry="2.97" transform="translate(-1.63 2.39) rotate(-0.7)"/></svg>
