<?xml version="1.0" encoding="utf-8"?>
<!-- Generator: Adobe Illustrator 24.0.1, SVG Export Plug-In . SVG Version: 6.00 Build 0)  -->
<svg version="1.1" xmlns="http://www.w3.org/2000/svg" xmlns:xlink="http://www.w3.org/1999/xlink" x="0px" y="0px"
	 viewBox="0 0 500 500" style="enable-background:new 0 0 500 500;" xml:space="preserve">
<style type="text/css">
	.st0{fill:#0B5424;}
	.st1{fill:#127530;}
	.st2{fill:#288444;}
	.st3{fill:#7ACC8C;}
	.st4{fill:#66A376;}
	.st5{fill:#043511;}
	.st6{fill:#961515;}
	.st7{fill:#B23F3F;}
	.st8{fill:#490F0F;}
	.st9{fill:#191818;}
	.st10{opacity:0.49;}
	.st11{fill:#FFFFFF;}
	.st12{fill:#263247;}
	.st13{fill:#29374E;}
	.st14{fill:#384B6C;}
	.st15{fill:#019968;}
	.st16{fill:#6D1C03;}
	.st17{fill:#D1A16B;}
	.st18{fill:#511502;}
	.st19{fill:#F2BC79;}
	.st20{fill:#876645;}
	.st21{fill:#1E0C07;}
	.st22{fill:#684F33;}
	.st23{fill:#E2DDDC;}
	.st24{fill:#0D5B3B;}
	.st25{fill:#1E633B;}
	.st26{fill:#043D27;}
	.st27{fill:#17492B;}
</style>
<g id="Grøn">
</g>
<g id="Rød">
</g>
<g id="Navn">
</g>
<g id="Artboard_x5F_2">
</g>
<g id="web">
</g>
<g id="ux">
</g>
<g id="indhold">
</g>
<g id="animation">
	<rect class="st15" width="500" height="500"/>
	<g>
		<g>
			<path class="st16" d="M415.2,313.5c-1.2-0.2-8.3-1-9.6-1.3c-14.4-3.2-30-14.2-30.3-29.1l3.9-2.1c10.5,10.7,16.8,18.8,29.9,21.8
				c8.7,2,12.2,2.2,17.5-1.6c2.5-1.8,6.1-6.2,4.1-13.5c-3.2-11.3-8.9-28.5-2.7-45.4c7-19,19.1-21.6,25.7-22.1
				c10.6-0.9,23.1,6.6,25.5,17.5c1.9,8.8-1,20.1-5.4,25c-4,4.5-11.4,5.1-15.7,4.7c-0.2,0-0.3,0-0.5-0.1c-5.7-0.8-11.1-6.9-12.2-13.8
				c-1.2-8,2.4-18.8,9.4-20.8c3.8-1.1,10.7,0.9,13.2,4.5c2.2,3.2,1.2,9.7-2.9,14.4c-1.2,1.3-3.3,1.3-4.4-0.1l0,0
				c-0.4-0.6-0.4-1.4,0.2-1.9c3.6-3.4,2.6-7,1.4-8.7c-1.1-1.6-2.9-3.3-5.2-2.6c-4.8,1.4-8.1,8.8-7.2,14.6c0.7,4.9,4.5,8.9,8.3,9.5
				c0.1,0-0.1,0,0,0c2.8,0.3,6.7-1.1,9.7-4.4c3.6-4.1,7-11.1,5.4-18.3c-1.9-8.7-10.9-15.8-19.2-15.1c-5.3,0.4-12.9,4.5-19,21.2
				c-5.7,15.5,0.6,28.2,3.7,38.9c2.5,9,0.1,19.4-5,23.1C428.1,311.9,423.9,314.7,415.2,313.5z"/>
		</g>
		<g id="Fødder_1_">
			<path class="st16" d="M342.1,351.4L342.1,351.4c-4.2,0.1-7.6-3.3-7.7-7.5l-0.6-50.7c-0.1-4.2,3.3-7.6,7.5-7.7l0,0
				c4.2-0.1,7.6,3.3,7.7,7.5l0.6,50.7C349.6,347.9,346.2,351.3,342.1,351.4z"/>
			<path class="st16" d="M367.6,351L367.6,351c-4.2,0.1-7.6-3.3-7.7-7.5l-0.6-50.7c-0.1-4.2,3.3-7.6,7.5-7.7h0
				c4.2-0.1,7.6,3.3,7.7,7.5l0.6,50.7C375.2,347.5,371.8,351,367.6,351z"/>
			<path class="st17" d="M339.5,340.7l4.8-0.1c4.1-0.1,7.4,3.2,7.5,7.3v0c0.1,4.1-3.2,7.4-7.3,7.5l-4.8,0.1
				c-4.1,0.1-7.4-3.2-7.5-7.3l0,0C332.2,344.1,335.5,340.7,339.5,340.7z"/>
			<path class="st17" d="M365.1,340.4l4.8-0.1c4.1-0.1,7.4,3.2,7.5,7.3l0,0c0.1,4.1-3.2,7.4-7.3,7.5l-4.8,0.1
				c-4.1,0.1-7.4-3.2-7.5-7.3l0,0C357.7,343.8,361,340.4,365.1,340.4z"/>
		</g>
		<g id="Krop_2_">

				<ellipse transform="matrix(0.9999 -1.245924e-02 1.245924e-02 0.9999 -2.9289 4.4006)" class="st18" cx="351.7" cy="237.3" rx="53" ry="73.7"/>

				<ellipse transform="matrix(0.9999 -1.247180e-02 1.247180e-02 0.9999 -2.8968 4.4044)" class="st17" cx="351.7" cy="234.5" rx="20.6" ry="31.2"/>
			<g id="Venstre_arm_4_">
				<path class="st16" d="M309.4,193.3c-16.7-0.5-18.4,26.2-26.6,52.2c-1,3.3-1,7.9,1.1,10.7c5.5,7.3,11,14.5,16.6,21.8
					c0.1,0.1-5.1-6.3,0.3,0.4c5.4,6.7,12.4-2.9,7.7-10.6c-3.3-5.5-6.8-10.2-13.3-18c-1-1.2-1.1-3.1-0.3-4.2l14.6-33.6L309.4,193.3z"
					/>

					<ellipse transform="matrix(0.9744 -0.2247 0.2247 0.9744 -53.5388 75.4118)" class="st19" cx="304.5" cy="272.9" rx="6.4" ry="9.2"/>
			</g>
			<g id="Venstre_arm_3_">
				<path class="st16" d="M393,191.7c16.7-1,19,25.7,27.9,51.5c1.1,3.3,1.2,7.9-0.9,10.8c-5.3,7.4-10.7,14.8-16,22.2
					c-0.1,0.1,5-6.5-0.3,0.4c-5.3,6.9-12.5-2.5-8-10.4c3.2-5.6,6.5-10.4,12.8-18.3c1-1.2,1-3.1,0.2-4.2l-15.5-33.3L393,191.7z"/>

					<ellipse transform="matrix(0.2004 -0.9797 0.9797 0.2004 54.197 608.5688)" class="st19" cx="399.9" cy="271.1" rx="9.2" ry="6.4"/>
			</g>

				<ellipse transform="matrix(0.9999 -1.267116e-02 1.267116e-02 0.9999 -3.343 4.4848)" class="st19" cx="352.3" cy="266.1" rx="29" ry="25.1"/>
			<path class="st20" d="M338.6,244c0,0,12.8-6.6,27-0.3C365.5,243.7,352.5,233.2,338.6,244z"/>
		</g>
		<g id="Hovede_1_">
			<circle class="st16" cx="300.5" cy="135.4" r="15.1"/>
			<circle class="st16" cx="403.9" cy="134.7" r="15.1"/>
			<path class="st18" d="M357.8,67.4c0.2-1.8-2-4.8,0.4-6.3c-5.4-0.4-5.8,3.5-6.8,4.5c-0.9,0.9-2-4.9,2.3-7.8
				c-9.6-0.4-7.8,7.2-11.4,10.3c-24,4.9-42,27.7-41.6,54.8c0.4,30.4,23.7,54.8,52.1,54.5c28.4-0.3,51.1-25.3,50.7-55.7
				C403.1,93.4,383.2,70.4,357.8,67.4z"/>

				<ellipse transform="matrix(0.9999 -1.229671e-02 1.229671e-02 0.9999 -1.856 4.3444)" class="st19" cx="352.4" cy="153.1" rx="54.1" ry="30.5"/>
			<g id="Øjne_2_">

					<ellipse transform="matrix(0.9999 -1.229671e-02 1.229671e-02 0.9999 -1.3544 4.2253)" class="st21" cx="342.9" cy="112.2" rx="4.9" ry="7.6"/>

					<ellipse transform="matrix(0.9999 -1.229671e-02 1.229671e-02 0.9999 -1.3443 4.447)" class="st21" cx="361" cy="111.5" rx="4.9" ry="7.6"/>
			</g>
			<g id="Næsebor_1_">
				<path class="st21" d="M349.9,132.6c0.5-3.9-0.1-5.6-4.4-7.1L349.9,132.6z"/>
				<path class="st21" d="M354.3,132.8c-0.6-3.9-0.1-5.6,4.3-7.2L354.3,132.8z"/>
			</g>
			<path class="st21" d="M371,154.8c0,3.4-8.2-3.6-18.6-3.4c-10.4,0.1-18.9,7.3-19,3.9c0-3.4,8.3-6.2,18.7-6.3
				C362.5,148.8,371,151.5,371,154.8z"/>
		</g>

			<ellipse transform="matrix(0.9999 -1.229671e-02 1.229671e-02 0.9999 -3.2664 4.3528)" class="st22" cx="352.3" cy="267.8" rx="0.7" ry="2"/>

			<ellipse transform="matrix(0.9999 -1.229671e-02 1.229671e-02 0.9999 -1.2948 4.2527)" class="st23" cx="345.2" cy="107.4" rx="0.7" ry="1.5"/>

			<ellipse transform="matrix(0.9999 -1.229671e-02 1.229671e-02 0.9999 -1.2906 4.4803)" class="st23" cx="363.7" cy="107.2" rx="0.7" ry="1.5"/>
	</g>
	<g>
		<g>
			<path class="st24" d="M279.3,0l-1.2,7.4c0,4.1-7.2,18.8-9,22.8l-4,9.2c0,0,0,0,0,0l-4.1,9.4l-2.9,6.6l-4,9.1l-18.4,42.3
				c-0.2,0.3-3.7,16.4-4,16.8l-17,21.1l-5.9,7.3v0l-19.5,24.1c-0.7,1-2.3,2.5-4.6,4.5c-2.4,2-5.6,4.6-9.2,7.3
				c-2.6,2-5.6,4.2-8.6,6.4c-1.2,0.9-2.4,1.8-3.7,2.7c-5.5,3.9-11.3,8-16.9,11.8c-2.2,1.5-4.4,3-6.6,4.4
				c-9.9,6.6-18.5,11.9-22.6,13.7l-7.4,4l-5.4,2.9l-4.8,2.6l-42.4,23l-17,9.2l-8.2,4.5h0l-5.2,2.8l-0.8,0.5l-1.8,0.9
				c-0.9,0.4-1.9,0.8-3,1.1l-7.2,2.2L0,285v7.1l26.2-8.6l0.6-0.2c0.8-0.3,1.6-0.6,2.4-0.9L63.9,264l24.6-13.1l15-8l0,0l3.2-1.7
				l0.6-0.3l5.6-3l22.7-12.1c2.3-1,5-2.4,7.9-4c0,0,0.1,0,0.1-0.1c2.1-1.2,4.4-2.5,6.7-3.9c1.7-1.1,3.5-2.2,5.3-3.3
				c0.3-0.2,0.6-0.4,0.9-0.6v0c2.2-1.4,4.4-2.9,6.6-4.4c3.4-2.3,6.7-4.7,9.8-7.1c4.2-3.2,8-6.3,11.2-9.2h0c3.7-3.3,6.5-6.2,7.9-8.4
				l50.7-64.4c0.7-0.8,3.6-14.9,4-15.8l8.3-19.1l4.4-10.2v0l0.5-1.2l4.8-11l18.6-42.8c1.3-2.9,5.6-14.5,7-20.3H279.3z"/>
		</g>
		<path class="st25" d="M212,153.7c0,0-18.4-7.4-0.6-24.2l3.6,9c0.6,1.6,0.7,3.4,0.1,5.2L212,153.7z"/>
		<path class="st25" d="M26.8,280.9c0,0-7-16.5,17.5-21.8l-4.2,9.9c-0.7,1.8-2,3.4-3.7,4.7L26.8,280.9z"/>
		<path class="st25" d="M275,59.1c0,0-0.7,18.6-24.4,16.5l7.8-8.6c1.4-1.5,3.2-2.7,5.2-3.5L275,59.1z"/>
		<path class="st25" d="M114.4,243.3c0,0-10.9,17.7-28.7,6l11-5.1c2-0.9,4.1-1.4,6.1-1.3L114.4,243.3z"/>
		<path class="st25" d="M264.8,49.9c0,0-20.7-3.2-7.2-22.5l6,7.7c1.1,1.4,1.6,3,1.5,4.8L264.8,49.9z"/>
	</g>
	<g>
		<circle class="st18" cx="85.7" cy="110.1" r="35.2"/>
		<path class="st19" d="M69.8,109.5l0-10.3c0-4.5,4.8-7.3,8.7-5L99,104.4c3.9,2.2,3.9,7.8,0,10l-20.5,10.3c-3.9,2.2-8.7-0.5-8.7-5
			L69.8,109.5z"/>
	</g>
	<rect x="0.5" y="-0.6" class="st10" width="500" height="500"/>
	<g>
		<rect x="0.5" y="380.5" class="st5" width="500" height="120"/>
		<g>
			<path class="st11" d="M99.5,411.3c2.1,1.6,3.5,3.8,4,6.6h-6.8c-0.4-0.9-1.1-1.7-2.1-2.3s-2-0.8-3.3-0.8c-2,0-3.6,0.7-4.9,2
				s-1.8,3.2-1.8,5.5c0,2.5,0.6,4.5,1.9,5.8s3.1,2,5.5,2c1.5,0,2.9-0.4,4-1.3c1.1-0.8,2-2,2.4-3.6h-8.1v-4.6h13.4v6.3
				c-0.5,1.5-1.3,3-2.4,4.3c-1.1,1.3-2.5,2.4-4.2,3.2s-3.7,1.2-5.9,1.2c-2.7,0-5-0.6-7-1.7s-3.5-2.7-4.6-4.8c-1.1-2-1.6-4.4-1.6-7
				s0.5-5,1.6-7c1.1-2,2.6-3.6,4.6-4.8c2-1.1,4.3-1.7,6.9-1.7C94.6,408.8,97.3,409.7,99.5,411.3z"/>
			<path class="st11" d="M121,435.6l-5.7-10h-1.5v10h-6.4v-26.5h10.9c2.1,0,3.9,0.4,5.3,1.1c1.4,0.7,2.5,1.7,3.3,3
				c0.7,1.3,1.1,2.7,1.1,4.3c0,1.9-0.5,3.6-1.6,4.9s-2.6,2.3-4.6,2.8l6.3,10.4H121z M113.8,421.2h4c1.3,0,2.2-0.3,2.8-0.8
				s0.9-1.4,0.9-2.5c0-1-0.3-1.9-0.9-2.5c-0.6-0.6-1.5-0.9-2.8-0.9h-4V421.2z"/>
			<path class="st11" d="M137.5,409.1v15.3c0,1.7,0.4,3.1,1.2,4c0.8,0.9,1.9,1.4,3.4,1.4c1.5,0,2.6-0.5,3.4-1.4
				c0.8-0.9,1.2-2.3,1.2-4v-15.3h6.4v15.3c0,2.5-0.5,4.6-1.5,6.3c-1,1.7-2.3,3-4,3.9c-1.7,0.9-3.6,1.3-5.7,1.3s-4-0.4-5.6-1.3
				c-1.6-0.8-2.9-2.1-3.8-3.9s-1.4-3.8-1.4-6.3v-15.3H137.5z"/>
			<path class="st11" d="M180.9,435.6h-6.4l-10.7-16.3v16.3h-6.4v-26.5h6.4l10.7,16.4v-16.4h6.4V435.6z"/>
			<path class="st11" d="M207.5,429.2c-1.1,2-2.7,3.6-4.8,4.7c-2.1,1.1-4.5,1.7-7.4,1.7h-10v-26.5h10c2.8,0,5.3,0.5,7.4,1.6
				c2.1,1.1,3.7,2.6,4.8,4.6s1.7,4.3,1.7,6.9S208.6,427.2,207.5,429.2z M200.6,427.9c1.4-1.3,2.1-3.2,2.1-5.6c0-2.4-0.7-4.3-2.1-5.6
				c-1.4-1.3-3.3-2-5.8-2h-3v15.1h3C197.2,429.9,199.2,429.2,200.6,427.9z"/>
			<path class="st11" d="M219.2,430.7h8.5v4.9h-14.9v-26.5h6.4V430.7z"/>
			<path class="st11" d="M252.8,414.2v5.4h8.7v4.9h-8.7v6h9.8v5.1h-16.2v-4.5h-8.5l-2.3,4.5h-7l13.6-26.5h20.5v5.1H252.8z
				 M246.4,426.2v-12l-6.1,12H246.4z"/>
			<path class="st11" d="M286.8,411.3c2.1,1.6,3.5,3.8,4,6.6h-6.8c-0.4-0.9-1.1-1.7-2.1-2.3s-2-0.8-3.3-0.8c-2,0-3.6,0.7-4.9,2
				s-1.8,3.2-1.8,5.5c0,2.5,0.6,4.5,1.9,5.8s3.1,2,5.5,2c1.5,0,2.9-0.4,4-1.3c1.1-0.8,2-2,2.4-3.6h-8.1v-4.6h13.4v6.3
				c-0.5,1.5-1.3,3-2.4,4.3c-1.1,1.3-2.5,2.4-4.2,3.2s-3.7,1.2-5.9,1.2c-2.7,0-5-0.6-7-1.7s-3.5-2.7-4.6-4.8c-1.1-2-1.6-4.4-1.6-7
				s0.5-5,1.6-7c1.1-2,2.6-3.6,4.6-4.8c2-1.1,4.3-1.7,6.9-1.7C282,408.8,284.7,409.7,286.8,411.3z"/>
			<path class="st11" d="M315.4,411.3c2.1,1.6,3.5,3.8,4,6.6h-6.8c-0.5-0.9-1.1-1.7-2.1-2.3c-0.9-0.6-2-0.8-3.3-0.8
				c-2,0-3.6,0.7-4.9,2c-1.2,1.4-1.8,3.2-1.8,5.5c0,2.5,0.6,4.5,1.9,5.8c1.3,1.3,3.1,2,5.5,2c1.5,0,2.9-0.4,4-1.3
				c1.1-0.8,2-2,2.4-3.6h-8.1v-4.6h13.4v6.3c-0.5,1.5-1.3,3-2.4,4.3c-1.1,1.3-2.5,2.4-4.2,3.2c-1.7,0.8-3.7,1.2-5.9,1.2
				c-2.7,0-5-0.6-7-1.7s-3.5-2.7-4.6-4.8c-1.1-2-1.6-4.4-1.6-7s0.5-5,1.6-7c1.1-2,2.6-3.6,4.6-4.8c2-1.1,4.3-1.7,6.9-1.7
				C310.5,408.8,313.2,409.7,315.4,411.3z"/>
			<path class="st11" d="M329.7,414.2v5.5h9v4.8h-9v5.9h10.1v5.1h-16.5v-26.5h16.5v5.1H329.7z"/>
			<path class="st11" d="M367,435.6h-6.4l-10.7-16.3v16.3h-6.4v-26.5h6.4l10.7,16.4v-16.4h6.4V435.6z"/>
			<path class="st11" d="M393.5,429.2c-1.1,2-2.7,3.6-4.8,4.7c-2.1,1.1-4.5,1.7-7.4,1.7h-10v-26.5h10c2.8,0,5.3,0.5,7.4,1.6
				c2.1,1.1,3.7,2.6,4.8,4.6s1.7,4.3,1.7,6.9S394.7,427.2,393.5,429.2z M386.7,427.9c1.4-1.3,2.1-3.2,2.1-5.6c0-2.4-0.7-4.3-2.1-5.6
				c-1.4-1.3-3.3-2-5.8-2h-3v15.1h3C383.3,429.9,385.3,429.2,386.7,427.9z"/>
			<path class="st11" d="M405.3,414.2v5.5h9v4.8h-9v5.9h10.1v5.1h-16.5v-26.5h16.5v5.1H405.3z"/>
			<path class="st11" d="M160.2,475.7h-9.9l-1.6,4.8h-6.7l9.7-26.3h7.4l9.7,26.3h-6.8L160.2,475.7z M158.6,470.8l-3.3-9.7l-3.3,9.7
				H158.6z"/>
			<path class="st11" d="M194.7,480.5h-6.4l-10.7-16.3v16.3h-6.4v-26.5h6.4l10.7,16.4v-16.4h6.4V480.5z"/>
			<path class="st11" d="M205.5,454.1v26.5h-6.4v-26.5H205.5z"/>
			<path class="st11" d="M239.7,454.2v26.3h-6.4v-16.4l-5.7,16.4h-5.5l-5.7-16.5v16.5h-6.4v-26.3h7.8l7.2,18.3l7-18.3H239.7z"/>
			<path class="st11" d="M260.5,475.7h-9.9l-1.6,4.8h-6.7l9.7-26.3h7.4l9.7,26.3h-6.8L260.5,475.7z M258.9,470.8l-3.3-9.7l-3.3,9.7
				H258.9z"/>
			<path class="st11" d="M290.5,454.1v5.1h-7.2v21.4h-6.4v-21.4h-7.1v-5.1H290.5z"/>
			<path class="st11" d="M299.6,454.1v26.5h-6.4v-26.5H299.6z"/>
			<path class="st11" d="M323.4,455.4c2,1.2,3.6,2.8,4.8,4.8c1.2,2.1,1.8,4.4,1.8,7c0,2.6-0.6,4.9-1.8,7c-1.2,2.1-2.8,3.7-4.8,4.9
				c-2,1.2-4.3,1.7-6.8,1.7c-2.5,0-4.7-0.6-6.8-1.7s-3.6-2.8-4.8-4.9c-1.2-2.1-1.8-4.4-1.8-7c0-2.6,0.6-4.9,1.8-7
				c1.2-2.1,2.8-3.7,4.8-4.8s4.3-1.7,6.8-1.7C319.1,453.6,321.4,454.2,323.4,455.4z M311.6,461.6c-1.2,1.4-1.9,3.2-1.9,5.6
				c0,2.3,0.6,4.2,1.9,5.5c1.2,1.4,2.9,2.1,5,2.1c2.1,0,3.7-0.7,5-2.1c1.2-1.4,1.9-3.2,1.9-5.5c0-2.3-0.6-4.2-1.9-5.5
				c-1.2-1.4-2.9-2.1-5-2.1C314.5,459.6,312.8,460.3,311.6,461.6z"/>
			<path class="st11" d="M357.1,480.5h-6.4L340,464.3v16.3h-6.4v-26.5h6.4l10.7,16.4v-16.4h6.4V480.5z"/>
		</g>
	</g>
	<g>
		<g>
			<path class="st26" d="M209.4,0c-1.3,10.4-4,26.7-4.9,31l-13.8,71.1v0l-3.6,18.3l-0.4,2l-3.3,16.9l-5.5,28.3v0l-0.7,3.5
				c-0.1,0.6-0.6,5.3-1.1,10.6c-0.2,2-0.4,4.1-0.6,6.1c-0.5,5.2-1,9.6-1.2,10.2l-1.6,4.2l-36.5,97.1c-1,3.5-3.2,7.9-5.9,12.8l0,0
				c-5.3,9.5-13.2,20.7-20.8,29.8l0,0c0,0.1-0.1,0.1-0.1,0.2c-0.2,0.2-0.4,0.4-0.6,0.7c-3.1,3.8-6.2,7.1-9,9.9c-0.5,0.5-1,1-1.5,1.4
				c-1.6,1.5-3.2,2.8-4.6,3.8l-17.1,15.8l-4.2,3.9l-0.5,0.4l-2.5,2.3l-29.8,27.4L13.6,432c-0.6,0.4-1.2,0.7-1.8,1l-0.5,0.2L0.5,438
				L0,438.2V426l0.5-0.2l1.7-0.7l5.4-2.1c0.8-0.3,1.5-0.8,2.3-1.3l1.3-1.2l0,0l0.6-0.6l3.9-3.7l0,0l6.2-5.8l12.8-12.1l18.8-17.8
				L66.7,368l3.6-3.4l4.1-3.8l5.6-5.3c5.4-3.9,21.4-23.4,34.7-41.4c6.6-9,12.6-17.6,16.2-23.7c1.3-2.1,2.2-3.9,2.9-5.4v0
				c0.2-0.5,0.4-1,0.6-1.5l2.9-7.6l11.7-30.3l4.4-11.4l0,0l9.5-24.7l3.2-8.4c0.1-0.2,0.4-3,0.8-6.7c0.4-3.7,0.8-8.3,1.2-12.4
				c0.5-5.1,0.9-9.3,0.9-9.6l0.8-3.8l13-66.4l3-15.2l8.2-41.8c0.1-0.6,0.3-1.4,0.4-2.3v0c0.9-4.4,2.5-11.8,3.8-18.8
				c1.3-7,2.4-13.7,2.4-17l0.5-7.1H209.4z"/>
		</g>
		<path class="st27" d="M135.7,287.9c0,0-14-17.6-0.6-42.9l2.7,16.7c0.5,3,0.5,6.2,0.1,9.2L135.7,287.9z"/>
		<path class="st27" d="M11.8,428.6c0,0-5.4-30.9,13.1-34.3l-3.1,16.4c-0.6,2.9-1.5,5.5-2.8,7.3L11.8,428.6z"/>
		<path class="st27" d="M198.6,97.7c0,0-0.4,32.7-18.4,23.1l5.9-13.3c1-2.4,2.4-4.1,3.9-4.9L198.6,97.7z"/>
		<path class="st27" d="M116.5,345.2c0,0-8.1,28.5-21.7,3.5l8.3-6.3c1.5-1.1,3.1-1.4,4.6-0.8L116.5,345.2z"/>
		<path class="st27" d="M198.5,47.3c0,0-15.7-10.8-5.6-41.5l4.6,15c0.8,2.7,1.2,5.8,1.2,8.9L198.5,47.3z"/>
	</g>
</g>
</svg>
