<?xml version="1.0" encoding="utf-8"?>
<!-- Generator: Adobe Illustrator 24.0.1, SVG Export Plug-In . SVG Version: 6.00 Build 0)  -->
<svg version="1.1" xmlns="http://www.w3.org/2000/svg" xmlns:xlink="http://www.w3.org/1999/xlink" x="0px" y="0px"
	 viewBox="0 0 640 850" style="enable-background:new 0 0 640 850;" xml:space="preserve">
<style type="text/css">
	.st0{fill:#70726F;}
	.st1{fill:#6D1C03;}
	.st2{fill:#D1A16B;}
	.st3{fill:#511502;}
	.st4{fill:#F2BC79;}
	.st5{fill:#876645;}
	.st6{fill:#1E0C07;}
	.st7{fill:#684F33;}
	.st8{fill:#0E0496;}
	.st9{fill:#C1272D;}
	.st10{fill:#C1656B;}
	.st11{fill:#11090A;}
	.st12{fill:#FF001F;}
	.st13{fill:#EDE6E7;}
	.st14{fill:#C45860;}
	.st15{fill:#54252B;}
	.st16{fill:#2B1317;}
	.st17{fill:#E2DDDC;}
	.st18{fill:#CC4627;}
	.st19{fill:#84250B;}
	.st20{fill:#0D1C68;}
	.st21{fill:#333187;}
	.st22{fill:#BA9A78;}
	.st23{fill:#8C615A;}
	.st24{fill:#8E3B2B;}
	.st25{fill:#B79776;}
	.st26{fill:#AA6913;}
	.st27{fill:#BCA486;}
	.st28{fill:#F2930A;}
	.st29{opacity:0.54;fill:#E8C497;}
	.st30{fill:#916631;}
	.st31{fill:#543204;}
	.st32{fill:#071144;}
	.st33{fill:#D7D9E2;}
	.st34{fill:#C95062;}
	.st35{fill:#050303;}
	.st36{fill:#A00D0D;}
	.st37{fill:#F7F6F5;}
	.st38{fill:#736357;}
</style>
<g id="Layer_6">
</g>
<g id="Layer_1">
</g>
<g id="Layer_2">
</g>
<g id="slange">
	<g>
		<g>
			<path class="st1" d="M459,709.5c-3.2-0.5-22.5-2.9-25.8-3.7c-38.8-9.2-80.6-39.4-81-79.5l10.6-5.6c28,29.2,44.7,51.3,80.1,59.8
				c23.4,5.6,33,6.3,47.4-3.9c6.9-4.9,16.8-16.5,11.4-36.3c-8.2-30.7-23.2-77.3-5.9-122.7c19.5-51,52.4-57.6,70.1-58.8
				c28.7-2,62.3,18.6,68.3,48.2c4.9,23.9-3.5,54.3-15.4,67.5c-11,12.1-31,13.4-42.5,12.2c-0.4,0-0.8-0.1-1.2-0.2
				c-15.4-2.4-29.9-18.9-32.5-37.6c-3-21.6,7.2-50.8,26-55.9c10.3-2.8,29,2.9,35.5,12.5c5.9,8.8,3,26.3-8.4,38.7
				c-3.3,3.6-9,3.3-11.9-0.5l0,0c-1.2-1.6-1-3.8,0.5-5.1c9.9-8.9,7.1-18.9,4.1-23.4c-2.9-4.3-7.7-8.9-14.1-7.2
				c-13,3.5-22.1,23.5-19.9,39.2c1.9,13.3,11.9,24.3,22.1,25.9c0.2,0-0.2,0,0,0c7.5,0.8,18.2-2.7,26.4-11.7
				c9.9-11,19.2-29.6,15.2-49.2c-4.8-23.6-28.8-43-51.4-41.5c-14.3,1-34.9,11.6-52.1,56.7c-15.9,41.8,0.8,76.1,8.6,105.2
				c6.5,24.3-0.4,52.5-14.2,62.2C493.8,705.6,482.5,713.1,459,709.5z"/>
		</g>
		<g id="Fødder_1_">
			<path class="st1" d="M268.7,809.4h-17c-6.6,0-12-5.4-12-12V643.5c0-6.6,5.4-12,12-12h17c6.6,0,12,5.4,12,12v153.9
				C280.7,804,275.3,809.4,268.7,809.4z"/>
			<path class="st1" d="M337.7,809.4h-17c-6.6,0-12-5.4-12-12V643.5c0-6.6,5.4-12,12-12h17c6.6,0,12,5.4,12,12v153.9
				C349.7,804,344.3,809.4,337.7,809.4z"/>
			<path class="st2" d="M242.7,780.5h35c5,0,9,4,9,9v22c0,5-4,9-9,9h-35c-4.9,0-9-4-9-9v-22C233.7,784.5,237.7,780.5,242.7,780.5z"
				/>
			<path class="st2" d="M311.7,780.5h35c5,0,9,4,9,9v22c0,5-4,9-9,9h-35c-5,0-9-4-9-9v-22C302.7,784.5,306.7,780.5,311.7,780.5z"/>
		</g>
		<g id="Krop_2_">
			<ellipse class="st3" cx="290" cy="501.5" rx="143.2" ry="199"/>
			<ellipse class="st2" cx="290" cy="493.9" rx="55.7" ry="84.3"/>
			<g id="Venstre_arm_4_">
				<path class="st1" d="M177.2,381.3c-45.1-2-50.6,70.2-73.6,140.1c-2.9,8.9-3.1,21.3,2.7,29c14.7,19.8,29.4,39.7,44,59.5
					c0.3,0.4-13.7-17.3,0.8,1.1c14.5,18.4,33.6-7.3,21.2-28.3c-8.8-14.9-18-27.8-35.2-49c-2.7-3.2-2.9-8.4-0.6-11.4l40.7-90.4"/>

					<ellipse transform="matrix(0.9771 -0.2127 0.2127 0.9771 -123.1369 47.9459)" class="st4" cx="161.2" cy="596.2" rx="17.4" ry="25"/>
			</g>
			<g id="Venstre_arm_3_">
				<path class="st1" d="M403,379.7c45.1-2,50.6,70.2,73.6,140c2.9,8.9,3.1,21.3-2.7,29.1c-14.7,19.8-29.3,39.7-44,59.5
					c-0.3,0.4,13.7-17.3-0.8,1.1c-14.5,18.4-33.6-7.3-21.2-28.3c8.8-14.9,17.9-27.8,35.2-49c2.6-3.3,2.9-8.4,0.6-11.4l-40.7-90.4"/>

					<ellipse transform="matrix(0.2124 -0.9772 0.9772 0.2124 -250.8425 877.7037)" class="st4" cx="419.1" cy="594.5" rx="25" ry="17.4"/>
			</g>
			<ellipse class="st4" cx="290.5" cy="579.3" rx="78.3" ry="67.7"/>
			<path class="st5" d="M254.2,519.3c0,0,34.8-17.4,72.9,0.2C327.1,519.5,292.3,490.6,254.2,519.3z"/>
		</g>
		<g>
			<circle class="st1" cx="154.5" cy="222.6" r="41"/>
			<circle class="st1" cx="434.7" cy="225.5" r="41"/>
			<path class="st3" d="M312.8,40.9c0.7-4.9-5.2-13.1,1.4-17c-14.5-1.4-15.9,9.2-18.6,11.8c-2.4,2.4-5.2-13.2,6.7-21.1
				c-26.1-1.4-21.4,19.2-31.5,27.3C205.6,54,155.8,114.8,155.4,188.2c-0.4,82.5,61.6,149.7,138.6,150.1
				c77,0.4,139.7-66.1,140.2-148.6C434.5,113.5,381.6,50.3,312.8,40.9z"/>

				<ellipse transform="matrix(5.434051e-03 -1 1 5.434051e-03 19.495 565.4696)" class="st4" cx="294" cy="272.9" rx="82.6" ry="146.7"/>
			<g id="Øjne_6_">

					<ellipse transform="matrix(5.434051e-03 -1 1 5.434051e-03 107.177 431.2996)" class="st6" cx="270.4" cy="161.8" rx="20.5" ry="13.2"/>

					<ellipse transform="matrix(5.434051e-03 -1 1 5.434051e-03 156.882 479.1632)" class="st6" cx="319.3" cy="160.7" rx="20.5" ry="13.2"/>
			</g>
			<g id="Næsebor_5_">
				<path class="st6" d="M288.3,217.4c1.6-10.5,0.1-15.1-11.7-19.3L288.3,217.4z"/>
				<path class="st6" d="M300.3,218.1c-1.5-10.6,0.1-15.1,11.9-19.2L300.3,218.1z"/>
			</g>
			<path class="st6" d="M358.6,273.2c0,9.1-40.4,43.5-68.6,43.3c-28.1-0.2-57.4-41.1-57.4-50.2s32-0.3,60.1-0.1
				C320.9,266.3,358.7,264.1,358.6,273.2z"/>

				<ellipse transform="matrix(5.434051e-03 -1 1 5.434051e-03 126.4829 424.7527)" class="st17" cx="276.8" cy="148.8" rx="4" ry="2"/>

				<ellipse transform="matrix(5.434051e-03 -1 1 5.434051e-03 176.0981 475.1834)" class="st17" cx="326.9" cy="149.1" rx="4" ry="2"/>
		</g>
	</g>
	<ellipse class="st7" cx="290" cy="584.5" rx="2" ry="5.5"/>
</g>
<g id="abehoved">
</g>
<g id="tiger">
</g>
</svg>
