<?xml version="1.0" encoding="utf-8"?>
<!-- Generator: Adobe Illustrator 24.0.1, SVG Export Plug-In . SVG Version: 6.00 Build 0)  -->
<svg version="1.1" xmlns="http://www.w3.org/2000/svg" xmlns:xlink="http://www.w3.org/1999/xlink" x="0px" y="0px"
	 viewBox="0 0 460 360" style="enable-background:new 0 0 460 360;" xml:space="preserve">
<style type="text/css">
	.st0{fill:#70726F;}
	.st1{fill:#6D1C03;}
	.st2{fill:#D1A16B;}
	.st3{fill:#511502;}
	.st4{fill:#F2BC79;}
	.st5{fill:#876645;}
	.st6{fill:#1E0C07;}
	.st7{fill:#684F33;}
	.st8{fill:#0E0496;}
	.st9{fill:#C1272D;}
	.st10{fill:#C1656B;}
	.st11{fill:#11090A;}
	.st12{fill:#FF001F;}
	.st13{fill:#EDE6E7;}
	.st14{fill:#C45860;}
	.st15{fill:#54252B;}
	.st16{fill:#2B1317;}
	.st17{fill:#E2DDDC;}
	.st18{fill:#CC4627;}
	.st19{fill:#84250B;}
	.st20{fill:#0D1C68;}
	.st21{fill:#333187;}
	.st22{fill:#BA9A78;}
	.st23{fill:#8C615A;}
	.st24{fill:#8E3B2B;}
	.st25{fill:#B79776;}
	.st26{fill:#AA6913;}
	.st27{fill:#BCA486;}
	.st28{fill:#F2930A;}
	.st29{opacity:0.54;fill:#E8C497;}
	.st30{fill:#916631;}
	.st31{fill:#543204;}
	.st32{fill:#071144;}
	.st33{fill:#D7D9E2;}
	.st34{fill:#C95062;}
	.st35{fill:#050303;}
	.st36{fill:#A00D0D;}
	.st37{fill:#F7F6F5;}
	.st38{fill:#736357;}
</style>
<g id="Layer_6">
</g>
<g id="Layer_1">
</g>
<g id="Layer_2">
</g>
<g id="slange">
</g>
<g id="abehoved">
	<g>
		<g id="Hovede_3_">

				<ellipse transform="matrix(1.301444e-03 -1 1 1.301444e-03 -111.4641 253.2706)" class="st20" cx="71.1" cy="182.4" rx="76.1" ry="62.1"/>

				<ellipse transform="matrix(1.301444e-03 -1 1 1.301444e-03 203.586 560.2448)" class="st20" cx="382.3" cy="178.2" rx="76.1" ry="62.1"/>
			<path class="st21" d="M241.1,37.8c-6.9-0.9-0.9-17.8,1.6-20.3c-8.4-0.9-32.1,5.9-25.4,11.8c2.5,2.2-21.9-7.6-10.1-22.8
				c-41.4,10.9,3,25.1-6.8,32.9c-63.1,11.9-111,70.1-111.1,140.8c-0.1,79.3,60.2,143.7,134.7,143.8s134.9-64.1,135-143.5
				C359.2,107.2,307.7,46.6,241.1,37.8z"/>

				<ellipse transform="matrix(1.301444e-03 -1 1 1.301444e-03 -37.4275 484.62)" class="st22" cx="223.9" cy="261" rx="79.4" ry="142"/>
			<g id="Øjne_4_">

					<ellipse transform="matrix(1.301444e-03 -1 1 1.301444e-03 45.8988 344.5835)" class="st6" cx="195.5" cy="149.3" rx="24.6" ry="18"/>

					<ellipse transform="matrix(1.301444e-03 -1 1 1.301444e-03 94.5958 400.7781)" class="st6" cx="247.9" cy="153" rx="19.7" ry="12.8"/>
			</g>
			<g id="Næsebor_3_">
				<path class="st6" d="M218.2,207.6c1.5-10.1,0-14.5-11.4-18.5"/>
				<path class="st6" d="M229.8,208.3c-1.5-10.1,0-14.5,11.4-18.5"/>
			</g>
			<path class="st6" d="M174.3,259.2c0-8.8,21.4,9.6,48.6,9.7s50-18.1,49.9-9.3c0,8.8-22.1,15.8-49.3,15.7S174.3,267.9,174.3,259.2z
				"/>
		</g>

			<ellipse transform="matrix(1.301444e-03 -1 1 1.301444e-03 69.4444 344.2787)" class="st17" cx="207.1" cy="137.4" rx="5.1" ry="2.5"/>

			<ellipse transform="matrix(1.301444e-03 -1 1 1.301444e-03 113.2243 398.377)" class="st17" cx="256.1" cy="142.5" rx="3.4" ry="1.7"/>
	</g>
</g>
<g id="tiger">
</g>
</svg>
