<svg xmlns="http://www.w3.org/2000/svg" width="975.96" height="537.22" viewBox="0 0 975.96 537.22"><defs><style>.cls-1,.cls-2{fill:#131b28;}.cls-2{opacity:0.2;}</style></defs><title>logo</title><g id="Layer_2" data-name="Layer 2"><g id="Forgrund"><path class="cls-1" d="M112.75,279.12c0,36.43-28.64,63.44-64.71,63.44H0V215.49H48C84.11,215.49,112.75,242.68,112.75,279.12Zm-26.64-.18c0-20.85-16.68-38.8-38.07-38.8H26.83v77.77H48C69.25,317.91,86.11,300,86.11,278.94Z"/><path class="cls-1" d="M125.62,215.67h26.83V342.56H125.62Z"/><path class="cls-1" d="M196.32,318.64h63.44v23.92H169.49V215.49h26.83Z"/><path class="cls-1" d="M356.75,215.49v23.93H294.93v27.73h58.91V290.9H294.93v27.74h63.63v23.92H268.1V215.49Z"/><path class="cls-1" d="M401.16,215.67l32.08,68.7,32.09-68.7h29.73V342.75H468.23V269.69L443,323.17H423.45l-25.19-53.48v73.06H371.43V215.67Z"/><path class="cls-1" d="M542,215.67l32.08,68.7,32.09-68.7h29.73V342.75H609.08V269.69l-25.2,53.48H564.3l-25.19-53.48v73.06H512.28V215.67Z"/><path class="cls-1" d="M690.29,215.49h30.45l48.58,126.89H741L731.62,319h-52l-9.42,23.38H641.89Zm-2.9,79.58h36.25L705.7,247.58Z"/><path class="cls-1" d="M863.77,215.49v23.93H802v27.73h58.92V290.9H802v27.74h63.63v23.92H775.12V215.49Z"/><path class="cls-1" d="M973.08,215.49v23.75H935.19V342.38H908.36V239.24H870.29V215.49Z"/><path class="cls-1" d="M349.66,112.9c0,36.44-28.64,63.45-64.72,63.45h-48V49.27h48C321,49.27,349.66,76.46,349.66,112.9ZM323,112.72c0-20.85-16.68-38.79-38.07-38.79h-21.2v77.76h21.2C306.15,151.69,323,133.75,323,112.72Z"/><path class="cls-1" d="M451.17,49.27V73.2H389.36v27.73h58.91v23.75H389.36v27.74H453v23.93H362.53V49.27Z"/><path class="cls-1" d="M492.68,152.42h63.45v23.93H465.85V49.27h26.83Z"/><path class="cls-1" d="M564.47,49.45H591.3v126.9H564.47Z"/><path class="cls-1" d="M633,49.45l62.54,81.4V49.45h26.83v126.9H699L635.16,92.6v83.75H608.33V49.45Z"/><path class="cls-1" d="M800.12,106.74h64.17v69.79H840.18l-1.63-13.6a59,59,0,0,1-40.06,15c-35.35,0-63.27-28.1-63.27-65.08,0-36.8,27.92-65.08,64.72-65.08,30.09,0,56.56,18.85,62.9,48.58H834.92a37.26,37.26,0,0,0-35-23.38C778,73,761.51,91.51,761.51,112.9c0,21.93,17.58,40.06,39.34,40.06,14.86,0,28.46-8.34,33-22.48H800.12Z"/><path class="cls-1" d="M976,136.65c0,28.46-21.58,41.33-48,41.33-26.83,0-52.21-13.24-52.57-43.33h27.19c2.18,11.6,13.42,17.59,24.65,17.59,9.25,0,21.39-4.17,21.39-15.05,0-24.65-69.61,2.54-69.61-50.21,0-26.29,22.12-39.34,46.41-39.34,24.84,0,43.69,13.78,45.14,40.06H943.33C941.88,78.09,933,73,923.93,73c-7.79,0-17.95,3.81-17.95,13C906,110.18,976,83.89,976,136.65Z"/><polygon class="cls-2" points="1 380.88 1 402.63 830.18 402.63 972.63 537.22 972.63 380.88 1 380.88"/><rect class="cls-2" x="237.13" width="735.5" height="21.75"/></g></g></svg>
