<?xml version="1.0" encoding="utf-8"?>
<!-- Generator: Adobe Illustrator 24.0.1, SVG Export Plug-In . SVG Version: 6.00 Build 0)  -->
<svg version="1.1" xmlns="http://www.w3.org/2000/svg" xmlns:xlink="http://www.w3.org/1999/xlink" x="0px" y="0px"
	 viewBox="0 0 460 360" style="enable-background:new 0 0 460 360;" xml:space="preserve">
<style type="text/css">
	.st0{fill:#70726F;}
	.st1{fill:#6D1C03;}
	.st2{fill:#D1A16B;}
	.st3{fill:#511502;}
	.st4{fill:#F2BC79;}
	.st5{fill:#876645;}
	.st6{fill:#1E0C07;}
	.st7{fill:#684F33;}
	.st8{fill:#0E0496;}
	.st9{fill:#C1272D;}
	.st10{fill:#C1656B;}
	.st11{fill:#11090A;}
	.st12{fill:#FF001F;}
	.st13{fill:#EDE6E7;}
	.st14{fill:#C45860;}
	.st15{fill:#54252B;}
	.st16{fill:#2B1317;}
	.st17{fill:#E2DDDC;}
	.st18{fill:#CC4627;}
	.st19{fill:#84250B;}
	.st20{fill:#0D1C68;}
	.st21{fill:#333187;}
	.st22{fill:#BA9A78;}
	.st23{fill:#8C615A;}
	.st24{fill:#8E3B2B;}
	.st25{fill:#B79776;}
	.st26{fill:#AA6913;}
	.st27{fill:#BCA486;}
	.st28{fill:#F2930A;}
	.st29{opacity:0.54;fill:#E8C497;}
	.st30{fill:#916631;}
	.st31{fill:#543204;}
	.st32{fill:#071144;}
	.st33{fill:#D7D9E2;}
	.st34{fill:#C95062;}
	.st35{fill:#050303;}
	.st36{fill:#A00D0D;}
	.st37{fill:#F7F6F5;}
	.st38{fill:#736357;}
</style>
<g id="Layer_6">
</g>
<g id="Layer_1">
</g>
<g id="Layer_2">
</g>
<g id="slange">
</g>
<g id="abehoved">
	<g>
		<g id="Hovede_2_">
			<ellipse class="st23" cx="107.9" cy="156.5" rx="39.4" ry="39.1"/>
			<ellipse class="st23" cx="352.7" cy="156.1" rx="39.4" ry="39.1"/>
			<path class="st24" d="M248.3,23.3c-0.8,0-15.1-3.4-42.7,0c-62.6,10-108.7,59.9-108.7,118.5c0,65.9,59.9,119.3,133.9,119.3
				s133.8-53.4,133.8-119.3C364.5,81,314.7,30.8,248.3,23.3z"/>
			<ellipse class="st25" cx="230.9" cy="229.2" rx="128.8" ry="109.3"/>
			<g id="Øjne_3_">
				<ellipse class="st6" cx="199.8" cy="93.6" rx="16.2" ry="19.6"/>
				<ellipse class="st6" cx="259.7" cy="92.4" rx="16.2" ry="19.6"/>
			</g>
			<g id="Næsebor_2_">
				<path class="st6" d="M224.7,145.8c1.5-10.1,0-14.4-11.3-18.4"/>
				<path class="st6" d="M236.2,146.4c-1.5-10.1,0-14.4,11.3-18.4"/>
			</g>
			<path class="st6" d="M161.1,189.9c0-14.4,30.1,15.8,68.5,15.9s70.4-29.9,70.4-15.5s-31.2,26-69.5,25.9S161,204.3,161.1,189.9z"/>
		</g>
		<ellipse class="st17" cx="208.4" cy="81.2" rx="2.1" ry="3.4"/>
		<ellipse class="st17" cx="269.6" cy="81.2" rx="2.1" ry="3.4"/>
	</g>
</g>
<g id="tiger">
</g>
</svg>
