<?xml version="1.0" encoding="utf-8"?>
<!-- Generator: Adobe Illustrator 24.0.1, SVG Export Plug-In . SVG Version: 6.00 Build 0)  -->
<svg version="1.1" xmlns="http://www.w3.org/2000/svg" xmlns:xlink="http://www.w3.org/1999/xlink" x="0px" y="0px"
	 viewBox="0 0 460 360" style="enable-background:new 0 0 460 360;" xml:space="preserve">
<style type="text/css">
	.st0{fill:#70726F;}
	.st1{fill:#6D1C03;}
	.st2{fill:#D1A16B;}
	.st3{fill:#511502;}
	.st4{fill:#F2BC79;}
	.st5{fill:#876645;}
	.st6{fill:#1E0C07;}
	.st7{fill:#684F33;}
	.st8{fill:#0E0496;}
	.st9{fill:#C1272D;}
	.st10{fill:#C1656B;}
	.st11{fill:#11090A;}
	.st12{fill:#FF001F;}
	.st13{fill:#EDE6E7;}
	.st14{fill:#C45860;}
	.st15{fill:#54252B;}
	.st16{fill:#2B1317;}
	.st17{fill:#E2DDDC;}
	.st18{fill:#CC4627;}
	.st19{fill:#84250B;}
	.st20{fill:#0D1C68;}
	.st21{fill:#333187;}
	.st22{fill:#BA9A78;}
	.st23{fill:#8C615A;}
	.st24{fill:#8E3B2B;}
	.st25{fill:#B79776;}
	.st26{fill:#AA6913;}
	.st27{fill:#BCA486;}
	.st28{fill:#F2930A;}
	.st29{opacity:0.54;fill:#E8C497;}
	.st30{fill:#916631;}
	.st31{fill:#543204;}
	.st32{fill:#071144;}
	.st33{fill:#D7D9E2;}
	.st34{fill:#C95062;}
	.st35{fill:#050303;}
	.st36{fill:#A00D0D;}
	.st37{fill:#F7F6F5;}
	.st38{fill:#736357;}
</style>
<g id="Layer_6">
</g>
<g id="Layer_1">
</g>
<g id="Layer_2">
</g>
<g id="slange">
</g>
<g id="abehoved">
	<g>
		<g id="Hovede_1_">
			<ellipse class="st18" cx="97.2" cy="221.6" rx="40.2" ry="40"/>
			<ellipse class="st18" cx="372.3" cy="222.8" rx="40.2" ry="40"/>
			<path class="st19" d="M251.6,43.4c0.7-4.8,5.7-18.3,12.1-22.1c-14.3-1.3-26.4,14.6-29,17.1c-2.3,2.3-0.4-21.2,11.3-28.9
				c-25.6-1.3-22.4,21.2-32.3,29.1c-2.2,0.4-3.4-23.1-9.4-19.7C190,27.1,202,46.7,201,47C141.8,63,97.9,120,97.9,188
				c0,80.5,61.2,145.7,136.8,145.7S371.5,268.5,371.5,188C371.5,113.7,319.2,52.3,251.6,43.4z"/>
			<ellipse class="st4" cx="234.5" cy="269.9" rx="144" ry="80.6"/>
			<g id="Øjne_2_">
				<ellipse class="st6" cx="210.7" cy="161.6" rx="13" ry="20"/>
				<ellipse class="st6" cx="258.7" cy="160.3" rx="13" ry="20"/>
			</g>
			<g id="Næsebor_1_">
				<path class="st6" d="M228.6,215.7c1.5-10.3,0-14.7-11.6-18.8"/>
				<path class="st6" d="M240.3,216.4c-1.5-10.3,0-14.7,11.6-18.8"/>
			</g>
			<path class="st6" d="M184.2,268.1c0-8.9,21.7,9.7,49.3,9.8c27.6,0.1,50.7-18.4,50.6-9.5c0,8.9-22.4,16.1-50,16
				C206.5,284.3,184.1,277,184.2,268.1z"/>
		</g>
		<ellipse class="st17" cx="218" cy="156.9" rx="1.7" ry="3.4"/>
		<ellipse class="st17" cx="266.9" cy="156.9" rx="1.7" ry="3.4"/>
	</g>
</g>
<g id="tiger">
</g>
</svg>
