<svg xmlns="http://www.w3.org/2000/svg" viewBox="0 0 284.57 109.76"><defs><style>.cls-1{fill:#4bc7e2;}.cls-2{fill:#fff;}.cls-3{fill:#16202e;}</style></defs><title>send</title><g id="Layer_2" data-name="Layer 2"><g id="Forgrund"><path class="cls-1" d="M28,0H255.42a29.15,29.15,0,0,1,29.15,29.15V80.61a29.15,29.15,0,0,1-29.15,29.15H28a28,28,0,0,1-28-28V28A28,28,0,0,1,28,0Z" transform="translate(284.57 109.76) rotate(180)"/><path class="cls-2" d="M68.46,63.18c0,9.1-7.41,13.34-16,13.34-9,0-17.2-4.74-17.51-15h6.29c.75,5.8,5.48,8.91,11,8.91,4.55,0,9.85-2.12,9.85-7.35,0-11.09-25.43-.94-25.43-18.2,0-8.35,6.92-12.77,14.89-12.77,8.17,0,14.46,4.61,15,13.46H60.24c-.5-4.74-4.3-7.54-8.91-7.54-4,0-8.35,2.12-8.35,6.54C43,55.27,68.46,45.17,68.46,63.18Z"/><path class="cls-2" d="M103.86,59a10.78,10.78,0,0,1-.31,2.8H78.44a9.57,9.57,0,0,0,9.84,9.41,9.43,9.43,0,0,0,8.85-5.67h6.3c-1.75,7-7.86,11-14.9,11-9.35,0-16.08-6.86-16.08-16.14S79,44.17,88.22,44.17C97.07,44.17,103.86,50.72,103.86,59Zm-6.48-2.19c-.68-4.61-4.67-7.29-9-7.29-4.61,0-8.66,3-9.47,7.29Z"/><path class="cls-2" d="M115.64,44.49l.13,3.55a12.81,12.81,0,0,1,9.53-3.87c7.85,0,12.09,6.17,12.09,13.22V76.14h-5.86V58.44c0-5.54-3.05-8.6-7.6-8.6-5.11,0-8.16,3.81-8.16,8.92V76.14h-5.86V44.49Z"/><path class="cls-2" d="M167.56,30.46h5.85V76.21h-5.73l-.06-3.93a13.06,13.06,0,0,1-10.1,4.24c-9.22,0-14.7-7.54-14.7-16.14s5.48-16.27,14.77-16.27a12.56,12.56,0,0,1,10,4.3Zm0,29.85c0-5.42-3.24-10.53-9.1-10.53s-9.72,5-9.72,10.6,3.86,10.47,9.66,10.47S167.56,65.8,167.56,60.31Z"/><path class="cls-3" d="M253.26,53.71,197.45,29.3a1.27,1.27,0,0,0-1.73,1.48,96.41,96.41,0,0,1,2.93,18.39,1.27,1.27,0,0,0,1.06,1.17l27.83,4.53L199.71,59.4a1.29,1.29,0,0,0-1.06,1.18A96.39,96.39,0,0,1,195.72,79a1.3,1.3,0,0,0,.4,1.29,1.28,1.28,0,0,0,.83.3,1.34,1.34,0,0,0,.51-.11L253.27,56a1.28,1.28,0,0,0,.75-1.17A1.25,1.25,0,0,0,253.26,53.71Z"/></g></g></svg>
