<svg xmlns="http://www.w3.org/2000/svg" viewBox="0 0 284.57 109.76"><defs><style>.cls-1{fill:#bf3458;}.cls-2{fill:#fff;}.cls-3{fill:#16202e;}</style></defs><title>slet</title><g id="Layer_2" data-name="Layer 2"><g id="Forgrund"><path class="cls-1" d="M28,0H255.42a29.15,29.15,0,0,1,29.15,29.15V80.61a29.15,29.15,0,0,1-29.15,29.15H28a28,28,0,0,1-28-28V28A28,28,0,0,1,28,0Z" transform="translate(284.57 109.76) rotate(180)"/><path class="cls-2" d="M68.46,63.18c0,9.1-7.41,13.34-16,13.34-9,0-17.2-4.74-17.51-15h6.29c.75,5.8,5.48,8.91,11,8.91,4.55,0,9.85-2.12,9.85-7.35,0-11.09-25.43-.94-25.43-18.2,0-8.35,6.92-12.77,14.89-12.77,8.17,0,14.46,4.61,15,13.46H60.24c-.5-4.74-4.3-7.54-8.91-7.54-4,0-8.35,2.12-8.35,6.54C43,55.27,68.46,45.17,68.46,63.18Z"/><path class="cls-2" d="M74.57,30.4h5.92V76.14H74.57Z"/><path class="cls-2" d="M118,59a10.71,10.71,0,0,1-.32,2.8H92.52a9.58,9.58,0,0,0,9.85,9.41,9.43,9.43,0,0,0,8.85-5.67h6.29c-1.74,7-7.85,11-14.89,11-9.35,0-16.08-6.86-16.08-16.14s6.54-16.21,15.77-16.21C111.15,44.17,118,50.72,118,59Zm-6.48-2.19c-.69-4.61-4.68-7.29-9-7.29-4.61,0-8.66,3-9.47,7.29Z"/><path class="cls-2" d="M120.32,44.49H122c2.74-.38,3.55-1.81,3.55-5.49V35.45h4.68v9h10.34L140,49.78h-9.78v13c0,4.3,2.36,8.41,8.22,8.41A10.55,10.55,0,0,0,140.7,71v5a10.3,10.3,0,0,1-2.93.5c-8.35,0-13.4-4.49-13.4-13.84V49.78h-4.05Z"/><path class="cls-3" d="M233.42,54.88l15.05-15.05a3,3,0,0,0,0-4.19l-4.37-4.37a3,3,0,0,0-4.2,0l-15.05,15-15-15a3,3,0,0,0-4.2,0l-4.37,4.37a3,3,0,0,0,0,4.19l15,15.05-15,15.05a3,3,0,0,0,0,4.19l4.37,4.38a3,3,0,0,0,4.19,0l15-15,15.05,15a2.94,2.94,0,0,0,2.1.87,3,3,0,0,0,2.1-.87l4.37-4.38a3,3,0,0,0,0-4.19Z"/></g></g></svg>
