<?xml version="1.0" encoding="utf-8"?>
<!-- Generator: Adobe Illustrator 24.0.1, SVG Export Plug-In . SVG Version: 6.00 Build 0)  -->
<svg version="1.1" xmlns="http://www.w3.org/2000/svg" xmlns:xlink="http://www.w3.org/1999/xlink" x="0px" y="0px"
	 viewBox="0 0 1920 1080" style="enable-background:new 0 0 1920 1080;" xml:space="preserve">
<style type="text/css">
	.st0{fill:#0B5424;}
	.st1{fill:#127530;}
	.st2{fill:#288444;}
	.st3{fill:#7ACC8C;}
	.st4{fill:#66A376;}
	.st5{fill:#043511;}
	.st6{fill:#961515;}
	.st7{fill:#B23F3F;}
	.st8{fill:#490F0F;}
	.st9{fill:#191818;}
</style>
<g id="Grøn">
	<rect class="st0" width="320" height="1080"/>
	<rect x="320" class="st1" width="320" height="1080"/>
	<rect x="640" class="st2" width="320" height="1080"/>
	<rect x="960" class="st3" width="320" height="1080"/>
	<rect x="1280" class="st4" width="320" height="1080"/>
	<rect x="1600" class="st5" width="320" height="1080"/>
</g>
<g id="Rød">
	<path class="st6" d="M562.8,418.3c0,0-13.8-293.3,222.1-102.5c0,0,153.2-182.7,206.9-3.7c0,0,239.7-123,217.5,15.8
		c0,0,240.7-194.8,159,66.2c0,0,140.7,7,51.7,96c0,0,116.7,117.5-61,131.5c0,0,12.9,186.4-204.6,38.2c0,0-162.5,129.6-228,6.5
		c0,0-109.4,321.8-168.4,12.1c0,0-230.3,154.7-164.9-60.6c0,0-212.1,22.3-71.1-102.7C522,515,349,345,562.8,418.3z"/>
	<path class="st6" d="M562.8,419.3c0,0-13.8-293.3,222.1-102.5c0,0,153.2-182.7,206.9-3.7c0,0,239.7-123,217.5,15.8
		c0,0,240.7-194.8,159,66.2c0,0,140.7,7,51.7,96c0,0,116.7,117.5-61,131.5c0,0,12.9,186.4-204.6,38.2c0,0-162.5,129.6-228,6.5
		c0,0-109.4,321.8-168.4,12.1c0,0-230.3,154.7-164.9-60.6c0,0-212.1,22.3-71.1-102.7C522,516,349,346,562.8,419.3z"/>
	<path class="st7" d="M579,394c0,0,20-196,154-93C733,301,620,258,579,394z"/>
	<path class="st7" d="M1022,310c0,0,194-81,169,12C1191,322,1194,257,1022,310z"/>
	<path class="st7" d="M1238,321c0,0,154-114,126,10C1364,331,1372,242,1238,321z"/>
	<path class="st8" d="M774,688c0,0,35,186,108,42C882,730,819,837,774,688z"/>
	<path class="st8" d="M727,677c0,0-152,86-126-30C601,647,596,731,727,677z"/>
	<path class="st8" d="M1193,661c0,0,132,85,148-20C1341,641,1319,711,1193,661z"/>
	<path class="st8" d="M507,549c0,0-56,58,60,54C567,603,478,604,507,549z"/>
	<path class="st7" d="M1431,458c0,0,30-52-53-54C1378,404,1444,412,1431,458z"/>
	<ellipse class="st7" cx="695" cy="300.5" rx="16" ry="7.5"/>
	<ellipse class="st7" cx="670" cy="311.8" rx="11" ry="5.2"/>
	<ellipse transform="matrix(0.9264 -0.3766 0.3766 0.9264 -16.847 508.82)" class="st7" cx="1293" cy="297.5" rx="16" ry="7.5"/>

		<ellipse transform="matrix(0.9264 -0.3766 0.3766 0.9264 -15.527 519.0793)" class="st7" cx="1319.9" cy="299.3" rx="12.3" ry="5.8"/>

		<ellipse transform="matrix(0.9264 -0.3766 0.3766 0.9264 -22.2038 516.7407)" class="st7" cx="1310.6" cy="315.2" rx="7.8" ry="3.6"/>

		<ellipse transform="matrix(0.7071 -0.7071 0.7071 0.7071 -300.1446 634.7451)" class="st8" cx="616.1" cy="679.7" rx="5.3" ry="11.3"/>

		<ellipse transform="matrix(0.7071 -0.7071 0.7071 0.7071 -296.4297 645.6529)" class="st8" cx="631.2" cy="680.6" rx="4.7" ry="9.9"/>
	<ellipse transform="matrix(0.5 -0.866 0.866 0.5 -263.7216 874.0089)" class="st8" cx="625.1" cy="665.4" rx="3" ry="6.4"/>
	<ellipse transform="matrix(0.1799 -0.9837 0.9837 0.1799 -59.9057 1423.9021)" class="st8" cx="824" cy="747.9" rx="3" ry="6.5"/>
	<ellipse transform="matrix(0.89 -0.4559 0.4559 0.89 -156.5238 670.2553)" class="st8" cx="1311" cy="659.6" rx="13.6" ry="6.4"/>
	<ellipse class="st8" cx="833.6" cy="759.4" rx="9.1" ry="4.3"/>
	<path class="st7" d="M823,294c0,0,88-91,134-17C957,277,917,233,823,294z"/>
	<path class="st7" d="M518,495c0,0-110-117,20-70C538,425,428,386,518,495z"/>
	<path class="st8" d="M1380,602c0,0,80-3,56-69C1436,533,1438,595,1380,602z"/>
	<path class="st8" d="M943,675c0,0,50,76,185-12C1128,663,993,721,943,675z"/>
</g>
<g id="Navn">
	<g>
		<path class="st9" d="M662.8,558.5c0,0.5-0.2,0.9-0.6,1.3c-0.4,0.4-0.9,0.7-1.4,0.9c-0.5,0.2-1.1,0.5-1.7,0.7
			c-0.6,0.2-1.1,0.4-1.5,0.6c-0.7-0.3-1.3-0.5-2-0.6c-0.7-0.1-1.3-0.4-1.9-0.8h-0.6c-1,0-1.7,0.1-2.3,0.3c-0.8-0.3-1.5-0.7-2.1-1.2
			c-0.5-0.5-1.1-1-1.5-1.6c-0.5-0.6-1-1.1-1.4-1.6c-0.5-0.5-1.1-1-1.8-1.4c-1.1-2.7-2-5.4-2.9-8.1c-0.8-2.7-1.5-5.5-1.9-8.3
			c0.1-0.3,0.2-0.6,0.3-0.9c0.1-0.3,0.1-0.6,0.1-0.9c0-0.2,0-0.4-0.1-0.7c-0.1-0.2-0.3-0.4-0.6-0.4c0.3-0.4,0.5-0.9,0.6-1.5
			s0.1-1.1,0.1-1.6c0-1.1-0.1-1.9-0.4-2.6c0.4-0.3,0.5-0.7,0.5-1.3c-0.1-0.6,0.1-1.1,0.5-1.3c-0.3-0.9-0.5-1.8-0.5-2.6
			c0-1.2,0.2-2.3,0.5-3.4c0.3-1.1,0.5-2.3,0.5-3.4c0-0.3,0-0.5,0-0.8c0-0.3-0.1-0.5-0.1-0.8c0.3-0.9,0.6-1.7,0.9-2.6
			c0.3-0.9,0.4-1.8,0.4-2.7c0-0.6-0.1-1.2-0.4-1.6c0.8-2.4,1.3-4.9,1.7-7.3c0.3-2.4,0.6-4.9,0.9-7.4c-0.1-0.1-0.1-0.2-0.2-0.2
			c-0.1-0.1-0.1-0.1-0.1-0.2c0-0.3,0.2-0.5,0.5-0.6c0.3-0.2,0.5-0.5,0.4-0.9c-0.7,0.6-1.3,1.4-1.8,2.2c-0.5,0.9-0.9,1.7-1.3,2.6
			c-0.4,0.9-0.8,1.7-1.3,2.5c-0.5,0.8-1,1.6-1.8,2.2c-0.1,0.6-0.3,1.1-0.6,1.7c-0.3,0.5-0.5,1.1-0.5,1.8c-0.1,0-0.1,0-0.2,0
			c-0.1,0-0.2,0-0.3,0c-0.2,0-0.4,0.1-0.5,0.4c-0.1,0.3-0.3,0.3-0.6,0.2c-1.4,2.4-2.9,4.7-4.6,7c-1.7,2.3-3.8,4.1-6.5,5.5
			c-0.5-0.2-0.9-0.2-1.4-0.2c-0.8,0-1.6,0.2-2.3,0.6c-0.8,0.4-1.3,0.6-1.5,0.6c-0.6,0-1.3-0.3-2.2-0.8c-0.9-0.6-1.8-0.9-2.7-0.9
			c-1-0.6-1.8-1.2-2.4-1.8c-0.6-0.6-1.6-1-2.8-1.1c-0.8-1.1-1.7-2.2-2.5-3.2c-0.8-1-1.6-2-2.3-3c-0.8-1-1.4-2-2-3.2
			c-0.6-1.1-1-2.4-1.3-3.8c0.1-0.1,0.1-0.2,0.1-0.3c0-0.3-0.2-0.5-0.5-0.4c-0.3,0.1-0.5-0.1-0.5-0.5v-0.6c0-0.4-0.1-0.8-0.2-1.2
			c-0.2-0.3-0.2-0.7-0.1-1.2c-0.4-0.6-0.8-1.2-1-1.8c-0.2-0.6-0.7-1.2-1.3-1.7v-0.7c0-0.3,0-0.6,0-0.9c0-0.3-0.1-0.6-0.3-0.8
			c-0.2-0.2-0.4-0.4-0.7-0.4c-0.1-1.9-0.5-3.9-1.3-5.9c-0.8-2-1.6-3.9-2.2-5.8c-0.5,1.4-0.8,2.8-1.1,4.2c-0.2,1.4-0.4,2.8-0.4,4.3
			v1.4c0,0.4,0.1,0.9,0.2,1.3c-0.2,0.3-0.4,0.5-0.8,0.6c-0.3,0.1-0.5,0.3-0.6,0.6c-0.1,0.3-0.1,0.5,0,0.8c0,0.3,0,0.5,0,0.8
			c-0.1,1.3-0.3,2.5-0.5,3.7c-0.4,1.8-0.8,3.5-1.3,5.3c-0.5,1.8-0.7,3.6-0.7,5.5c0,0.1,0,0.3,0,0.4c0,0.2,0,0.3,0,0.4
			c-1,0.7-1.5,1.7-1.5,2.8c-0.1,1.1-0.2,2.2-0.5,3.2c-0.3,1.5-0.7,3-1.1,4.4c-0.4,1.5-0.8,3-1.1,4.5c-0.2,0.9-0.3,1.7-0.5,2.5
			c-0.1,0.8-0.2,1.7-0.4,2.5c-0.1,0.5-0.3,0.9-0.6,1.2c-0.3,0.3-0.6,0.7-0.7,1.1c-0.1,0.4-0.1,0.8,0,1.2c0,0.5,0,0.9,0,1.2
			c0,0.6-0.1,1.2-0.2,1.8c-0.1,0.6-0.5,1.1-1.1,1.5c0.1,1.4,0.4,2.6,0.8,3.6c0.4,1,0.9,2.1,1.4,3.3h2.3v0.3c0,0.5,0.1,1,0.3,1.4
			c0.2,0.4,0.6,0.6,1.3,0.6c-0.1,0.2-0.1,0.5-0.1,0.8c0,0.5,0.1,0.9,0.3,1.3c0.2,0.4,0.4,0.8,0.5,1.3c-1.2,1.8-2.5,3.1-3.9,3.9
			c-1.4,0.9-3.3,1.3-5.7,1.3h-1.4c-0.3-0.9-0.7-1.7-1.1-2.5c-0.4-0.8-0.8-1.6-1.2-2.4c-0.4-0.8-0.7-1.6-1-2.4
			c-0.3-0.8-0.4-1.7-0.4-2.6c0-0.2,0-0.4,0.1-0.6c0.1-0.2,0.1-0.4,0.1-0.6c0-0.3-0.1-0.4-0.4-0.5c-0.2-0.1-0.4-0.3-0.4-0.8
			c0-0.4,0-0.7,0-1c0-0.3,0-0.7,0-1c0-1.8,0.1-3.5,0.5-5.2c0.3-1.7,0.5-3.5,0.6-5.2c0.3-0.3,0.5-0.6,0.5-1c0-0.4,0.1-0.8,0.5-1v-0.6
			c0-1,0.1-1.9,0.4-2.9c0.2-1,0.5-1.9,0.8-2.8c0.3-0.9,0.6-1.8,0.8-2.8c0.2-1,0.4-1.9,0.4-2.9v-1.3c0-0.4,0.2-0.5,0.6-0.5
			c0.4,0,0.6-0.2,0.7-0.6c0.1-0.7,0.2-1.5,0.2-2.2c0-0.7,0.1-1.5,0.2-2.2c0.3-1.4,0.6-2.9,1-4.4c0.4-1.5,0.5-2.9,0.5-4.4v-0.2
			c0-0.2,0.1-0.5,0.5-1c0.3-0.5,0.5-1,0.5-1.5c0-0.4-0.1-0.7-0.3-1c0.1,0.1,0.2,0.1,0.4,0.1c0.2,0,0.4-0.1,0.5-0.2
			c0.1-0.1,0.2-0.3,0.4-0.4c-0.2-0.2-0.3-0.4-0.3-0.6c0-0.3,0-0.5,0.1-0.8c0.1-0.2,0.1-0.5,0.1-0.8c0-0.4-0.2-0.6-0.6-0.8
			c0.7-1.2,1.2-2.4,1.6-3.8c0.3-1.3,0.6-2.7,0.7-4.1c0.1-1.4,0.3-2.8,0.4-4.2c0.1-1.4,0.4-2.8,0.8-4c-0.1-0.3-0.2-0.7-0.2-1
			c0-0.4,0-0.7,0-1c0-0.2,0-0.4-0.1-0.7c-0.1-0.2,0-0.5,0.1-0.7c0-0.1,0-0.2,0.1-0.4l0.2-0.5c0.1-0.4,0.2-0.8,0.2-1.2
			c0-0.4,0.1-0.8,0.1-1.2c0.1-1.2,0.2-2.5,0.1-3.8c0-1.3,0-2.6,0.1-3.8c-0.2-0.2-0.4-0.4-0.5-0.5c-0.2-0.1-0.3-0.3-0.4-0.6
			c0.5-0.7,1-1.5,1.6-2.1c0.6-0.7,1.3-1.2,2.3-1.6c0.2,0.6,0.7,0.9,1.4,0.9c0.4,0,0.8-0.1,1.4-0.2c0.5-0.2,0.9-0.4,1.1-0.6
			c1,0.3,2.1,0.5,3.1,0.4c1.1,0,2,0.2,2.9,0.7c0.2,0.8,0.4,1.6,0.7,2.5c0.3,0.9,0.7,1.6,1.3,2.3c0.1,0.7,0.2,1.5,0.4,2.5
			c0.1,1,0.2,2,0.4,3c0.1,1,0.3,2,0.5,3c0.2,0.9,0.6,1.7,1,2.2c0.1,1,0.2,1.9,0.5,2.9c0.3,1,0.6,1.9,1,2.8c0.4,0.9,0.7,1.7,0.9,2.4
			c0.3,0.7,0.4,1.4,0.4,1.8c0,0.4-0.1,0.7-0.2,0.8c-0.2,0.1-0.3,0.4-0.4,0.7c0.2,0.6,0.6,1.1,1,1.5c0.4,0.4,0.9,0.9,1.4,1.4
			c0.9,3,2.1,6,3.5,8.9c1.4,2.9,3.2,5.6,5.2,8.3c0.5,0.1,1,0.2,1.3,0.4c0.3,0.2,0.9,0.3,1.6,0.2v0.6c0,0.5,0.1,0.9,0.4,1.1
			c0.5,0.3,1.2,0.5,1.9,0.5c0.8,0,1.4-0.2,1.9-0.6c0.5-0.4,0.9-0.9,1.3-1.4c0.4-0.5,0.8-1,1.3-1.5c0.4-0.5,1-0.8,1.7-1v-0.2
			c0-0.4,0.1-0.8,0.3-1.1c0.2-0.3,0.3-0.6,0.3-1c0.7-0.4,1.2-1,1.5-1.6c0.4-0.6,0.7-1.3,1-2c0.3-0.7,0.6-1.3,1-1.9
			c0.4-0.6,0.9-1.1,1.6-1.4c0.8-2.3,1.9-4.4,3.1-6.4c1.2-2,2.5-4,3.8-6c0-0.2,0-0.3-0.1-0.5c-0.1-0.2-0.1-0.4-0.1-0.5
			c0-0.1,0.1-0.3,0.2-0.7c0.3-0.5,0.6-1,0.8-1.5c0.2-0.5,0.5-1,0.6-1.6c0.6-1.6,1.2-3.3,1.7-4.9c0.5-1.6,1.3-3.1,2.3-4.6v-2
			c1.1-1.9,1.9-3.9,2.3-6.1c0.5-2.1,1-4.2,1.7-6.2c0.1-0.6,0.3-1.2,0.7-1.8c0.3-0.6,0.7-1.1,1.2-1.3c-0.2-0.3-0.3-0.6-0.3-1
			c0-0.4,0.1-0.8,0.2-1.2c0.1-0.3,0.3-0.7,0.4-1.1c-0.2-0.4-0.3-0.9-0.3-1.4c0-0.7,0.2-1.4,0.7-2.1c0.5-0.7,1.2-1.1,2.2-1.3
			c0.6,0.2,1.1,0.4,1.5,0.8c0.4,0.4,0.8,0.8,1.2,1.2c0.4,0.4,0.8,0.7,1.3,1c0.5,0.2,1,0.3,1.8,0.2c0.5,0.8,0.8,1.6,1,2.5
			c0.2,0.9,0.3,1.8,0.3,2.7c0,1.2-0.1,2.5-0.4,3.8c-0.2,1.3-0.3,2.6-0.3,4c-0.5,0.9-0.8,1.8-1,2.8c-0.2,1-0.4,2-0.6,3
			c-0.2,1-0.4,2-0.6,3c-0.2,1-0.7,1.9-1.3,2.7c-0.2,2.4-0.4,4.7-0.6,7c-0.2,2.3-0.5,4.6-0.9,6.9l-0.8,4.6c-0.1,0.4-0.2,0.8-0.4,1.2
			c-0.1,0.5-0.2,0.8-0.2,1.2c0,0.3,0,0.7,0.1,1c0.1,0.3,0.2,0.6,0.5,0.8c-0.4,0.5-0.7,1.2-0.9,1.9c-0.2,0.7-0.4,1.5-0.5,2.4
			l-0.5,2.5c-0.1,0.8-0.4,1.5-0.7,2.2v0.9c0,2.1-0.4,4.3-1.3,6.5v0.4c0,0.3,0,0.5,0,0.7c0,0.2,0,0.4,0,0.7c0,0.4,0.1,0.7,0.4,0.9
			c-0.5,1.4-0.9,2.8-1.4,4.3c-0.4,1.5-0.7,3-0.9,4.5c-0.2,2.1-0.2,4.2-0.1,6.3c0.1,2.2-0.2,4.2-0.9,6.3c0.4,1,0.6,2,0.7,3.1l0.4,3.4
			c0.1,1.1,0.3,2.2,0.6,3.2s0.8,1.9,1.6,2.6c0.1,0.1,0.1,0.3,0.1,0.5c0,0.4-0.1,0.7-0.4,1c0.1,0.5,0.3,1,0.6,1.4
			c0.3,0.4,0.6,0.7,0.9,1.1c0.3,0.3,0.6,0.7,0.8,1.2c0.2,0.4,0.3,1,0.3,1.6c0.5,0.6,1.2,1,2.3,1.4c1,0.3,2.1,0.6,3.1,1
			c1.1,0.3,2,0.7,2.8,1.2C662.4,556.8,662.8,557.5,662.8,558.5z"/>
		<path class="st9" d="M734.9,532c-0.2,0.7-0.6,1.3-1.1,1.8c-0.6,0.5-1.3,0.8-2,1.1c-0.8,0.3-1.6,0.4-2.4,0.5
			c-0.8,0.1-1.6,0.1-2.2,0.1c-0.3,0-0.6,0-0.9,0c-0.3,0-0.6,0-0.9,0c-0.3,0-0.5,0.1-0.5,0.4c0,0.3-0.2,0.5-0.5,0.6
			c-0.3-0.1-0.6-0.2-0.9-0.2c-0.3-0.1-0.6-0.1-0.9-0.1c-0.4,0-0.8,0-1.2,0.1c-0.4,0.1-0.8,0.1-1.1,0.1c-0.5,0-0.8-0.1-1-0.2
			c-0.2-0.1-0.4-0.2-0.5-0.4c-0.2-0.1-0.3-0.3-0.5-0.4c-0.2-0.2-0.4-0.3-0.7-0.4c-0.4-0.2-0.8-0.2-1-0.1c-0.3,0.1-0.7-0.1-1.2-0.5
			c-0.7-0.5-1.3-1.2-1.9-2c-0.5-0.8-1-1.6-1.5-2.4c-0.5-0.9-1-1.7-1.5-2.6c-0.5-0.9-1.2-1.6-1.9-2.2h-0.7c-1.1,0-1.8,0.4-2.3,1.2
			c-0.3-0.2-0.6-0.4-0.9-0.6c-0.3-0.2-0.6-0.4-1-0.6c-1.4,0.4-2.8,0.7-4.3,1c-1.5,0.3-3,0.4-4.5,0.4h-1.3c-0.4,0-0.8-0.1-1.2-0.2
			c-0.6,0.2-1.1,0.5-1.6,0.8c-0.5,0.3-1,0.4-1.6,0.4c-0.4,0-0.8-0.1-1.3-0.3c-0.4,0-0.5,0.1-0.5,0.4c0,0.3-0.2,0.4-0.6,0.4H686
			c-0.8,0-1.7,0-2.5,0.1c-0.8,0.1-1.6,0.1-2.5,0.1c-1.1,0-2.3-0.1-3.5-0.4c-0.3,0.2-0.6,0.2-1,0.2c-0.2,0.1-0.4,0.3-0.5,0.5
			c-0.1,0.2-0.2,0.5-0.4,0.6c-0.1,0.2-0.3,0.3-0.5,0.5c-0.2,0.1-0.5,0.2-0.9,0.1c-0.1,0.6-0.4,1.1-0.9,1.5c-0.5,0.4-0.7,0.9-0.7,1.7
			c-0.7,0.3-1.2,0.7-1.6,1.2c-0.4,0.5-0.8,1-1.3,1.5c-0.4,0.5-0.9,1-1.3,1.5c-0.5,0.5-1,0.9-1.7,1.1c-0.3,0.3-0.4,0.8-0.3,1.5
			c-0.7,0.5-1.5,0.9-2.4,1.3c-1,0.4-1.9,0.6-2.7,0.6c-1.7,0-3-0.8-3.6-2.5c0-0.5,0-1.1,0.1-1.7s0.2-1.2,0.4-1.8s0.5-1.1,0.8-1.5
			c0.4-0.5,0.9-0.8,1.5-1c0-0.5-0.2-0.8-0.5-1c-0.4-0.2-0.5-0.5-0.5-1c1.6-0.7,3-1.6,4.2-2.7c1.2-1.1,2.3-2.3,3.3-3.6
			c1-1.3,2-2.5,3-3.8c1-1.3,2.2-2.4,3.4-3.4V516c1.8-1.7,3-3.6,3.5-5.8c0.7-0.1,1.1-0.4,1.3-0.8c0.2-0.4,0.3-0.9,0.3-1.5
			c0.3,0,0.5-0.1,0.6-0.4s0.3-0.3,0.8-0.2c0.5-1.3,1.1-2.4,1.8-3.5c0.7-1.1,1.3-2.1,2-3.2c0.7-1.1,1.3-2.2,1.8-3.4
			c0.5-1.2,0.9-2.5,1.1-3.9c0.8-0.1,1.3-0.4,1.4-1.1c0.1-0.7,0.2-1.3,0.3-1.8c0.9-0.7,1.6-1.6,2-2.6c0.5-1,0.9-2.1,1.2-3.2
			c0.4-1.1,0.8-2.2,1.2-3.3c0.5-1.1,1.1-2.1,1.9-2.9v-0.2c0-0.3-0.1-0.4-0.4-0.5c-0.2-0.1-0.4-0.3-0.4-0.5c0.1-0.1,0.1-0.1,0.1-0.2
			c0.7-0.3,1.3-0.7,1.6-1.3c0.4-0.6,0.9-1.1,1.6-1.3c1.3,0.9,2.4,1.5,3.3,1.6c1,0.2,2.2,0.3,3.8,0.4c0.8,0.7,1.2,1.6,1.3,2.7
			c0.1,1,0.3,2.1,0.6,3.1c0.5,1.7,1,3.4,1.6,5c0.6,1.6,1,3.3,1.3,5c0.2,1,0.5,2,1,2.9c0.5,0.9,0.8,1.8,1,2.8c0.1,0.7,0.1,1.6,0,2.5
			c-0.1,0.9,0,1.7,0.4,2.4l0.6,1.3c0.3,0.6,0.6,1.2,0.8,1.8c0.2,0.6,0.4,1.3,0.6,1.9c0.5,1.6,0.9,3.3,1.3,5.2c0.4,1.8,1,3.5,1.9,5
			c0.3,0.5,0.8,0.9,1.4,1.1c0.6,0.2,1.3,0.4,2.1,0.4c0.8,0.1,1.6,0.1,2.3,0.1c0.8,0,1.4,0,1.9,0h0.9c0.4,0,0.7,0.1,1.1,0.2
			c0.2,0.4,0.4,0.8,0.4,1.1c0,0.6-0.2,1.1-0.7,1.5c-0.5,0.4-0.7,0.8-0.7,1.3c0,0.3,0.1,0.6,0.4,0.9c-0.2-0.1-0.6-0.1-1.1-0.1
			c-1.4,0-2.7,0.2-4.1,0.6c0.5,0.9,1.1,1.7,1.9,2.3c0.8,0.6,1.7,1.2,2.6,1.7c0.6-0.4,1.2-0.6,1.9-0.6c0.7,0,1.4,0.1,2,0.4
			c0.6,0.3,1.3,0.4,2,0.4c0.5,0,0.9-0.1,1.2-0.2c0.5,0.5,0.9,1,1.2,1.5C734,531.1,734.4,531.6,734.9,532z M706.6,519.2
			c-0.1-0.9-0.3-1.6-0.6-2c-0.3-0.4-0.5-0.9-0.7-1.5c-0.2-0.7-0.4-1.5-0.5-2.4c-0.1-0.9-0.2-1.7-0.4-2.5c-0.4-1.8-0.9-3.6-1.4-5.4
			c-0.5-1.8-1.2-3.6-1.9-5.3c0.2-0.3,0.4-0.6,0.4-0.9v-0.2c-0.5-0.5-0.9-1.2-1.2-2c-0.2-0.8-0.5-1.5-0.7-2.3
			c-0.2-0.8-0.5-1.5-0.8-2.2c-0.3-0.7-0.9-1.2-1.6-1.6c-0.2,0.3-0.3,0.7-0.3,1.1c0,0.4,0,0.7,0.1,1c0.1,0.3,0.1,0.7,0.1,1
			c-0.6,0.3-1,0.7-1.3,1.2c-0.3,0.6-0.7,1-1.3,1.3c-0.5,1.7-1.2,3.3-2.1,4.8c-0.9,1.5-1.9,3-2.8,4.5c-1,1.5-1.9,3-2.8,4.5
			c-0.9,1.5-1.6,3.1-2.2,4.8c-0.8,0.5-1.3,1.1-1.6,1.8c-0.3,0.7-0.4,1.5-0.4,2.2c0.5,0.3,1.2,0.4,1.9,0.4c0.7,0,1.4,0,2,0
			c0.7,0,1.3,0.1,1.9,0.2c0.6,0.1,1.1,0.4,1.6,0.8c0.8-0.2,1.6-0.4,2.6-0.4c0.9-0.1,1.7-0.3,2.3-0.7c1.2,0.4,2.5,0.6,3.9,0.6
			c0.7,0,1.4-0.1,2.1-0.2c0.7-0.1,1.4-0.2,2-0.4c0.5,0.1,1,0.3,1.3,0.5c0.3,0.2,0.8,0.3,1.4,0.3c0.3-0.2,0.5-0.4,0.5-0.7
			C706.2,519.7,706.4,519.4,706.6,519.2z"/>
		<path class="st9" d="M797.6,483.6c-0.3,0.5-0.5,1-0.5,1.4c0,0.5-0.1,1-0.2,1.4c-0.5,0.1-1.1,0.2-1.6,0.5c-0.5,0.3-1.1,0.5-1.6,0.8
			c-0.5,0.3-1,0.5-1.6,0.8c-0.5,0.2-1.1,0.4-1.6,0.4c-0.5,0-0.9-0.1-1.4-0.4c-0.4-0.3-0.8-0.6-1.1-0.9c-1.1,0.3-2.3,0.5-3.5,0.5
			c-1.3,0-2.5,0.1-3.8,0.1c-1.3,0-2.6,0.1-3.8,0.2c-1.2,0.1-2.4,0.4-3.4,0.9c0.2,0.5,0.3,1,0.4,1.5c0.1,0.5,0.2,1,0.4,1.5
			c0.1,0.5,0.4,0.9,0.6,1.4c0.3,0.4,0.6,0.8,1.1,1.1c0,0.6,0.1,1.1,0.2,1.6c0.1,0.5,0.2,1,0.2,1.5c1,2,2.1,4.1,3.3,6.1
			c1.1,2.1,1.9,4.2,2.3,6.5c0.1,0.6,0.3,0.9,0.7,1.1c0.3,0.1,0.5,0.3,0.6,0.6v2.6c0.7,0.6,1.1,1.3,1.4,2.1c0.3,0.8,0.5,1.6,0.6,2.4
			c0.1,0.8,0.2,1.7,0.3,2.5c0.1,0.9,0.2,1.7,0.4,2.5c-0.4,0.4-0.7,0.9-1,1.4c-0.3,0.5-0.5,1-0.5,1.6c0,0.5,0.1,0.8,0.2,1
			c-0.7-0.1-1.1,0.1-1.4,0.5c-0.2,0.4-0.4,0.8-0.5,1.3c-1,0.6-1.9,1.2-2.9,1.7c-1,0.6-1.9,1.2-2.7,2c-0.7,0.1-1.3,0.2-1.8,0.4
			c-0.5,0.2-1.1,0.5-1.8,0.7c-0.7,0.1-1.4,0.2-2.1,0.2h-2c-2,0-4.1-0.1-6.1-0.3c-2-0.2-4.1-0.4-6.1-0.7c-0.8-0.6-1.8-1-2.9-1.2
			c-1.1-0.2-2.1-0.4-3.2-0.5c-1-0.6-2.2-1.3-3.6-1.9c-1.4-0.6-2.7-0.9-3.9-0.9c-0.4-0.9-0.9-1.4-1.7-1.8c-0.8-0.3-1.6-0.5-2.4-0.6
			c0.1-0.2,0.1-0.4,0.1-0.7c0-0.4-0.1-0.7-0.4-0.8c-0.2-0.2-0.5-0.3-0.8-0.5c-0.3-0.1-0.6-0.3-1-0.4c-0.4-0.1-0.7-0.3-0.9-0.4
			c-0.7-0.4-1.2-0.9-1.7-1.5c-0.5-0.6-1-1.1-1.4-1.7c-0.5-0.6-1-1.1-1.5-1.7c-0.5-0.5-1.1-1-1.8-1.4c-0.2-1.2-0.5-2.4-0.8-3.6
			c-0.3-1.2-0.5-2.4-0.5-3.6c0-0.4,0.2-0.8,0.5-1.2c0.3-0.4,0.6-0.7,1-1c0.4-0.3,0.7-0.7,1.1-1c0.4-0.4,0.6-0.8,0.7-1.2
			c0.9,0.4,2,0.6,3.2,0.6c1.3,0,2.6-0.2,3.9-0.5c1.3-0.3,2.6-0.5,4-0.5c0.4,0,0.8,0,1.2,0.1c0.4,0.1,0.7,0.1,1.1,0.1
			c0.4,0,0.7-0.1,0.8-0.4c0.1-0.2,0.4-0.4,0.9-0.4c0.8,0,1.6,0.3,2.2,0.8c0.6,0.6,1.2,1.1,1.7,1.5c-0.1,0.7-0.3,1.3-0.8,1.6
			c-0.5,0.3-0.9,0.7-1.2,1.3c-1,0.1-1.8,0.2-2.5,0.4c-0.7,0.2-1.4,0.5-2,0.8c-0.7,0.3-1.4,0.5-2.1,0.8c-0.7,0.2-1.6,0.3-2.7,0.3
			c-0.4,0-0.7,0.2-0.9,0.7c-0.2,0.5-0.5,0.8-0.8,1c0.5,0.4,0.9,0.9,1.3,1.4c0.4,0.5,0.8,0.9,1.2,1.4c0.4,0.5,0.9,0.8,1.4,1.2
			c0.5,0.3,1.2,0.6,2,0.7c0.1,0.4,0.3,0.8,0.6,1c0.3,0.2,0.5,0.5,0.7,0.9c1.4,0.4,2.7,0.9,3.8,1.5c1.1,0.6,2.3,1.1,3.4,1.6
			c1.1,0.5,2.3,0.9,3.5,1.3c1.2,0.4,2.6,0.6,4.2,0.8c0.5,0.1,0.7,0.2,0.6,0.4c-0.1,0.2,0.1,0.4,0.4,0.4c0.2,0,0.5,0,0.9,0
			c0.3,0,0.6,0,0.9,0c0.7,0,1.3,0.1,1.9,0.2c0.6,0.1,1.2,0.3,1.9,0.5c0.7-0.2,1.6-0.4,2.8-0.6c1.1-0.2,2.2-0.5,3.3-0.8
			c1.1-0.3,1.9-0.8,2.7-1.4c0.7-0.6,1.1-1.3,1.1-2.3c0-1.6-0.4-3.2-1.2-4.6c-0.8-1.4-1.4-2.9-1.8-4.4c-0.1-0.5-0.2-1.1-0.3-1.8
			c-0.1-0.6-0.2-1.3-0.3-1.9c-0.2-0.6-0.4-1.2-0.6-1.7c-0.3-0.5-0.7-0.9-1.3-1.2c0-0.4-0.1-0.9-0.2-1.4c-0.1-0.5-0.5-0.8-1.2-0.9
			c-0.2-1.2-0.5-2.3-1-3.4c-0.5-1.1-1.1-2.2-1.6-3.2c-0.6-1.1-1.1-2.2-1.6-3.3c-0.5-1.1-0.8-2.3-0.9-3.5c-1.9,0-3.8,0.2-5.6,0.6
			c-1.8,0.4-3.6,0.8-5.4,1.3c-1.8,0.5-3.6,1-5.4,1.5c-1.8,0.5-3.6,0.9-5.4,1.2c-1.1-0.4-2-0.9-2.8-1.5c-0.8-0.6-1.9-1-3.2-1.1
			c0.2-0.7,0.3-1.5,0.5-2.3c0.1-0.9,0.3-1.7,0.6-2.5c0.3-0.8,0.7-1.5,1.3-2.1c0.5-0.6,1.3-1.1,2.2-1.3c1,0.2,2,0.2,3.3,0.2
			c1.8,0,3.6-0.2,5.2-0.6c1.7-0.4,3.4-0.9,5.2-1.4h0.7c1.7,0,3.6-0.2,5.7-0.6c2-0.4,3.9-0.9,5.5-1.5c0.2,0.1,0.3,0.2,0.3,0.4
			c0,0.1,0.1,0.2,0.3,0.3c0.7-0.5,1.5-0.9,2.6-1c1.1-0.1,2.2-0.2,3.4-0.2c1.2,0,2.3-0.1,3.4-0.2c1.1-0.1,2-0.4,2.6-1
			c0.8,0.3,1.7,0.4,2.7,0.5c0.9,0.1,1.9,0.1,2.8,0.1c1.2,0,2.4,0,3.6-0.1c1.2-0.1,2.4-0.1,3.6-0.2c-0.4-0.1-0.5-0.2-0.5-0.4
			c0-0.1,0.1-0.3,0.2-0.5c0.8,0.2,1.5,0.4,2.1,0.8c0.6,0.3,1.3,0.6,2.1,0.7c-0.2,0.3-0.3,0.6-0.3,0.9c0,0.6,0.3,1,0.8,1.3
			C796.7,483,797.2,483.3,797.6,483.6z"/>
		<path class="st9" d="M862.8,532c-0.2,0.7-0.6,1.3-1.1,1.8c-0.6,0.5-1.3,0.8-2,1.1c-0.8,0.3-1.6,0.4-2.4,0.5
			c-0.8,0.1-1.6,0.1-2.2,0.1c-0.3,0-0.6,0-0.9,0c-0.3,0-0.6,0-0.9,0c-0.3,0-0.5,0.1-0.5,0.4c0,0.3-0.2,0.5-0.5,0.6
			c-0.3-0.1-0.6-0.2-0.9-0.2c-0.3-0.1-0.6-0.1-0.9-0.1c-0.4,0-0.8,0-1.2,0.1c-0.4,0.1-0.8,0.1-1.1,0.1c-0.5,0-0.8-0.1-1-0.2
			c-0.2-0.1-0.4-0.2-0.5-0.4c-0.2-0.1-0.3-0.3-0.5-0.4c-0.2-0.2-0.4-0.3-0.7-0.4c-0.4-0.2-0.8-0.2-1-0.1c-0.3,0.1-0.7-0.1-1.2-0.5
			c-0.7-0.5-1.3-1.2-1.9-2c-0.5-0.8-1-1.6-1.5-2.4c-0.5-0.9-1-1.7-1.5-2.6c-0.5-0.9-1.2-1.6-1.9-2.2h-0.7c-1.1,0-1.8,0.4-2.3,1.2
			c-0.3-0.2-0.6-0.4-0.9-0.6c-0.3-0.2-0.6-0.4-1-0.6c-1.4,0.4-2.8,0.7-4.3,1c-1.5,0.3-3,0.4-4.5,0.4h-1.3c-0.4,0-0.8-0.1-1.2-0.2
			c-0.6,0.2-1.1,0.5-1.6,0.8c-0.5,0.3-1,0.4-1.6,0.4c-0.4,0-0.8-0.1-1.3-0.3c-0.4,0-0.5,0.1-0.5,0.4c0,0.3-0.2,0.4-0.6,0.4h-0.8
			c-0.8,0-1.7,0-2.5,0.1c-0.8,0.1-1.6,0.1-2.5,0.1c-1.1,0-2.3-0.1-3.5-0.4c-0.3,0.2-0.6,0.2-1,0.2c-0.2,0.1-0.4,0.3-0.5,0.5
			c-0.1,0.2-0.2,0.5-0.4,0.6c-0.1,0.2-0.3,0.3-0.5,0.5c-0.2,0.1-0.5,0.2-0.9,0.1c-0.1,0.6-0.4,1.1-0.9,1.5c-0.5,0.4-0.7,0.9-0.7,1.7
			c-0.7,0.3-1.2,0.7-1.6,1.2c-0.4,0.5-0.8,1-1.3,1.5c-0.4,0.5-0.9,1-1.3,1.5c-0.5,0.5-1,0.9-1.7,1.1c-0.3,0.3-0.4,0.8-0.3,1.5
			c-0.7,0.5-1.5,0.9-2.4,1.3c-1,0.4-1.9,0.6-2.7,0.6c-1.7,0-3-0.8-3.6-2.5c0-0.5,0-1.1,0.1-1.7s0.2-1.2,0.4-1.8s0.5-1.1,0.8-1.5
			c0.4-0.5,0.9-0.8,1.5-1c0-0.5-0.2-0.8-0.5-1c-0.4-0.2-0.5-0.5-0.5-1c1.6-0.7,3-1.6,4.2-2.7c1.2-1.1,2.3-2.3,3.3-3.6
			c1-1.3,2-2.5,3-3.8c1-1.3,2.2-2.4,3.4-3.4V516c1.8-1.7,3-3.6,3.5-5.8c0.7-0.1,1.1-0.4,1.3-0.8c0.2-0.4,0.3-0.9,0.3-1.5
			c0.3,0,0.5-0.1,0.6-0.4s0.3-0.3,0.8-0.2c0.5-1.3,1.1-2.4,1.8-3.5c0.7-1.1,1.3-2.1,2-3.2c0.7-1.1,1.3-2.2,1.8-3.4
			c0.5-1.2,0.9-2.5,1.1-3.9c0.8-0.1,1.3-0.4,1.4-1.1c0.1-0.7,0.2-1.3,0.3-1.8c0.9-0.7,1.6-1.6,2-2.6c0.5-1,0.9-2.1,1.2-3.2
			c0.4-1.1,0.8-2.2,1.2-3.3c0.5-1.1,1.1-2.1,1.9-2.9v-0.2c0-0.3-0.1-0.4-0.4-0.5c-0.2-0.1-0.4-0.3-0.4-0.5c0.1-0.1,0.1-0.1,0.1-0.2
			c0.7-0.3,1.3-0.7,1.6-1.3c0.4-0.6,0.9-1.1,1.6-1.3c1.3,0.9,2.4,1.5,3.3,1.6c1,0.2,2.2,0.3,3.8,0.4c0.8,0.7,1.2,1.6,1.3,2.7
			c0.1,1,0.3,2.1,0.6,3.1c0.5,1.7,1,3.4,1.6,5c0.6,1.6,1,3.3,1.3,5c0.2,1,0.5,2,1,2.9c0.5,0.9,0.8,1.8,1,2.8c0.1,0.7,0.1,1.6,0,2.5
			c-0.1,0.9,0,1.7,0.4,2.4l0.6,1.3c0.3,0.6,0.6,1.2,0.8,1.8c0.2,0.6,0.4,1.3,0.6,1.9c0.5,1.6,0.9,3.3,1.3,5.2c0.4,1.8,1,3.5,1.9,5
			c0.3,0.5,0.8,0.9,1.4,1.1c0.6,0.2,1.3,0.4,2.1,0.4c0.8,0.1,1.6,0.1,2.3,0.1c0.8,0,1.4,0,1.9,0h0.9c0.4,0,0.7,0.1,1.1,0.2
			c0.2,0.4,0.4,0.8,0.4,1.1c0,0.6-0.2,1.1-0.7,1.5c-0.5,0.4-0.7,0.8-0.7,1.3c0,0.3,0.1,0.6,0.4,0.9c-0.2-0.1-0.6-0.1-1.1-0.1
			c-1.4,0-2.7,0.2-4.1,0.6c0.5,0.9,1.1,1.7,1.9,2.3c0.8,0.6,1.7,1.2,2.6,1.7c0.6-0.4,1.2-0.6,1.9-0.6c0.7,0,1.4,0.1,2,0.4
			c0.6,0.3,1.3,0.4,2,0.4c0.5,0,0.9-0.1,1.2-0.2c0.5,0.5,0.9,1,1.2,1.5C861.9,531.1,862.3,531.6,862.8,532z M834.5,519.2
			c-0.1-0.9-0.3-1.6-0.6-2c-0.3-0.4-0.5-0.9-0.7-1.5c-0.2-0.7-0.4-1.5-0.5-2.4c-0.1-0.9-0.2-1.7-0.4-2.5c-0.4-1.8-0.9-3.6-1.4-5.4
			c-0.5-1.8-1.2-3.6-1.9-5.3c0.2-0.3,0.4-0.6,0.4-0.9v-0.2c-0.5-0.5-0.9-1.2-1.2-2c-0.2-0.8-0.5-1.5-0.7-2.3
			c-0.2-0.8-0.5-1.5-0.8-2.2c-0.3-0.7-0.9-1.2-1.6-1.6c-0.2,0.3-0.3,0.7-0.3,1.1c0,0.4,0,0.7,0.1,1c0.1,0.3,0.1,0.7,0.1,1
			c-0.6,0.3-1,0.7-1.3,1.2c-0.3,0.6-0.7,1-1.3,1.3c-0.5,1.7-1.2,3.3-2.1,4.8c-0.9,1.5-1.9,3-2.8,4.5c-1,1.5-1.9,3-2.8,4.5
			c-0.9,1.5-1.6,3.1-2.2,4.8c-0.8,0.5-1.3,1.1-1.6,1.8c-0.3,0.7-0.4,1.5-0.4,2.2c0.5,0.3,1.2,0.4,1.9,0.4c0.7,0,1.4,0,2,0
			c0.7,0,1.3,0.1,1.9,0.2c0.6,0.1,1.1,0.4,1.6,0.8c0.8-0.2,1.6-0.4,2.6-0.4c0.9-0.1,1.7-0.3,2.3-0.7c1.2,0.4,2.5,0.6,3.9,0.6
			c0.7,0,1.4-0.1,2.1-0.2c0.7-0.1,1.4-0.2,2-0.4c0.5,0.1,1,0.3,1.3,0.5c0.3,0.2,0.8,0.3,1.4,0.3c0.3-0.2,0.5-0.4,0.5-0.7
			C834.1,519.7,834.3,519.4,834.5,519.2z"/>
		<path class="st9" d="M987,461.7c-0.5,0.3-1,0.4-1.5,0.5c-0.5,0.1-1.1,0.1-1.7,0.2c-0.6,0.1-1.1,0.2-1.6,0.4
			c-0.5,0.2-0.8,0.5-1.1,0.9c-0.6-0.5-1.3-1-2-1.4c-0.7-0.4-1.4-0.8-2.2-1.2c-0.6,0.2-1.2,0.4-1.8,0.6c-0.6,0.3-1.2,0.4-1.8,0.4
			c-0.4,0-0.8-0.1-1.3-0.4c-0.5,0.3-1,0.6-1.7,0.8c-0.6,0.2-1.3,0.4-2,0.5c-0.7,0.2-1.3,0.4-1.9,0.6c-0.6,0.3-1,0.7-1.2,1.2
			c-0.1-0.3-0.4-0.3-0.9-0.2c-0.5,0.1-0.7,0-0.8-0.4c-1.9,0.6-3.9,1.1-5.9,1.5c-2,0.4-4,0.9-6,1.4c-2,0.5-3.9,1-5.9,1.6
			c-1.9,0.6-3.8,1.3-5.6,2.2c-0.1,0.1-0.1,0.1-0.1,0.2c0,0.5,0.1,1,0.3,1.5c0.2,0.5,0.3,0.9,0.5,1.4c-1.1,3.2-1.8,6.5-2.2,9.9
			c-0.4,3.4-0.8,6.7-1.4,9.9v0.3c0,0.3,0.1,0.5,0.4,0.6c0.2,0.1,0.4,0.4,0.4,0.7l-0.1,0.2c-0.3,0.2-0.5,0.4-0.6,0.7
			c-0.1,0.3-0.2,0.6-0.2,0.9c0,0.2,0.1,0.5,0.2,1c-1,3-1.7,6.1-2,9.3c-0.3,3.1-0.7,6.3-1.2,9.4l-0.8,5.3c-0.1,0.3-0.2,0.6-0.3,0.9
			c-0.1,0.3-0.1,0.6-0.1,0.9c0,1.7,0.1,3.4,0.4,5c0.3,1.6,0.3,3.3,0.2,5c0.5,0.7,0.8,1.5,0.8,2.2c0,0.3,0,0.5,0,0.8
			c0,0.3-0.1,0.5-0.1,0.8c0.8,0.7,1.7,1.2,2.8,1.5c1.1,0.3,2,0.8,2.8,1.4v0.3c0,0.5-0.1,1.1-0.3,1.6s-0.3,1-0.5,1.6
			c-0.1,0.4-0.3,1-0.4,1.8c-0.2,0.8-0.3,1.3-0.6,1.6c-0.3,0.4-0.7,0.7-1.3,1c-0.6,0.3-1.1,0.4-1.7,0.4c-0.2,0-0.4-0.1-0.8-0.2
			c-0.3-0.2-0.6-0.3-0.8-0.4c-0.3,0-0.7,0.1-1.2,0.4c-0.5,0.3-1,0.4-1.4,0.4c-0.2,0-0.5,0-0.6,0c-0.2,0-0.4-0.1-0.6-0.2
			c-0.2-0.5-0.6-1-1-1.4s-1-0.8-1.6-1.2c0.1-0.7-0.1-1.3-0.5-1.7c-0.4-0.4-0.7-0.9-1.1-1.4c-0.1-0.7-0.2-1.6-0.3-2.6
			c-0.1-1-0.6-1.7-1.4-2.1c0.3-0.4,0.5-0.9,0.5-1.5c0-0.3,0-0.6-0.1-0.9c-0.1-0.3-0.3-0.6-0.6-0.7v-0.2c-0.1-0.3,0-0.5,0.3-0.6
			c0.3-0.1,0.4-0.3,0.4-0.6v-0.3c-0.4-1.7-0.6-3.5-0.6-5.4c0-1.8,0.1-3.5,0.2-5.2c0.1-1.7,0.1-3.5,0-5.2c0.4-0.3,0.6-0.7,0.9-1.3
			c0.2-0.6,0.4-1.2,0.5-1.9c0.1-0.7,0.2-1.4,0.2-2c0-0.7,0.1-1.2,0.1-1.6c0.3-3,0.8-6,1.4-9c0.7-3,1.1-6,1.2-9.1
			c0.3-0.4,0.5-1,0.5-1.7c0.1-0.7,0.1-1.4,0.1-2.2c0-0.8,0.1-1.5,0.2-2.3c0.1-0.7,0.4-1.4,0.7-1.9c0-1.5,0.1-3,0.5-4.5
			c0.3-1.5,0.5-3,0.5-4.6c0-0.7-0.1-1.5-0.3-2.3c-0.6-0.2-1.1-0.3-1.6-0.3c-0.7,0-1.3,0.1-2,0.4c-0.7,0.2-1.2,0.6-1.5,1.1
			c-1.3,0.1-2.6,0.2-3.9,0.6c-1.3,0.3-2.5,0.5-3.8,0.5h-0.9c-0.2,0-0.5,0-0.8-0.1c-0.4,0.2-0.9,0.3-1.3,0.4c-0.5,0.1-0.6,0.4-0.6,1
			c-1.9,0.2-3.7,0.5-5.5,1c-1.8,0.5-3.5,1.1-5.3,1.7c-1.7,0.6-3.5,1.2-5.3,1.7c-1.8,0.5-3.6,0.9-5.5,1c-0.7,0.3-1.1,0.8-1.3,1.7
			c-1.3-0.1-2.4-0.4-3.3-0.9c-0.9-0.5-2-0.9-3.2-1.4c-0.4-1.1-0.5-2.2-0.5-3.2c0-1.3,0.3-2.6,0.9-3.8c0.6-1.2,1.6-2.1,2.9-2.7
			c0.3,0.1,0.6,0.1,0.8,0.1c0.2,0,0.5,0,0.8,0c1,0,1.9-0.2,2.9-0.5c1-0.3,2-0.5,3-0.5c0.3,0,0.6,0.1,1,0.2c0.4-0.2,0.9-0.4,1.6-0.5
			c0.6-0.1,1.2-0.3,1.8-0.4c0.6-0.1,1.1-0.3,1.6-0.6c0.5-0.3,0.8-0.6,0.9-1.1c0.3,0.2,0.6,0.3,1,0.4c0.4,0.1,0.7,0.1,1.1,0.1
			c0.8,0,1.6-0.1,2.4-0.4c0.8-0.3,1.5-0.7,2-1.3c0.4,0.4,1,0.6,1.8,0.6c0.8,0,1.7-0.2,2.5-0.6c0.8-0.4,1.6-0.6,2.4-0.6
			c0.6,0,1.1,0.2,1.4,0.6c0.7-0.5,1.4-0.9,2.3-1.1c0.9-0.3,1.8-0.5,2.8-0.7c0.9-0.2,1.8-0.5,2.6-0.7c0.8-0.3,1.5-0.6,1.9-1.1
			c0.3,0.1,0.8,0.1,1.4,0.1c1,0,2-0.1,2.9-0.4c0.9-0.2,1.9-0.5,2.8-0.7l1.9-0.2c0.5-0.1,0.9-0.2,1.3-0.4c0.4-0.2,0.8-0.4,1.2-0.6
			c0.4-0.2,0.9-0.3,1.3-0.4c0.5-0.1,1-0.1,1.7-0.1c1.4-0.7,3-1.2,4.6-1.6c1.6-0.4,3.3-0.7,5-1c1.7-0.3,3.3-0.6,5-1s3.2-1,4.6-1.8
			h0.3c1.2,0,2.4-0.2,3.6-0.6c1.2-0.4,2.3-0.9,3.3-1.5c0.2,0.1,0.4,0.1,0.5,0.1h0.6c1.7,0,3.3-0.2,4.9-0.6c1.6-0.4,3.3-0.6,5-0.6
			c1,0,1.8,0.1,2.4,0.4c0.6,0.2,1.1,0.5,1.6,0.9c0.5,0.3,1,0.7,1.5,1s1.2,0.6,2.1,0.7c0.5,0.9,0.8,1.9,0.8,2.9S987,460.6,987,461.7z
			"/>
		<path class="st9" d="M979,526.9c-0.3,0.4-0.7,0.8-1.1,1.2c-0.4,0.3-0.8,0.7-1.2,1.1c-0.4,0.2-0.9,0.2-1.4,0.2c-0.5,0-1,0-1.4,0
			c-0.5,0-0.9,0-1.3,0c-0.4,0-0.7,0.1-0.9,0.4c-0.5-0.1-0.8-0.3-1.1-0.6c-0.2-0.3-0.7-0.5-1.3-0.5c-0.2-0.1-0.5-0.1-0.7,0
			c-0.9-0.9-1.7-1.9-2.5-2.9c-0.8-1-1.5-2-2.1-2.9c-0.1-2-0.2-4-0.5-6c-0.1-0.5-0.2-1-0.3-1.4c-0.1-0.5-0.2-0.9-0.3-1.4
			c0-0.5,0-1.1,0.1-1.6c0.1-0.5,0.2-1,0.2-1.4c0.2-1.5,0.5-3.1,0.8-4.6c0.3-1.5,0.6-3,0.8-4.6c0.2-1.4,0.4-2.8,0.4-4.4
			c0-1.5-0.3-2.9-0.8-4.3l-0.1-0.4c0.1-0.4,0.3-0.8,0.4-1.1c0.1-0.3,0.3-0.6,0.3-1c0.1-0.6,0-1-0.5-1.3c0.2-0.4,0.5-0.7,0.9-0.8
			c0.4-0.1,0.7-0.4,0.7-0.9c0.1-0.2,0.1-0.4,0-0.6c0.5-0.2,1-0.3,1.5-0.4c0.5-0.1,1-0.1,1.5,0c0.8,0.1,1.5,0.3,2.1,0.7
			c0.6,0.3,1.2,0.7,1.7,1.2c1,2.6,1.4,5.3,1.2,8.1c-0.2,2.8-0.5,5.7-0.9,8.6c-0.4,2.9-0.7,5.7-0.8,8.4c-0.1,2.7,0.4,5.3,1.4,7.6
			l0.2,0.1c0.3,0.1,0.5,0,0.7-0.3s0.4-0.3,0.7-0.3c0.2,0.1,0.4,0.2,0.5,0.2c0.2,1.1,0.6,2.1,1.2,3C977.7,525,978.3,525.9,979,526.9z
			"/>
		<path class="st9" d="M1047.1,485.4c-0.1,0.6-0.3,1.2-0.5,1.6c-0.2,0.5-0.3,1.1-0.1,1.8c-0.6,0.1-1.1,0.2-1.4,0.5
			c-0.3,0.3-0.6,0.6-0.8,1c-0.2,0.4-0.4,0.8-0.6,1.2c-0.2,0.4-0.5,0.8-0.8,1.1c0.5,1.9,0.8,3.9,0.8,5.8c0.1,2,0.2,3.9,0.5,5.8
			c0.3,2.4,0.8,4.9,1.4,7.2c0.6,2.4,0.9,4.8,0.9,7.2c0,0.7,0,1.4,0,2.1c0,0.6,0,1.3,0,2c0,0.4,0,0.9,0,1.3c0,0.5,0,0.9,0,1.3
			c0,1.5-0.2,3.1-0.7,4.6c-0.5,1.5-0.8,3.1-1,4.6c-0.7,0.6-1.3,1.2-1.9,1.9c-0.5,0.7-1,1.3-1.6,1.9c-0.5,0.6-1.2,1.1-1.9,1.6
			c-0.7,0.5-1.6,0.8-2.7,0.9c-0.2,0.5-0.5,0.9-1,1.2c-0.5,0.3-0.9,0.6-1.3,1.1h-0.2c-1.5,0-2.8-0.2-3.9-0.6c-1.1-0.4-2.1-0.8-3-1.3
			c-0.9-0.5-1.9-1-2.8-1.5c-1-0.5-2.1-1-3.3-1.3c-1.7-1.2-3.2-2.6-4.6-4c-1.4-1.5-3-2.8-4.7-4c-0.4-1.1-1-1.9-1.7-2.6
			c-0.7-0.7-1.4-1.5-2-2.4c-0.3-0.4-0.5-0.7-0.7-1c-0.2-0.3-0.3-0.7-0.6-1.1c-0.2-0.4-0.5-0.7-0.9-0.9c-0.4-0.2-0.7-0.3-1-0.6
			c-0.5-1.6-1.2-3.2-2.1-4.6c-0.9-1.4-2-2.7-3.2-4c-0.4,0.6-0.6,1.2-0.9,1.9c-0.2,0.7-0.4,1.3-0.6,2c-0.2,0.7-0.4,1.3-0.7,2
			c-0.3,0.7-0.6,1.3-1,1.8v0.2c0,0.3,0.1,0.4,0.4,0.5c0.2,0.1,0.4,0.2,0.4,0.5c0,0.1,0,0.1,0,0.2c0,0.1,0,0.1,0,0.2
			c-0.3,0.2-0.5,0.5-0.7,0.8c-0.2,0.3-0.5,0.5-0.9,0.6c0.1,0.3,0.1,0.5,0.1,0.8v0.7c0,1.5-0.2,3.1-0.6,4.6c-0.4,1.5-0.6,3.1-0.6,4.7
			v1c0,0.4,0,0.7,0.1,1c0.1,0.3,0.3,0.6,0.5,1c0.2,0.3,0.4,0.6,0.4,0.9c0,0.4-0.2,0.7-0.5,1c0.4,0.3,0.9,0.6,1.4,0.9s1,0.7,1.5,1.1
			c0.5,0.4,0.8,0.8,1.1,1.3c0.3,0.5,0.5,0.9,0.5,1.5c0,0.9-0.3,1.5-1,1.9c-0.7,0.4-1.5,0.7-2.4,0.9c-0.9,0.2-1.9,0.4-2.9,0.6
			c-1,0.2-1.8,0.5-2.5,1h-0.3c-0.7,0-1.3-0.2-1.6-0.6c-0.4-0.4-0.9-0.6-1.6-0.6c-1.1-1.7-1.9-3.5-2.3-5.5c-0.4-2.1-0.6-4-0.6-5.9
			c0-2.3,0.2-4.6,0.7-6.9c0.5-2.3,1-4.6,1.6-6.8c0.6-2.2,1.3-4.5,2.1-6.7c0.8-2.2,1.5-4.4,2.1-6.7l0.1-0.2c0-0.3-0.1-0.5-0.2-0.6
			c-0.2-0.1-0.2-0.3-0.2-0.5c0-0.1,0-0.2,0.1-0.2c0.2-0.5,0.4-1,0.6-1.5c0.2-0.5,0.4-1,0.5-1.6c0.4-1.5,0.6-3,0.8-4.6
			c0.2-1.6,0.2-3.1,0.3-4.7c0-1.5,0.1-3.1,0.2-4.7c0.1-1.6,0.3-3.1,0.6-4.7c0.5-0.4,0.9-0.9,1.4-1.4c0.4-0.5,1-0.9,1.6-1.3
			c1.2,0.1,2.4,0.2,3.6,0.5c1.2,0.3,2.3,0.7,3.4,1.3c0.7,2.3,1.2,4.6,1.5,6.9c0.3,2.3,0.7,4.6,1.4,6.9v0.2c0,0.3,0.2,0.4,0.5,0.4
			c0.3,0,0.6,0.1,0.8,0.3c-0.1,0.2-0.2,0.3-0.2,0.6c0,0.2,0,0.4,0,0.6v1.4c0.1,0.4,0.3,0.9,0.5,1.4c0.2,0.5,0.6,0.8,1.2,0.9
			c0.3,1.7,0.8,3.3,1.4,4.7c0.6,1.4,1.3,2.8,2.1,4.2c0.8,1.3,1.6,2.6,2.5,4c0.9,1.3,1.8,2.7,2.8,4.1c1.5,1,2.8,2.2,3.9,3.5
			c1.1,1.3,2.2,2.6,3.3,3.8c1.1,1.2,2.4,2.2,3.8,3.2c1.4,0.9,3.3,1.5,5.6,1.7c0.3-0.2,0.5-0.5,0.6-0.9l0.5-1.1
			c0.2-0.4,0.4-0.7,0.6-1c0.2-0.3,0.5-0.5,0.9-0.7c0.1-1.5,0.3-3,0.4-4.6c0.1-1.5,0.5-3,1.1-4.4c-0.3-0.5-0.5-1.1-0.5-1.8
			c0-0.5,0-1,0.1-1.5c0.1-0.5,0.1-1,0.1-1.4c0-1-0.2-1.8-0.7-2.5c0-0.4,0-0.8,0.1-1.2c0.1-0.4,0.2-0.8,0.5-1.2
			c-0.5-1.1-0.9-2.2-1.1-3.4c-0.3-1.2-0.4-2.4-0.4-3.6c0-0.7,0.1-1.4,0.3-2.2c-0.4-0.8-0.6-1.7-0.7-2.8l-0.4-3.3
			c-0.1-1.1-0.3-2.2-0.5-3.1c-0.2-1-0.7-1.7-1.4-2.3c0.4-0.5,0.5-1,0.5-1.7c0-1.1-0.2-2.1-0.5-3c-0.4-1-0.5-2-0.5-3
			c0-0.7,0.2-1.5,0.5-2.2c1.3,0.1,2.6,0.2,3.9,0.4c1.3,0.2,2.6,0.3,3.8,0.3c0.4,0.4,0.8,0.8,1.3,1c0.5,0.3,1,0.5,1.5,0.8
			c0.5,0.2,1.1,0.5,1.6,0.8C1046.3,484.5,1046.8,484.9,1047.1,485.4z"/>
		<path class="st9" d="M1150.3,493.7c-0.2,0.5-0.5,0.8-1,1c-0.5,0.2-1,0.3-1.6,0.4c-0.5,0.1-1,0.3-1.5,0.5c-0.5,0.2-0.7,0.6-0.9,1.2
			l-0.2,0.1c-0.2,0-0.4-0.1-0.5-0.2c-0.1-0.1-0.2-0.3-0.2-0.4c-0.1-0.1-0.1-0.3-0.2-0.4c-0.1-0.1-0.2-0.2-0.4-0.2
			c-0.7,0-1.3,0.1-1.9,0.2c-0.6,0.1-1.3,0.2-1.9,0.2c-0.9,0-1.7-0.1-2.4-0.3c-0.4,0.1-0.6,0.3-0.7,0.7c0,0.4-0.2,0.6-0.6,0.7
			c-0.3,0.1-0.7,0.1-1.1,0.1c-0.4,0-0.8,0-1.3,0.1l-2.9,0.6c-1,0.2-1.9,0.3-2.9,0.3c-0.5,0-0.9,0-1.2-0.1c-0.9,0.6-1.9,1.1-3.1,1.4
			c-1.1,0.3-2.3,0.6-3.6,0.8c-1.2,0.2-2.4,0.5-3.6,0.9c-1.2,0.4-2.2,1-3.1,1.8c-0.5-0.1-0.9-0.2-1.3-0.2c-0.8,0-1.5,0.1-2.1,0.4
			c-0.6,0.3-1.2,0.6-1.9,0.8c-0.3,0.1-0.6,0.2-0.9,0.2c-0.3,0-0.6,0.1-1,0.2c-0.4,0.1-0.6,0.3-0.7,0.5c-0.1,0.2-0.3,0.5-0.6,0.7
			c0,1.9,0.2,3.8,0.6,5.7c0.4,1.9,0.6,3.8,0.6,5.7v0.3c0.1,0.9,0.5,1.7,1,2.5c0.5,0.8,0.8,1.6,0.8,2.4c0,0.3-0.1,0.6-0.2,0.9
			c1.6,0.3,2.6,1,3.1,2.1c0.5,1.1,0.9,2.3,1.3,3.5c0.3,1.3,0.8,2.4,1.4,3.5c0.6,1.1,1.7,1.7,3.4,2c0.1,0.5,0.2,1.1,0.3,1.6
			c0.1,0.6,0.1,1.1,0.1,1.6c0,0.7-0.1,1.5-0.3,2.2c-0.2,0.7-0.5,1.4-1.1,2c-0.9,0.1-1.6,0.1-2,0.1c-0.4,0-1.1,0.2-1.9,0.5
			c-1.2-0.6-2.3-1.4-3.2-2.2c-0.9-0.8-1.8-1.7-2.6-2.6s-1.6-1.9-2.4-2.9c-0.8-1-1.6-1.9-2.5-2.8c-3.1,0.7-6.3,1.2-9.6,1.4
			c-3.3,0.2-6.6,0.4-9.8,0.4c-0.1,0.1-0.3,0.2-0.5,0.2c-0.2,0-0.5,0-0.7,0c-0.2,0-0.4,0.1-0.5,0.2c-0.2,0.1-0.2,0.2-0.1,0.4
			c-0.4-0.2-0.9-0.4-1.4-0.4c-0.5-0.1-1-0.1-1.4-0.1c-0.3,0-0.6,0-0.9,0c-0.3,0-0.6,0.1-0.9,0.3c-2.3-0.4-4.5-0.9-6.6-1.6
			c-2.1-0.7-4.3-1.2-6.6-1.6c0-0.4-0.1-0.7-0.4-0.9c-0.2-0.2-0.5-0.5-0.6-0.8c-2.5-1.4-4.7-3.1-6.4-5c-1.7-2-2.4-4.4-2.1-7.2
			l-0.6-1.1c0-0.9,0.2-1.5,0.6-1.8c-0.2-0.4-0.7-0.7-1.3-1.1c0.5-0.7,1-1.5,1.4-2.3c0.4-0.8,0.7-1.6,0.9-2.6
			c0.1-0.3,0.1-0.5,0.1-0.7c0-0.2,0.1-0.5,0.2-0.7c0.1-0.3,0.3-0.7,0.5-1.1c0.2-0.4,0.4-0.8,0.6-1.1c1-1.8,2-3.6,3.2-5.2
			s2.7-3.1,4.5-4.4c0.1-0.9,0.4-1.7,0.9-2.3c0.5-0.6,1-1.2,1.6-1.7c0.6-0.5,1.1-1,1.7-1.6c0.6-0.5,1-1.2,1.3-1.9
			c1.2-0.9,2.4-1.8,3.7-2.6c1.2-0.9,2.3-1.9,3.1-3c1.1-0.3,2.1-0.7,3.1-1.2c1-0.5,1.8-1.2,2.4-2c1.4-0.1,2.9-0.3,4.3-0.7
			c1.4-0.4,2.9-0.6,4.5-0.6c0.7,0,1.5,0.1,2.4,0.4c0.9,0.2,1.6,0.7,2.1,1.2c0.1,0.1,0.1,0.2,0.1,0.4l0.1,0.4
			c0.1,0.1,0.1,0.2,0.2,0.3c0.1,0.1,0.3,0.1,0.5,0c0,1.2-0.2,2.4-0.5,3.6c-0.3,1.2-1.1,2.1-2.3,2.8c-0.8-0.2-1.6-0.3-2.5-0.3
			c-1.2,0-2.3,0.2-3.3,0.6c-1,0.4-2,0.9-2.9,1.4c-0.9,0.5-1.9,1-2.8,1.5c-1,0.5-2,0.9-3.1,1.1c-0.1,0.4-0.2,0.8-0.3,1.2
			c-0.1,0.3-0.1,0.7,0,1.2c-0.3,0-0.5,0-0.7-0.1c-0.2-0.1-0.4-0.1-0.7-0.1c-0.4,0-0.7,0.2-0.9,0.6c-0.2,0.4-0.3,0.8-0.4,1
			c-1.1,0.4-2.1,1-2.8,1.8c-0.8,0.8-1.4,1.6-2.1,2.5s-1.3,1.7-2,2.5c-0.7,0.8-1.6,1.4-2.7,1.8c-0.5,1.7-0.9,3.4-1.4,5
			c-0.5,1.7-1,3.3-1.6,5c0.2,0.6,0.3,1.3,0.3,2c0,0.9-0.1,1.6-0.3,2.3c0.3,0.4,0.6,0.9,0.9,1.5l1.1,1.8c0.4,0.6,0.7,1.2,1.1,1.8
			c0.4,0.5,0.8,0.9,1.1,1.2c0.7,0.4,1.7,0.8,3.1,1.2c1.4,0.3,2.6,0.9,3.7,1.7c0.1,0,0.3,0,0.5,0c0.2,0,0.3,0,0.5,0
			c0.7,0,1.5,0.2,2.3,0.5c0.8,0.3,1.4,0.5,1.6,0.5c3.4,0,7-0.2,11-0.6c4-0.4,7.7-0.9,11-1.5c0.1-0.5,0.2-1,0.2-1.4
			c0-0.7-0.1-1.4-0.4-2c-0.2-0.7-0.6-1.2-1.2-1.7c0-0.8,0-1.6,0-2.4c0-0.8,0-1.6,0-2.4c0-1.3-0.1-2.7-0.2-4.2
			c-0.1-1.5-0.4-2.9-0.9-4.2h-0.2c-0.8,0-1.5,0.2-2.1,0.5c-0.6,0.3-1.3,0.5-1.9,0.5c-0.4,0-0.7-0.1-0.9-0.2
			c-0.7,0.7-1.6,1.3-2.6,1.7c-1,0.4-2.1,0.7-3.3,1c-1.1,0.3-2.3,0.6-3.4,0.9c-1.1,0.3-2.1,0.8-3,1.4c-0.5-0.2-0.9-0.2-1.4-0.2
			c-0.4,0-0.8,0-1.2,0.1c-0.4,0.1-0.8,0.1-1.3,0.2c-1.3-1-1.9-2.2-1.9-3.6c0-0.7,0.1-1.5,0.4-2.2s0.6-1.4,1.1-2
			c0.3-0.2,0.7-0.3,1.1-0.3c0.4,0,0.8-0.1,1.3-0.2c0.4-0.1,0.8-0.2,1-0.4s0.4-0.5,0.5-0.9c0.2,0.2,0.3,0.2,0.5,0.2
			c0.1,0,0.2,0,0.4-0.1c0.1-0.1,0.2-0.1,0.4-0.1c0.1,0,0.2,0.1,0.3,0.2c0.1,0.1,0.1,0.2,0.1,0.3c2.6-1.2,5.2-2.3,8-3.1
			c2.7-0.9,5.5-1.6,8.3-2.3c2.8-0.7,5.6-1.3,8.4-2c2.8-0.6,5.6-1.3,8.4-2c0.4-0.3,0.9-0.6,1.4-0.7c0.5-0.2,0.9-0.4,1.3-0.7
			c0.4,0.2,0.9,0.3,1.5,0.3c0.8,0,1.8-0.1,2.8-0.4c1-0.3,1.8-0.7,2.5-1.1c0.2,0.1,0.5,0.1,0.6,0.1h0.6c1.2,0,2.3-0.2,3.4-0.5
			c1.1-0.3,2.1-0.7,3.1-1.3h0.5c1.9,0,3.7-0.2,5.6-0.6c1.8-0.4,3.7-0.6,5.6-0.6c2.5,0,4.6,0.6,6.5,1.7v1c0,0.4,0,0.8,0,1.2
			C1150,492.9,1150.1,493.3,1150.3,493.7z"/>
		<path class="st9" d="M1195.6,533.7c0,0.4-0.2,0.8-0.6,1c-0.4,0.3-0.9,0.5-1.4,0.8l-1.6,0.7c-0.5,0.2-0.9,0.5-1.1,0.9
			c-0.7-0.2-1.3-0.3-1.9-0.3c-0.6-0.1-1.3-0.1-1.9-0.1c-0.8,0-1.6,0.1-2.4,0.2c-0.8,0.1-1.5,0.5-2,1.1c-0.3-0.1-0.6-0.2-0.8-0.2
			h-0.7c-0.9,0-1.8,0.1-2.8,0.2c-0.9,0.1-1.9,0.2-2.8,0.2c-0.5,0-0.9,0-1.4-0.1c-0.5-0.1-0.9-0.2-1.2-0.5c-0.5,0.2-1.1,0.2-1.7,0.2
			c-0.8,0-1.5-0.1-2.3-0.3c-0.7-0.2-1.4-0.5-2.1-0.8c-0.7-0.3-1.4-0.6-2.1-0.8c-0.7-0.3-1.4-0.5-2.2-0.6l-0.6-1.1
			c-1-0.2-1.9-0.4-2.7-0.8c-0.8-0.3-1.6-0.7-2.4-1.2c-0.8-0.4-1.6-0.8-2.3-1.2c-0.8-0.4-1.5-0.7-2.3-0.8c-0.3-0.2-0.6-0.4-0.8-0.6
			c-0.2-0.2-0.4-0.5-0.5-0.8c-0.8-0.2-1.5-0.4-2.2-0.6l-1.9-0.9c-0.6-0.3-1.3-0.6-2-0.8c-0.8-0.2-1.6-0.4-2.7-0.4
			c-0.4-0.5-0.9-0.9-1.5-1.4c-0.7-0.4-1.3-0.6-2-0.6c-0.4,0-0.8,0.1-1,0.2v0.4c0,0.6,0.2,1.3,0.6,1.9c0.4,0.6,1,1.1,1.6,1.4
			c-0.1,0.1-0.1,0.3-0.1,0.5c0,0.3,0.1,0.6,0.2,1c0.1,0.3,0.4,0.5,0.9,0.6c-0.2,0.6-0.5,1.2-0.9,1.8c-0.4,0.6-0.8,1.2-1.4,1.7
			c-0.5,0.5-1.1,1-1.8,1.3c-0.6,0.3-1.3,0.5-2.1,0.5c-0.2,0.1-0.4,0.3-0.5,0.5c-0.1,0.2-0.2,0.4-0.2,0.7c0,0.2-0.1,0.5-0.2,0.7
			c-0.1,0.2-0.2,0.4-0.4,0.5c-0.2,0.1-0.6,0.1-1,0.1c-0.6,0-1.1-0.1-1.5-0.2c-0.4-0.2-0.9-0.4-1.4-0.6v-0.3c0-0.6-0.1-1.1-0.4-1.5
			c-0.3-0.4-0.6-0.7-0.9-1.1c-0.3-0.3-0.6-0.7-0.9-1.1c-0.3-0.4-0.4-0.9-0.4-1.5c-0.2,0.1-0.4,0.2-0.6,0.2c-0.2,0.1-0.3,0.2-0.4,0.3
			c-0.1-0.5-0.2-1-0.2-1.4c0-1.1,0.2-2.1,0.6-3c0.4-1,0.6-2,0.6-3v-1.2c0-1.2,0-2.4-0.1-3.6c-0.1-1.2-0.1-2.3-0.1-3.5c0-1,0-2,0.1-3
			c0.1-1,0.2-2,0.4-3c0.7-3.5,1.2-7,1.7-10.5c0.5-3.5,1.2-7,2.2-10.4c-0.1-0.3-0.1-0.5-0.2-0.8c-0.1-0.3-0.1-0.5-0.1-0.8
			c0-0.2,0-0.3,0.1-0.4c0.2-1.1,0.8-2,1.6-2.7c0.8-0.7,1.9-1.1,3.3-1.1h0.3c0.7,0.3,1.3,0.7,1.7,1.2c0.4,0.5,1,0.7,1.9,0.6
			c0,0.1,0,0.2,0,0.3c0,0.1,0,0.2,0,0.3c0,0.6,0.2,1,0.5,1.3c0.4,0.3,0.8,0.6,1.3,0.9c-0.3,0.5-0.5,1.1-0.6,1.8
			c-0.1,0.7-0.2,1.4-0.2,2.1c-0.1,0.7-0.2,1.4-0.3,2c-0.2,0.6-0.4,1.2-0.9,1.6c0.2,0.5,0.4,1.1,0.5,1.6c0.1,0.5,0.1,1.1,0.1,1.7
			c0,0.6,0,1.2-0.1,1.8c-0.1,0.6-0.1,1.2-0.1,1.9c0,0.6,0.1,1.1,0.3,1.6c1.3,0,2.1-0.6,2.3-1.7c1.6-0.4,3-0.9,4.2-1.6
			c1.2-0.7,2.4-1.4,3.6-2.1c1.1-0.7,2.3-1.5,3.4-2.3c1.1-0.8,2.4-1.5,3.8-2.1v-0.2c0-0.3,0.1-0.4,0.3-0.5c0.2-0.1,0.2-0.3,0.1-0.7
			c0.9-0.3,1.7-0.6,2.3-1.1c0.6-0.5,1.2-0.9,1.8-1.5l1.7-1.7c0.6-0.6,1.3-1.1,2-1.5c0.5-0.9,0.9-1.9,1.3-2.9c0.4-1,0.9-1.9,1.6-2.8
			c1.1,0,2.4,0.1,3.8,0.2s2.5,0.5,3.5,1.1c-0.1,0.4,0.1,0.7,0.6,0.9c-0.7,2.2-1.7,4.2-3,6c-1.3,1.8-3,3.3-5.2,4.5
			c-0.3,0.6-0.7,1.1-1.2,1.5c-0.5,0.4-1,0.8-1.4,1.2c-0.5,0.4-1,0.8-1.4,1.2c-0.5,0.4-0.9,0.9-1.2,1.5c-0.7,0.1-1.3,0.3-1.9,0.6
			c-0.5,0.3-1,0.6-1.4,0.9c-0.5,0.3-0.9,0.7-1.4,1c-0.5,0.3-1.1,0.5-1.7,0.7c-0.5,0.5-1,1-1.7,1.4c-0.6,0.4-1.3,0.7-1.9,1.1
			c-0.6,0.3-1.2,0.7-1.8,1.1c-0.5,0.4-0.9,0.9-1.2,1.6h-2.3c-0.7,1-1.5,1.9-2.6,2.5c-1.1,0.7-2.1,1.3-3.2,1.9c0.2,0.6,0.5,1.2,1,1.6
			c0.5,0.4,1,0.8,1.6,1.1c0.6,0.3,1.1,0.7,1.7,1c0.6,0.3,1.1,0.8,1.5,1.2c2.5,0.9,5,1.8,7.3,2.9c2.3,1.1,4.6,2.4,6.7,4
			c0.1-0.1,0.3-0.1,0.5-0.1c0.5,0,0.9,0.1,1.2,0.4c0.3,0.2,0.7,0.3,1.3,0.3c0.2,0.5,0.6,0.9,1,1.1c0.4,0.2,0.9,0.3,1.3,0.4
			c0.5,0.1,0.9,0.3,1.3,0.5c0.4,0.2,0.7,0.6,0.9,1.1c0.9,0.1,1.7,0.2,2.5,0.5c0.8,0.3,1.4,0.7,2,1.3h1.1c1.9,0,3.8,0.2,5.6,0.5
			s3.6,0.5,5.5,0.5c1,0,1.9-0.1,2.8-0.2c0.9-0.1,1.8-0.4,2.6-0.8c0.3,0.2,0.6,0.3,1,0.5c0.4,0.2,0.8,0.2,1.2,0.2
			c0.3,0,0.8-0.1,1.4-0.2c0.1,0.6,0.3,1.1,0.7,1.7C1195.4,532.5,1195.6,533.1,1195.6,533.7z"/>
		<path class="st9" d="M1286,507.4c-0.5,0.6-0.8,1.2-1.1,1.7c-0.2,0.6-0.3,1.2-0.2,2c-0.6,0.1-1.3,0.2-2,0.3
			c-0.8,0.1-1.5,0.2-2.3,0.3c-0.8,0.1-1.5,0.3-2.2,0.5c-0.7,0.2-1.2,0.5-1.6,1c-0.5-0.2-1-0.2-1.6-0.2c-0.7,0-1.4,0.1-2.1,0.2
			c-0.7,0.2-1.3,0.4-1.8,0.8h-1.5c-0.5,0-1,0-1.7,0.1c-0.6,0.1-1.2,0.2-1.7,0.5c-2.8,0-5.5,0.2-8.3,0.6c-2.7,0.4-5.5,0.6-8.3,0.6
			c-0.4,0-0.9,0-1.3-0.1c-0.5-0.1-0.9-0.1-1.3-0.1c-0.5,0-0.8,0.2-0.9,0.5c-0.1,0.3-0.4,0.5-0.9,0.5c-0.4,0-0.7-0.1-1.1-0.2
			c-0.4-0.1-0.8-0.2-1.1-0.2c-1.1,0-2.3,0.2-3.4,0.5c-1.1,0.3-2.3,0.5-3.5,0.6c0.2,1.2,0.5,2.4,0.6,3.7c0.2,1.2,0.3,2.5,0.4,3.8
			c0.7,0.9,1.3,1.8,1.9,2.6c0.6,0.9,1,1.8,1.3,2.9c1,0.6,1.9,1.4,2.7,2.2c0.8,0.9,1.6,1.6,2.6,2.3c-0.2,0.2-0.4,0.3-0.5,0.6
			c-0.1,0.2-0.3,0.4-0.4,0.6c-0.2,0.2-0.4,0.3-0.6,0.4c-0.3,0.1-0.6,0.1-1,0c0.1,0.2,0.1,0.4,0.1,0.8c0,0.5-0.1,0.9-0.4,1.2
			c-0.2,0.3-0.5,0.5-0.8,0.8c-0.3,0.2-0.6,0.4-1,0.7c-0.4,0.2-0.6,0.5-0.8,0.9c-0.8-0.4-1.6-0.8-2.3-1.2c-0.7-0.4-1.6-0.7-2.6-0.8
			c-0.7-1.3-1.4-2.5-2.3-3.7c-0.8-1.2-1.6-2.4-2.3-3.8c-0.3-0.6-0.6-1.3-0.8-2c-0.2-0.7-0.5-1.4-0.8-2c-0.3-0.7-0.6-1.3-0.9-2
			c-0.4-0.6-0.8-1.2-1.4-1.7c0.1-0.2,0.1-0.5,0.1-0.9c0-0.7-0.1-1.5-0.4-2.2c-0.2-0.7-0.5-1.4-0.6-2.2h-0.7c-1.5,0-2.9,0.1-4.2,0.4
			c-1.3,0.3-2.6,0.7-4,1.3c-0.5-0.3-1.1-0.4-1.8-0.4c-0.8,0-1.7,0.1-2.4,0.4c-0.8,0.3-1.5,0.7-2.2,1.1c-0.5-0.1-0.9-0.1-1.3-0.1
			c-0.4,0-0.8,0-1.2,0c-0.8,0-1.7,0-2.6,0.1c-0.9,0.1-1.7,0.1-2.6,0.2c-0.5,0.1-0.9,0.1-1.4,0c-0.5,0-0.9,0-1.3,0
			c-0.7,0.1-1.4,0.3-2.3,0.7c-0.9,0.4-1.7,0.6-2.5,0.8c-2.2,1.7-4.1,3.5-5.8,5.6c-1.7,2.1-3.2,4.2-4.6,6.4c-1.4,0.5-2.5,1.3-3.2,2.5
			c-0.7,1.2-1.3,2.3-1.9,3.5c-0.7,0.1-1.2,0.2-1.5,0.5c-0.4,0.3-0.6,0.6-0.8,1l-0.6,1.2c-0.2,0.4-0.5,0.8-0.9,1.1h-0.3
			c-0.6,0-1.2,0.1-1.7,0.3c-0.5,0.2-1.1,0.3-1.7,0.3c-0.8,0-1.4-0.2-1.7-0.6c-0.3-0.4-0.7-0.6-1.1-0.6c-0.1,0-0.2,0-0.4,0.1
			l-0.4,0.2c-0.2-0.4-0.5-0.9-0.8-1.5c-0.3-0.6-0.5-1.1-0.5-1.7c0-0.5,0.2-1,0.5-1.4c0.3-0.4,0.7-0.8,1-1.2c0.4-0.4,0.7-0.8,1-1.2
			c0.3-0.4,0.4-0.9,0.4-1.5c1-0.3,2-0.7,2.9-1.2c0.9-0.6,1.7-1.2,2.3-1.9c0.7-0.8,1.4-1.7,1.9-2.8c0.5-1.1,1.2-1.9,2-2.6
			c0.1-0.2,0.3-0.3,0.6-0.3c0.3,0,0.5-0.1,0.7-0.3c0.3-0.3,0.6-0.7,0.8-1.2c0.2-0.6,0.5-1,0.8-1.3c0.2-0.2,0.6-0.5,0.9-0.8
			c0.4-0.3,0.8-0.7,1.2-1c0.4-0.3,0.7-0.7,1-1c0.3-0.3,0.5-0.6,0.5-1c0-0.4-0.1-0.7-0.3-0.9c-0.2-0.2-0.4-0.4-0.5-0.6
			s-0.4-0.3-0.5-0.6c-0.2-0.2-0.3-0.5-0.3-0.9c0-0.4,0.1-0.8,0.3-1c0.2-0.3,0.2-0.7,0.1-1.3c1.1-0.7,2.3-1.4,3.6-2
			c1.3-0.6,2.7-0.7,4.2-0.5l0.3-0.2c0.1-0.1,0.2-0.2,0.4-0.2c0.7-0.9,1.3-1.8,1.8-2.7c0.5-1,0.8-1.9,1.1-3c0.2-0.2,0.5-0.3,0.8-0.3
			c0.3,0,0.6,0,0.9,0c1-1.8,2.1-3.4,3.2-4.8c1.1-1.5,1.9-3.2,2.3-5.2c0.4-0.2,0.6-0.4,0.8-0.6c0.2-0.3,0.3-0.5,0.5-0.8
			c0.1-0.3,0.3-0.6,0.5-0.8c0.2-0.3,0.5-0.5,0.8-0.6v-0.2c0-0.3,0.1-0.6,0.3-0.8c0.2-0.2,0.3-0.6,0.1-1c0.2,0,0.4-0.1,0.5-0.2
			c0.1-0.1,0.2-0.2,0.3-0.4c0.1-0.2,0.2-0.3,0.4-0.4c0.1-0.1,0.4-0.2,0.7-0.1c0.2-1.2,0.6-2.3,1.1-3.3c0.5-1,1-2.1,1.6-3.1
			c0.6-1,1.2-2.1,1.8-3.1c0.6-1,1.2-2,1.8-3.1c1-0.3,2-0.6,3.1-1c1.1-0.4,2.2-0.6,3.2-0.6c1.3,0,2.5,0.4,3.4,1.2
			c0.9,0.8,1.7,1.7,2.3,2.8c0.6,1.1,1.1,2.3,1.5,3.5c0.4,1.2,0.7,2.3,0.9,3.1c0.2,0.6,0.5,1.3,0.9,1.9c0.4,0.6,0.6,1.3,0.6,2
			c0,0.3,0,0.5-0.1,0.8c-0.1,0.2-0.2,0.5-0.3,0.8c0.7,1.2,1.2,2.6,1.5,4.1c0.3,1.5,0.5,2.9,0.5,4.3v1c0,0.3,0,0.7-0.1,1
			c0.5,1,0.9,1.8,1.2,2.4c0.3,0.6,0.5,1.5,0.5,2.7c0,0.3,0.1,0.5,0.5,0.6c0.3,0.1,0.5,0.3,0.5,0.5c0,0.1,0,0.2-0.1,0.3l-0.2,0.3
			c0.1,0.3,0.3,0.5,0.8,0.4c0.5,0,0.7,0.1,0.9,0.4c1-0.1,2.2-0.2,3.4-0.2c1.3,0,2.6,0,3.9,0c1.3,0,2.6-0.1,3.8-0.2
			c1.2-0.1,2.3-0.4,3.2-0.8c0.4,0,0.8,0.1,1,0.4c0.2,0.2,0.5,0.4,0.9,0.4c0.3,0,0.4-0.1,0.4-0.4c-0.1-0.3,0.2-0.4,0.6-0.3h0.5
			c2.6,0,5.2-0.1,7.7-0.4c2.5-0.3,5.1-0.7,7.7-1.1c1-0.2,2.2-0.4,3.7-0.6c1.5-0.2,2.7-0.4,3.6-0.4c0.5,0,1.1,0,1.7,0.1
			c0.6,0.1,1.1,0.1,1.7,0.1c0.7,0,1.4-0.1,2.1-0.2c0.7-0.1,1.4-0.3,2-0.6c0.4,0.1,0.6,0.2,0.8,0.4c0.2,0.2,0.3,0.4,0.5,0.6
			c0.1,0.2,0.3,0.4,0.5,0.5C1285.3,507.3,1285.6,507.4,1286,507.4z M1223.8,510.5c0-2.4-0.3-5-0.8-7.8c-0.5-2.8-1.3-5.4-2.2-7.7
			c0.4,0,0.6-0.1,0.6-0.3c0.1-0.2,0.1-0.4,0.1-0.6v-0.5c-0.3-0.5-0.5-1-0.6-1.6c-0.1-0.6-0.2-1.2-0.4-1.8c-0.1-0.6-0.3-1.1-0.6-1.6
			c-0.3-0.5-0.7-0.9-1.3-1.2h-0.6c-1,1.1-1.8,2.2-2.5,3.1c-0.7,1-1.2,2.1-1.4,3.5c-0.7,0.1-1.2,0.3-1.4,0.9c-0.2,0.5-0.5,0.9-1,1.1
			v0.2c0,0.4-0.1,0.7-0.3,1c-0.2,0.3-0.3,0.6-0.3,1c-0.8,0.7-1.5,1.5-2.1,2.4c-0.5,0.9-1.1,1.8-1.5,2.8c-0.5,1-1,1.9-1.5,2.8
			c-0.5,0.9-1.2,1.7-2,2.4v0.5c0,0.6-0.2,1.1-0.5,1.4c-0.4,0.3-0.6,0.7-0.7,1.2c0.3,0.1,0.5,0.1,0.7,0.1h0.8c0.4,0,0.7-0.1,0.9-0.2
			c0.2-0.1,0.5-0.3,0.8-0.5c-0.1,0.6,0.2,0.9,0.9,0.9c0.7,0,1.3,0,1.8,0c2.5,0,5-0.2,7.5-0.5c2.5-0.3,5-0.5,7.5-0.6V510.5z
			 M1287.4,486.4c0,0.9-0.1,1.6-0.4,2.2c-0.2,0.6-0.6,1.1-0.9,1.6c-0.4,0.5-0.8,0.9-1.3,1.4c-0.5,0.5-1,0.9-1.5,1.5
			c-1-0.3-2-0.5-3-0.5c-0.7,0-1.5,0.1-2.3,0.2c-0.8,0.1-1.4,0.4-2,0.8c-0.3-0.1-0.6-0.1-1-0.1h-0.9c-1,0-2,0.1-3,0.2
			c-1,0.1-2,0.2-3,0.2c-0.5,0-1,0-1.4-0.1c-0.5-0.1-0.9-0.2-1.3-0.5c-1.6,0.8-3.4,1.4-5.2,1.8c-1.9,0.4-3.8,0.7-5.7,0.9
			c-1.9,0.2-3.9,0.4-5.8,0.5c-2,0.1-3.8,0.3-5.6,0.5c-1.4-0.4-2.4-1.1-3-2.1c-0.6-1-1-2.1-1.1-3.4c0.7-0.7,1.4-1.2,2.3-1.6
			c0.9-0.4,1.8-0.7,2.8-0.8c1-0.2,2-0.3,3-0.4c1-0.1,2-0.2,3-0.4c0.7-0.1,1.4-0.3,2.1-0.5c0.7-0.2,1.4-0.5,2-0.8
			c0.1-0.1,0.2-0.1,0.4-0.1c0.4,0,0.6,0.1,0.8,0.3c0.1,0.2,0.4,0.3,0.8,0.3h0.5c1.8-0.5,3.5-1,5.2-1.3c1.6-0.3,3.3-0.6,4.9-0.8
			c1.6-0.2,3.3-0.3,4.9-0.4c1.7-0.1,3.4-0.2,5.3-0.3c0.8-0.1,1.9-0.1,3.2-0.3c1.3-0.1,2.3-0.2,3.1-0.2c0.4,0,0.7,0.1,1,0.3
			c0.3,0.2,0.6,0.4,0.9,0.7c0.3,0.2,0.6,0.5,0.9,0.7c0.3,0.2,0.6,0.3,1,0.3c0.3,0,0.6-0.1,0.9-0.2V486.4z M1308.4,529.1
			c-0.4,0.7-0.9,1.2-1.4,1.6c-0.5,0.4-0.8,1-0.9,1.8c-2.8,0.7-5.6,1.3-8.5,1.8c-2.9,0.4-5.8,0.8-8.7,1.2c-2.9,0.4-5.7,0.9-8.5,1.4
			c-2.8,0.5-5.5,1.2-8.3,2h-0.2c-0.2,0-0.3-0.1-0.5-0.2c-0.2-0.1-0.3-0.2-0.6-0.2c-0.2,0-0.7,0.1-1.4,0.3c-0.7,0.2-1.1,0.5-1.2,0.9
			h-1.3c-1.4,0-2.8,0.1-4.2,0.2c-1.4,0.1-2.8,0.2-4.2,0.2c-2.2,0-4.5-0.3-6.7-1c-0.1-0.7-0.4-1.4-0.9-2c-0.5-0.6-0.9-1.3-1.2-2
			c0.1-0.6,0.3-1.1,0.8-1.5c0.5-0.4,1-0.7,1.6-0.8c0.6-0.2,1.3-0.3,1.9-0.5c0.7-0.1,1.2-0.3,1.7-0.6c0.7,0.1,1.4,0.2,2.1,0.2
			c0.7,0.1,1.4,0.1,2.1,0.1c1.8,0,3.6-0.1,5.5-0.3c1.8-0.2,3.7-0.4,5.5-0.7c1.8-0.2,3.7-0.5,5.6-0.7c1.9-0.2,3.7-0.3,5.6-0.3
			c0.5,0,0.9-0.1,1.4-0.3c0.5-0.2,0.9-0.3,1.4-0.3c0.4,0,0.8,0.1,1.1,0.4c2.3-0.7,4.7-1.3,7.1-1.8c2.4-0.5,4.9-0.8,7.3-0.8
			c1.4,0,2.8,0.1,4.2,0.4C1305.9,527.9,1307.2,528.4,1308.4,529.1z"/>
		<path class="st9" d="M1416.9,523.9c-0.1,0.8-0.4,1.4-0.9,1.8c-0.5,0.4-1.1,0.8-1.8,1.2c-0.3-0.1-0.6-0.1-0.9-0.1
			c-0.3,0-0.6,0-0.9,0c-1.9-0.1-3.6,0.2-5.3,0.6c-1.7,0.5-3.4,0.8-5.1,1c-0.6,0.1-1.2,0.1-1.7,0.1c-0.5,0-1,0-1.6,0.1
			c-1.9,0.3-4,0.5-6.1,0.6s-4.3,0.4-6.5,0.6c-2.2,0.2-4.3,0.5-6.4,0.9c-2.1,0.3-4,0.8-5.8,1.5c-0.2-0.1-0.4-0.2-0.5-0.4
			c-0.2-0.1-0.4-0.2-0.6-0.2c-0.6,0-1.2,0.1-1.7,0.2c-0.5,0.2-1.1,0.2-1.6,0.2c-0.6,0.3-1.3,0.5-1.9,0.7c-0.7,0.1-1.4,0.2-2.1,0.3
			c-0.7,0.1-1.4,0.2-2,0.4c-0.7,0.2-1.3,0.5-1.9,0.9c-0.5-0.2-1.1-0.3-1.8-0.4c-0.7,0-1.2-0.2-1.4-0.6c-1.4,0.6-2.8,1-4.4,1.1
			c-1.5,0.2-3.1,0.2-4.7,0.2c-1-0.1-2.2-0.2-3.5-0.4c-1.3-0.2-2.7-0.5-4-0.9c-1.3-0.4-2.6-0.9-3.7-1.4c-1.1-0.6-2-1.2-2.6-2
			c-0.4-0.5-0.7-1.1-0.9-1.8c-0.2-0.6-0.6-1.1-1.3-1.4c0.2-1.2,0.4-2.4,0.6-3.6c0.2-1.2,0.5-2.4,0.7-3.6c1.2-0.9,2.3-1.9,3.4-2.9
			c1.1-1,2.1-2.1,3.1-3.2c1.1-0.5,2.2-1.1,3.2-1.8c1-0.7,2-1.4,3-2.1s2-1.4,3-2.1c1-0.7,2.1-1.3,3.2-1.8c0.2-0.4,0.4-0.7,0.8-0.9
			c0.3-0.2,0.7-0.5,1-0.7s0.7-0.5,1-0.8c0.3-0.3,0.5-0.7,0.6-1.1c2.1-1.1,3.9-2.5,5.5-4.2c1.6-1.7,2.6-3.6,3.1-5.8
			c-1-0.7-2.2-1.2-3.5-1.5c-1.3-0.2-2.6-0.4-4-0.5c-1.2-0.1-2.5-0.1-3.8,0c-1.3,0.1-2.6,0-3.9-0.1c-1.3,0.4-2.7,0.6-4.1,0.7
			c-1.4,0.1-2.8,0.2-4.2,0.3c-1.4,0.1-2.8,0.2-4.1,0.5c-1.4,0.2-2.7,0.7-3.9,1.3c-0.2,0-0.5,0-0.7-0.1c-0.2-0.1-0.4-0.1-0.7-0.1
			c-1.9-0.1-3.7,0.3-5.4,1c-1.7,0.7-3.3,1.4-5,2.1c-0.1,0.2-0.2,0.4-0.2,0.5c0,0.3,0.1,0.6,0.2,0.9c0.1,0.3,0.2,0.6,0.2,0.9
			c-0.1,0.1-0.1,0.1-0.1,0.2c0,0.1,0,0.1-0.1,0.2c-0.1,0.3-0.1,0.5-0.2,0.7c-0.1,0.2-0.2,0.5-0.3,0.7c-0.7,1.7-1,3.4-1.1,5
			c-0.1,1.4-0.1,2.7,0,4.1c0.1,1.3,0.1,2.7,0,4.1c-0.1,1.7-0.4,3.3-0.9,4.8c0.3,1.3,0.6,2.6,0.8,4c0.2,1.4,0.5,2.8,0.9,4.2
			c0.4,1.4,0.8,2.7,1.3,4c0.5,1.3,1.2,2.5,2,3.7c-0.1,0.1,0,0.2,0.1,0.2c0.1,0.1,0.2,0.1,0.4,0.1h0.7c0.3,0,0.4,0.1,0.4,0.3
			c0.1,0.2,0.2,0.3,0.3,0.4c0.1,0.1,0.2,0.3,0.4,0.4c0.1,0.2,0.1,0.4,0,0.6c-0.1,1.1-0.4,2-0.9,3c-0.5,0.9-0.9,1.9-1,3
			c-0.7,0.2-1.4,0.2-2,0.2c-1-0.1-1.9-0.3-2.7-0.8s-1.5-1-2.2-1.6c-0.7-0.6-1.3-1.3-1.9-2c-0.6-0.7-1.3-1.2-2-1.7
			c-0.4-1.5-0.8-3.1-1.2-5c-0.4-1.8-1-3.4-1.9-4.6c0.2-0.5,0.4-1.1,0.4-1.8c0.1-1.1,0-2.1-0.3-3.2c-0.3-1-0.3-2.1-0.2-3.2
			c0-0.6,0.1-1.2,0.2-1.8c0.1-0.6,0.3-1.2,0.3-1.8c0.1-0.9,0-1.8-0.3-2.6c-0.3-0.9-0.4-1.7-0.3-2.6c0.1-0.4,0.2-0.8,0.3-1.2
			c0.1-0.4,0.4-0.8,0.7-1.1c-0.3-0.6-0.4-1.3-0.3-1.8c0.1-0.9,0.2-1.8,0.4-2.6c0.2-0.8,0.3-1.6,0.4-2.4c0-0.4,0-0.8-0.1-1.2
			c-0.1-0.4-0.2-0.8-0.3-1.2l-0.8-0.2c-0.4,0-0.7,0.1-1,0.2c-0.3,0.2-0.6,0.3-0.9,0.6c-0.2,0.2-0.5,0.4-0.6,0.5
			c-0.2,0.1-0.4,0.2-0.5,0.2c-0.1,0-0.3,0-0.4,0c-0.2,0-0.3,0-0.4,0c-0.1,0-0.3,0.1-0.7,0.3c-0.3,0.2-0.7,0.4-1.2,0.7
			s-0.9,0.5-1.3,0.7c-0.4,0.2-0.8,0.4-1,0.4c-0.7-0.1-1.2-0.3-1.6-0.6c-0.4-0.3-0.8-0.6-1.1-0.9c-0.3-0.3-0.7-0.6-1-0.8
			s-0.8-0.3-1.4-0.3c-0.2-0.3-0.3-0.7-0.3-1c0-0.4,0-0.7,0-1.1v-1.3c0.4-0.7,1-1.3,1.7-1.7c0.7-0.5,1.4-0.8,2.2-1.2l2.3-1
			c0.8-0.3,1.5-0.7,2.2-1.2h0.8c1.1,0.1,2-0.1,2.8-0.6c0.8-0.4,1.6-0.9,2.3-1.5c0.7-0.6,1.5-1.1,2.2-1.7c0.8-0.6,1.6-1,2.5-1.4
			c0.7,0.3,1.4,0.5,2.1,0.7c0.7,0.2,1.5,0.3,2.3,0.4c0.8,0,1.6-0.1,2.4-0.3c0.8-0.2,1.5-0.6,2-1.2c0.3,0.1,0.6,0.2,0.8,0.2
			c0.2,0,0.5,0,0.8,0c0.9,0.1,1.8-0.1,2.7-0.4c0.9-0.3,1.8-0.7,2.6-1.1c1.2,0.1,2.4,0,3.6-0.2c1.2-0.2,2.3-0.4,3.5-0.6
			c1.2-0.2,2.3-0.4,3.5-0.6c1.2-0.2,2.4-0.3,3.6-0.2c2,0.1,3.9-0.1,5.9-0.5c1.9-0.4,3.9-0.5,5.9-0.4c1.4,0.1,2.8,0.1,4.1,0.3
			c1.4,0.1,2.7,0.2,4.1,0.1c0.8,0.3,1.5,0.6,2.1,0.8c0.6,0.2,1.4,0.3,2.4,0.2c1.9,1.4,3.7,3.1,5.2,5v1.4c-0.1,1.2-0.3,2.4-0.7,3.6
			c-0.4,1.2-0.9,2.3-1.5,3.5c-0.6,1.1-1.2,2.3-1.9,3.4c-0.7,1.1-1.3,2.2-1.9,3.2c-3.9,3.1-7.8,6.3-11.7,9.3c-3.9,3.1-8,6.1-12.1,8.9
			c-0.1,0.5-0.3,1-0.5,1.4c-0.2,0.4-0.3,0.9-0.4,1.4c0,0.3,0,0.5,0.1,0.6c0.4,0.1,0.8,0.3,1.1,0.6c0.3,0.3,0.4,0.7,0.3,1.2h0.8
			c0.3,0,0.5,0.1,0.5,0.3l1.4,0.1c2.3,0.1,4.6,0.1,6.9-0.2c2.3-0.2,4.6-0.5,6.9-0.7c2.3-0.3,4.6-0.5,6.9-0.8
			c2.3-0.2,4.6-0.4,6.9-0.4c0.5-0.2,1.1-0.3,1.7-0.4c0.6-0.1,1.1-0.3,1.6-0.6h0.3c0.4,0,0.7,0.1,0.9,0.3c0.2,0.2,0.5,0.3,0.9,0.4
			c0.3,0,0.6-0.1,0.9-0.2c0.3-0.1,0.7-0.2,1-0.2c0.8-0.2,1.7-0.3,2.7-0.4c0.9-0.1,1.9-0.1,2.8-0.2c3.5-0.3,7-0.4,10.4-0.5
			c3.4-0.1,6.9-0.5,10.3-1.2c0.3,0.4,0.7,0.6,1.3,0.8c0.5,0.1,1.1,0.3,1.7,0.4c0.6,0.1,1.2,0.3,1.7,0.4
			C1416.3,523.1,1416.7,523.4,1416.9,523.9z"/>
	</g>
	<g>
	</g>
	<g>
	</g>
	<g>
	</g>
	<g>
	</g>
	<g>
	</g>
	<g>
	</g>
	<g>
	</g>
	<g>
	</g>
	<g>
	</g>
	<g>
	</g>
	<g>
	</g>
	<g>
	</g>
	<g>
	</g>
	<g>
	</g>
	<g>
	</g>
</g>
</svg>
