<?xml version="1.0" encoding="utf-8"?>
<!-- Generator: Adobe Illustrator 24.0.1, SVG Export Plug-In . SVG Version: 6.00 Build 0)  -->
<svg version="1.1" xmlns="http://www.w3.org/2000/svg" xmlns:xlink="http://www.w3.org/1999/xlink" x="0px" y="0px"
	 viewBox="0 0 1028 600" style="enable-background:new 0 0 1028 600;" xml:space="preserve">
<style type="text/css">
	.st0{fill:#0B5424;}
	.st1{fill:#127530;}
	.st2{fill:#288444;}
	.st3{fill:#7ACC8C;}
	.st4{fill:#66A376;}
	.st5{fill:#043511;}
	.st6{fill:#961515;}
	.st7{fill:#B23F3F;}
	.st8{fill:#490F0F;}
	.st9{fill:#191818;}
</style>
<g id="Grøn">
</g>
<g id="Rød">
	<path class="st6" d="M119.8,195.3c0,0-13.8-293.3,222.1-102.5c0,0,153.2-182.7,206.9-3.7c0,0,239.7-123,217.5,15.8
		c0,0,240.7-194.8,159,66.2c0,0,140.7,7,51.7,96c0,0,116.7,117.5-61,131.5c0,0,12.9,186.4-204.6,38.2c0,0-162.5,129.6-228,6.5
		c0,0-109.4,321.8-168.4,12.1c0,0-230.3,154.7-164.9-60.6c0,0-212.1,22.3-71.1-102.7C79,292-94,122,119.8,195.3z"/>
	<path class="st6" d="M119.8,196.3c0,0-13.8-293.3,222.1-102.5c0,0,153.2-182.7,206.9-3.7c0,0,239.7-123,217.5,15.8
		c0,0,240.7-194.8,159,66.2c0,0,140.7,7,51.7,96c0,0,116.7,117.5-61,131.5c0,0,12.9,186.4-204.6,38.2c0,0-162.5,129.6-228,6.5
		c0,0-109.4,321.8-168.4,12.1c0,0-230.3,154.7-164.9-60.6c0,0-212.1,22.3-71.1-102.7C79,293-94,123,119.8,196.3z"/>
	<path class="st7" d="M136,171c0,0,20-196,154-93C290,78,177,35,136,171z"/>
	<path class="st7" d="M579,87c0,0,194-81,169,12C748,99,751,34,579,87z"/>
	<path class="st7" d="M795,98c0,0,154-114,126,10C921,108,929,19,795,98z"/>
	<path class="st8" d="M331,465c0,0,35,186,108,42C439,507,376,614,331,465z"/>
	<path class="st8" d="M284,454c0,0-152,86-126-30C158,424,153,508,284,454z"/>
	<path class="st8" d="M750,438c0,0,132,85,148-20C898,418,876,488,750,438z"/>
	<path class="st8" d="M64,326c0,0-56,58,60,54C124,380,35,381,64,326z"/>
	<path class="st7" d="M988,235c0,0,30-52-53-54C935,181,1001,189,988,235z"/>
	<ellipse class="st7" cx="252" cy="77.5" rx="16" ry="7.5"/>
	<ellipse class="st7" cx="227" cy="88.8" rx="11" ry="5.2"/>
	<ellipse transform="matrix(0.9264 -0.3766 0.3766 0.9264 34.5186 325.5782)" class="st7" cx="850" cy="74.5" rx="16" ry="7.5"/>

		<ellipse transform="matrix(0.9264 -0.3766 0.3766 0.9264 35.8385 335.8375)" class="st7" cx="876.9" cy="76.3" rx="12.3" ry="5.8"/>
	<ellipse transform="matrix(0.9264 -0.3766 0.3766 0.9264 29.1617 333.4989)" class="st7" cx="867.6" cy="92.2" rx="7.8" ry="3.6"/>

		<ellipse transform="matrix(0.7071 -0.7071 0.7071 0.7071 -272.2115 256.1816)" class="st8" cx="173.1" cy="456.7" rx="5.3" ry="11.3"/>

		<ellipse transform="matrix(0.7071 -0.7071 0.7071 0.7071 -268.4966 267.0894)" class="st8" cx="188.2" cy="457.6" rx="4.7" ry="9.9"/>
	<ellipse transform="matrix(0.5 -0.866 0.866 0.5 -292.098 378.8596)" class="st8" cx="182.1" cy="442.4" rx="3" ry="6.4"/>
	<ellipse transform="matrix(0.1799 -0.9837 0.9837 0.1799 -203.8584 805.2397)" class="st8" cx="381" cy="524.9" rx="3" ry="6.5"/>
	<ellipse transform="matrix(0.89 -0.4559 0.4559 0.89 -103.5744 443.7552)" class="st8" cx="868" cy="436.6" rx="13.6" ry="6.4"/>
	<ellipse class="st8" cx="390.6" cy="536.4" rx="9.1" ry="4.3"/>
	<path class="st7" d="M380,71c0,0,88-91,134-17C514,54,474,10,380,71z"/>
	<path class="st7" d="M75,272c0,0-110-117,20-70C95,202-15,163,75,272z"/>
	<path class="st8" d="M937,379c0,0,80-3,56-69C993,310,995,372,937,379z"/>
	<path class="st8" d="M500,452c0,0,50,76,185-12C685,440,550,498,500,452z"/>
</g>
<g id="Navn">
	<g>
		<path class="st9" d="M219.8,335.5c0,0.5-0.2,0.9-0.6,1.3c-0.4,0.4-0.9,0.7-1.4,0.9c-0.5,0.2-1.1,0.5-1.7,0.7
			c-0.6,0.2-1.1,0.4-1.5,0.6c-0.7-0.3-1.3-0.5-2-0.6c-0.7-0.1-1.3-0.4-1.9-0.8h-0.6c-1,0-1.7,0.1-2.3,0.3c-0.8-0.3-1.5-0.7-2.1-1.2
			c-0.5-0.5-1.1-1-1.5-1.6c-0.5-0.6-1-1.1-1.4-1.6c-0.5-0.5-1.1-1-1.8-1.4c-1.1-2.7-2-5.4-2.9-8.1c-0.8-2.7-1.5-5.5-1.9-8.3
			c0.1-0.3,0.2-0.6,0.3-0.9c0.1-0.3,0.1-0.6,0.1-0.9c0-0.2,0-0.4-0.1-0.7c-0.1-0.2-0.3-0.4-0.6-0.4c0.3-0.4,0.5-0.9,0.6-1.5
			c0.1-0.6,0.1-1.1,0.1-1.6c0-1.1-0.1-1.9-0.4-2.6c0.4-0.3,0.5-0.7,0.5-1.3c-0.1-0.6,0.1-1.1,0.5-1.3c-0.3-0.9-0.5-1.8-0.5-2.6
			c0-1.2,0.2-2.3,0.5-3.4c0.3-1.1,0.5-2.3,0.5-3.4c0-0.3,0-0.5,0-0.8c0-0.3-0.1-0.5-0.1-0.8c0.3-0.9,0.6-1.7,0.9-2.6
			s0.4-1.8,0.4-2.7c0-0.6-0.1-1.2-0.4-1.6c0.8-2.4,1.3-4.9,1.7-7.3c0.3-2.4,0.6-4.9,0.9-7.4c-0.1-0.1-0.1-0.2-0.2-0.2
			c-0.1-0.1-0.1-0.1-0.1-0.2c0-0.3,0.2-0.5,0.5-0.6c0.3-0.2,0.5-0.5,0.4-0.9c-0.7,0.6-1.3,1.4-1.8,2.2c-0.5,0.9-0.9,1.7-1.3,2.6
			c-0.4,0.9-0.8,1.7-1.3,2.5c-0.5,0.8-1,1.6-1.8,2.2c-0.1,0.6-0.3,1.1-0.6,1.7c-0.3,0.5-0.5,1.1-0.5,1.8c-0.1,0-0.1,0-0.2,0
			c-0.1,0-0.2,0-0.3,0c-0.2,0-0.4,0.1-0.5,0.4c-0.1,0.3-0.3,0.3-0.6,0.2c-1.4,2.4-2.9,4.7-4.6,7c-1.7,2.3-3.8,4.1-6.5,5.5
			c-0.5-0.2-0.9-0.2-1.4-0.2c-0.8,0-1.6,0.2-2.3,0.6c-0.8,0.4-1.3,0.6-1.5,0.6c-0.6,0-1.3-0.3-2.2-0.8c-0.9-0.6-1.8-0.9-2.7-0.9
			c-1-0.6-1.8-1.2-2.4-1.8c-0.6-0.6-1.6-1-2.8-1.1c-0.8-1.1-1.7-2.2-2.5-3.2c-0.8-1-1.6-2-2.3-3c-0.8-1-1.4-2-2-3.2
			c-0.6-1.1-1-2.4-1.3-3.8c0.1-0.1,0.1-0.2,0.1-0.3c0-0.3-0.2-0.5-0.5-0.4c-0.3,0.1-0.5-0.1-0.5-0.5v-0.6c0-0.4-0.1-0.8-0.2-1.2
			c-0.2-0.3-0.2-0.7-0.1-1.2c-0.4-0.6-0.8-1.2-1-1.8c-0.2-0.6-0.7-1.2-1.3-1.7v-0.7c0-0.3,0-0.6,0-0.9c0-0.3-0.1-0.6-0.3-0.8
			c-0.2-0.2-0.4-0.4-0.7-0.4c-0.1-1.9-0.5-3.9-1.3-5.9c-0.8-2-1.6-3.9-2.2-5.8c-0.5,1.4-0.8,2.8-1.1,4.2c-0.2,1.4-0.4,2.8-0.4,4.3
			v1.4c0,0.4,0.1,0.9,0.2,1.3c-0.2,0.3-0.4,0.5-0.8,0.6c-0.3,0.1-0.5,0.3-0.6,0.6c-0.1,0.3-0.1,0.5,0,0.8c0,0.3,0,0.5,0,0.8
			c-0.1,1.3-0.3,2.5-0.5,3.7c-0.4,1.8-0.8,3.5-1.3,5.3c-0.5,1.8-0.7,3.6-0.7,5.5c0,0.1,0,0.3,0,0.4c0,0.2,0,0.3,0,0.4
			c-1,0.7-1.5,1.7-1.5,2.8c-0.1,1.1-0.2,2.2-0.5,3.2c-0.3,1.5-0.7,3-1.1,4.4c-0.4,1.5-0.8,3-1.1,4.5c-0.2,0.9-0.3,1.7-0.5,2.5
			c-0.1,0.8-0.2,1.7-0.4,2.5c-0.1,0.5-0.3,0.9-0.6,1.2c-0.3,0.3-0.6,0.7-0.7,1.1c-0.1,0.4-0.1,0.8,0,1.2c0,0.5,0,0.9,0,1.2
			c0,0.6-0.1,1.2-0.2,1.8c-0.1,0.6-0.5,1.1-1.1,1.5c0.1,1.4,0.4,2.6,0.8,3.6c0.4,1,0.9,2.1,1.4,3.3h2.3v0.3c0,0.5,0.1,1,0.3,1.4
			c0.2,0.4,0.6,0.6,1.3,0.6c-0.1,0.2-0.1,0.5-0.1,0.8c0,0.5,0.1,0.9,0.3,1.3c0.2,0.4,0.4,0.8,0.5,1.3c-1.2,1.8-2.5,3.1-3.9,3.9
			c-1.4,0.9-3.3,1.3-5.7,1.3h-1.4c-0.3-0.9-0.7-1.7-1.1-2.5c-0.4-0.8-0.8-1.6-1.2-2.4c-0.4-0.8-0.7-1.6-1-2.4
			c-0.3-0.8-0.4-1.7-0.4-2.6c0-0.2,0-0.4,0.1-0.6c0.1-0.2,0.1-0.4,0.1-0.6c0-0.3-0.1-0.4-0.4-0.5c-0.2-0.1-0.4-0.3-0.4-0.8
			c0-0.4,0-0.7,0-1c0-0.3,0-0.7,0-1c0-1.8,0.1-3.5,0.5-5.2c0.3-1.7,0.5-3.5,0.6-5.2c0.3-0.3,0.5-0.6,0.5-1c0-0.4,0.1-0.8,0.5-1v-0.6
			c0-1,0.1-1.9,0.4-2.9c0.2-1,0.5-1.9,0.8-2.8c0.3-0.9,0.6-1.8,0.8-2.8c0.2-1,0.4-1.9,0.4-2.9v-1.3c0-0.4,0.2-0.5,0.6-0.5
			c0.4,0,0.6-0.2,0.7-0.6c0.1-0.7,0.2-1.5,0.2-2.2c0-0.7,0.1-1.5,0.2-2.2c0.3-1.4,0.6-2.9,1-4.4c0.4-1.5,0.5-2.9,0.5-4.4v-0.2
			c0-0.2,0.1-0.5,0.5-1c0.3-0.5,0.5-1,0.5-1.5c0-0.4-0.1-0.7-0.3-1c0.1,0.1,0.2,0.1,0.4,0.1c0.2,0,0.4-0.1,0.5-0.2
			c0.1-0.1,0.2-0.3,0.4-0.4c-0.2-0.2-0.3-0.4-0.3-0.6c0-0.3,0-0.5,0.1-0.8c0.1-0.2,0.1-0.5,0.1-0.8c0-0.4-0.2-0.6-0.6-0.8
			c0.7-1.2,1.2-2.4,1.6-3.8c0.3-1.3,0.6-2.7,0.7-4.1c0.1-1.4,0.3-2.8,0.4-4.2c0.1-1.4,0.4-2.8,0.8-4c-0.1-0.3-0.2-0.7-0.2-1
			c0-0.4,0-0.7,0-1c0-0.2,0-0.4-0.1-0.7c-0.1-0.2,0-0.5,0.1-0.7c0-0.1,0-0.2,0.1-0.4l0.2-0.5c0.1-0.4,0.2-0.8,0.2-1.2
			c0-0.4,0.1-0.8,0.1-1.2c0.1-1.2,0.2-2.5,0.1-3.8c0-1.3,0-2.6,0.1-3.8c-0.2-0.2-0.4-0.4-0.5-0.5c-0.2-0.1-0.3-0.3-0.4-0.6
			c0.5-0.7,1-1.5,1.6-2.1c0.6-0.7,1.3-1.2,2.3-1.6c0.2,0.6,0.7,0.9,1.4,0.9c0.4,0,0.8-0.1,1.4-0.2c0.5-0.2,0.9-0.4,1.1-0.6
			c1,0.3,2.1,0.5,3.1,0.4c1.1,0,2,0.2,2.9,0.7c0.2,0.8,0.4,1.6,0.7,2.5c0.3,0.9,0.7,1.6,1.3,2.3c0.1,0.7,0.2,1.5,0.4,2.5
			c0.1,1,0.2,2,0.4,3c0.1,1,0.3,2,0.5,3c0.2,0.9,0.6,1.7,1,2.2c0.1,1,0.2,1.9,0.5,2.9c0.3,1,0.6,1.9,1,2.8c0.4,0.9,0.7,1.7,0.9,2.4
			c0.3,0.7,0.4,1.4,0.4,1.8c0,0.4-0.1,0.7-0.2,0.8c-0.2,0.1-0.3,0.4-0.4,0.7c0.2,0.6,0.6,1.1,1,1.5c0.4,0.4,0.9,0.9,1.4,1.4
			c0.9,3,2.1,6,3.5,8.9c1.4,2.9,3.2,5.6,5.2,8.3c0.5,0.1,1,0.2,1.3,0.4c0.3,0.2,0.9,0.3,1.6,0.2v0.6c0,0.5,0.1,0.9,0.4,1.1
			c0.5,0.3,1.2,0.5,1.9,0.5c0.8,0,1.4-0.2,1.9-0.6c0.5-0.4,0.9-0.9,1.3-1.4c0.4-0.5,0.8-1,1.3-1.5c0.4-0.5,1-0.8,1.7-1v-0.2
			c0-0.4,0.1-0.8,0.3-1.1c0.2-0.3,0.3-0.6,0.3-1c0.7-0.4,1.2-1,1.5-1.6c0.4-0.6,0.7-1.3,1-2c0.3-0.7,0.6-1.3,1-1.9
			c0.4-0.6,0.9-1.1,1.6-1.4c0.8-2.3,1.9-4.4,3.1-6.4c1.2-2,2.5-4,3.8-6c0-0.2,0-0.3-0.1-0.5c-0.1-0.2-0.1-0.4-0.1-0.5
			c0-0.1,0.1-0.3,0.2-0.7c0.3-0.5,0.6-1,0.8-1.5c0.2-0.5,0.5-1,0.6-1.6c0.6-1.7,1.2-3.3,1.7-4.9c0.5-1.6,1.3-3.1,2.3-4.6v-2
			c1.1-1.9,1.9-3.9,2.3-6.1c0.5-2.1,1-4.2,1.7-6.2c0.1-0.6,0.3-1.2,0.7-1.8c0.3-0.6,0.7-1.1,1.2-1.3c-0.2-0.3-0.3-0.6-0.3-1
			c0-0.4,0.1-0.8,0.2-1.2c0.1-0.3,0.3-0.7,0.4-1.1c-0.2-0.4-0.3-0.9-0.3-1.4c0-0.7,0.2-1.5,0.7-2.1c0.5-0.7,1.2-1.1,2.2-1.3
			c0.6,0.2,1.1,0.4,1.5,0.8c0.4,0.4,0.8,0.8,1.2,1.2c0.4,0.4,0.8,0.7,1.3,1c0.5,0.2,1,0.3,1.8,0.2c0.5,0.8,0.8,1.6,1,2.5
			c0.2,0.9,0.3,1.8,0.3,2.7c0,1.2-0.1,2.5-0.4,3.8c-0.2,1.3-0.3,2.6-0.3,4c-0.5,0.9-0.8,1.8-1,2.8c-0.2,1-0.4,2-0.6,3
			c-0.2,1-0.4,2-0.6,3c-0.2,1-0.7,1.9-1.3,2.7c-0.2,2.4-0.4,4.7-0.6,7c-0.2,2.3-0.5,4.6-0.9,6.9l-0.8,4.6c-0.1,0.4-0.2,0.8-0.4,1.2
			c-0.1,0.5-0.2,0.8-0.2,1.2c0,0.3,0,0.7,0.1,1c0.1,0.3,0.2,0.6,0.5,0.8c-0.4,0.5-0.7,1.2-0.9,1.9c-0.2,0.7-0.4,1.5-0.5,2.4
			l-0.5,2.5c-0.1,0.8-0.4,1.5-0.7,2.2v0.9c0,2.1-0.4,4.3-1.3,6.5v0.4c0,0.3,0,0.5,0,0.7c0,0.2,0,0.4,0,0.7c0,0.4,0.1,0.7,0.4,0.9
			c-0.5,1.4-0.9,2.8-1.4,4.3c-0.4,1.5-0.7,3-0.9,4.5c-0.2,2.1-0.2,4.2-0.1,6.3c0.1,2.2-0.2,4.2-0.9,6.3c0.4,1,0.6,2,0.7,3.1l0.4,3.4
			c0.1,1.1,0.3,2.2,0.6,3.2s0.8,1.9,1.6,2.6c0.1,0.1,0.1,0.3,0.1,0.5c0,0.4-0.1,0.7-0.4,1c0.1,0.5,0.3,1,0.6,1.4
			c0.3,0.4,0.6,0.7,0.9,1.1c0.3,0.3,0.6,0.7,0.8,1.2c0.2,0.4,0.3,1,0.3,1.6c0.5,0.6,1.2,1,2.3,1.4c1,0.3,2.1,0.6,3.1,1
			c1.1,0.3,2,0.7,2.8,1.2C219.4,333.8,219.8,334.5,219.8,335.5z"/>
		<path class="st9" d="M291.9,309c-0.2,0.7-0.6,1.3-1.1,1.8c-0.6,0.5-1.3,0.8-2,1.1c-0.8,0.3-1.6,0.4-2.4,0.5s-1.6,0.1-2.2,0.1
			c-0.3,0-0.6,0-0.9,0c-0.3,0-0.6,0-0.9,0c-0.3,0-0.5,0.1-0.5,0.4c0,0.3-0.2,0.5-0.5,0.6c-0.3-0.1-0.6-0.2-0.9-0.2
			c-0.3-0.1-0.6-0.1-0.9-0.1c-0.4,0-0.8,0-1.2,0.1c-0.4,0.1-0.8,0.1-1.1,0.1c-0.5,0-0.8-0.1-1-0.2c-0.2-0.1-0.4-0.2-0.5-0.4
			c-0.2-0.1-0.3-0.3-0.5-0.4c-0.2-0.2-0.4-0.3-0.7-0.4c-0.4-0.2-0.8-0.2-1-0.1c-0.3,0.1-0.7-0.1-1.2-0.5c-0.7-0.5-1.3-1.2-1.9-2
			c-0.5-0.8-1-1.6-1.5-2.4c-0.5-0.9-1-1.7-1.5-2.6c-0.5-0.9-1.2-1.6-1.9-2.2h-0.7c-1.1,0-1.8,0.4-2.3,1.2c-0.3-0.2-0.6-0.4-0.9-0.6
			c-0.3-0.2-0.6-0.4-1-0.6c-1.4,0.4-2.8,0.7-4.3,1c-1.5,0.3-3,0.4-4.5,0.4h-1.3c-0.4,0-0.8-0.1-1.2-0.2c-0.6,0.2-1.1,0.5-1.6,0.8
			c-0.5,0.3-1,0.4-1.6,0.4c-0.4,0-0.8-0.1-1.3-0.3c-0.4,0-0.5,0.1-0.5,0.4c0,0.3-0.2,0.4-0.6,0.4H243c-0.8,0-1.7,0-2.5,0.1
			c-0.8,0.1-1.6,0.1-2.5,0.1c-1.1,0-2.3-0.1-3.5-0.4c-0.3,0.2-0.6,0.2-1,0.2c-0.2,0.1-0.4,0.3-0.5,0.5c-0.1,0.2-0.2,0.5-0.4,0.6
			c-0.1,0.2-0.3,0.3-0.5,0.5c-0.2,0.1-0.5,0.2-0.9,0.1c-0.1,0.6-0.4,1.1-0.9,1.5c-0.5,0.4-0.7,0.9-0.7,1.7c-0.7,0.3-1.2,0.7-1.6,1.2
			c-0.4,0.5-0.8,1-1.3,1.5c-0.4,0.5-0.9,1-1.3,1.5c-0.5,0.5-1,0.9-1.7,1.1c-0.3,0.3-0.4,0.8-0.3,1.5c-0.7,0.5-1.5,0.9-2.4,1.3
			c-1,0.4-1.9,0.6-2.7,0.6c-1.7,0-3-0.8-3.6-2.5c0-0.5,0-1.1,0.1-1.7s0.2-1.2,0.4-1.8s0.5-1.1,0.8-1.5c0.4-0.5,0.9-0.8,1.5-1
			c0-0.5-0.2-0.8-0.5-1c-0.4-0.2-0.5-0.5-0.5-1c1.6-0.7,3-1.6,4.2-2.7c1.2-1.1,2.3-2.3,3.3-3.6s2-2.5,3-3.8c1-1.3,2.2-2.4,3.4-3.4
			V293c1.8-1.7,3-3.6,3.5-5.8c0.7-0.1,1.1-0.4,1.3-0.8c0.2-0.4,0.3-0.9,0.3-1.5c0.3,0,0.5-0.1,0.6-0.4s0.3-0.3,0.8-0.2
			c0.5-1.3,1.1-2.4,1.8-3.5c0.7-1.1,1.3-2.1,2-3.2c0.7-1.1,1.3-2.2,1.8-3.4c0.5-1.2,0.9-2.5,1.1-3.9c0.8-0.1,1.3-0.4,1.4-1.1
			s0.2-1.3,0.3-1.8c0.9-0.7,1.6-1.6,2-2.6c0.5-1,0.9-2.1,1.2-3.2c0.4-1.1,0.8-2.2,1.2-3.3c0.5-1.1,1.1-2.1,1.9-2.9v-0.2
			c0-0.3-0.1-0.4-0.4-0.5c-0.2-0.1-0.4-0.3-0.4-0.5c0.1-0.1,0.1-0.1,0.1-0.2c0.7-0.3,1.3-0.7,1.6-1.3c0.4-0.6,0.9-1.1,1.6-1.3
			c1.3,0.9,2.4,1.5,3.3,1.6c1,0.2,2.2,0.3,3.8,0.4c0.8,0.7,1.2,1.6,1.3,2.7c0.1,1,0.3,2.1,0.6,3.1c0.5,1.7,1,3.4,1.6,5
			c0.6,1.6,1,3.3,1.3,5c0.2,1,0.5,2,1,2.9c0.5,0.9,0.8,1.8,1,2.8c0.1,0.7,0.1,1.6,0,2.5c-0.1,0.9,0,1.7,0.4,2.4l0.6,1.3
			c0.3,0.6,0.6,1.2,0.8,1.8c0.2,0.6,0.4,1.3,0.6,1.9c0.5,1.6,0.9,3.3,1.3,5.2c0.4,1.8,1,3.5,1.9,5c0.3,0.5,0.8,0.9,1.4,1.1
			c0.6,0.2,1.3,0.4,2.1,0.4c0.8,0.1,1.6,0.1,2.3,0.1c0.8,0,1.4,0,1.9,0h0.9c0.4,0,0.7,0.1,1.1,0.2c0.2,0.4,0.4,0.8,0.4,1.1
			c0,0.6-0.2,1.1-0.7,1.5c-0.5,0.4-0.7,0.8-0.7,1.3c0,0.3,0.1,0.6,0.4,0.9c-0.2-0.1-0.6-0.1-1.1-0.1c-1.4,0-2.7,0.2-4.1,0.6
			c0.5,0.9,1.1,1.7,1.9,2.3c0.8,0.6,1.7,1.2,2.6,1.7c0.6-0.4,1.2-0.6,1.9-0.6c0.7,0,1.4,0.1,2,0.4c0.6,0.3,1.3,0.4,2,0.4
			c0.5,0,0.9-0.1,1.2-0.2c0.5,0.5,0.9,1,1.2,1.5C291,308.1,291.4,308.6,291.9,309z M263.6,296.2c-0.1-0.9-0.3-1.6-0.6-2
			c-0.3-0.4-0.5-0.9-0.7-1.5c-0.2-0.7-0.4-1.5-0.5-2.4s-0.2-1.7-0.4-2.5c-0.4-1.8-0.9-3.6-1.4-5.4c-0.5-1.8-1.2-3.6-1.9-5.3
			c0.2-0.3,0.4-0.6,0.4-0.9v-0.2c-0.5-0.5-0.9-1.2-1.2-2c-0.2-0.8-0.5-1.5-0.7-2.3c-0.2-0.8-0.5-1.5-0.8-2.2
			c-0.3-0.7-0.9-1.2-1.6-1.6c-0.2,0.3-0.3,0.7-0.3,1.1c0,0.4,0,0.7,0.1,1c0.1,0.3,0.1,0.7,0.1,1c-0.6,0.3-1,0.7-1.3,1.2
			c-0.3,0.6-0.7,1-1.3,1.3c-0.5,1.7-1.2,3.3-2.1,4.8s-1.9,3-2.8,4.5c-1,1.5-1.9,3-2.8,4.5c-0.9,1.5-1.6,3.1-2.2,4.8
			c-0.8,0.5-1.3,1.1-1.6,1.8s-0.4,1.5-0.4,2.2c0.5,0.3,1.2,0.4,1.9,0.4c0.7,0,1.4,0,2,0c0.7,0,1.3,0.1,1.9,0.2
			c0.6,0.1,1.1,0.4,1.6,0.8c0.8-0.2,1.6-0.4,2.6-0.4c0.9-0.1,1.7-0.3,2.3-0.7c1.2,0.4,2.5,0.6,3.9,0.6c0.7,0,1.4-0.1,2.1-0.2
			c0.7-0.1,1.4-0.2,2-0.4c0.5,0.1,1,0.3,1.3,0.5c0.3,0.2,0.8,0.3,1.4,0.3c0.3-0.2,0.5-0.4,0.5-0.7
			C263.2,296.7,263.4,296.4,263.6,296.2z"/>
		<path class="st9" d="M354.6,260.6c-0.3,0.5-0.5,1-0.5,1.4s-0.1,1-0.2,1.4c-0.5,0.1-1.1,0.2-1.6,0.5c-0.5,0.3-1.1,0.5-1.6,0.8
			c-0.5,0.3-1,0.5-1.6,0.8c-0.5,0.2-1.1,0.4-1.6,0.4c-0.5,0-0.9-0.1-1.4-0.4c-0.4-0.3-0.8-0.6-1.1-0.9c-1.1,0.3-2.3,0.5-3.5,0.5
			c-1.3,0-2.5,0.1-3.8,0.1c-1.3,0-2.6,0.1-3.8,0.2c-1.2,0.1-2.4,0.4-3.4,0.9c0.2,0.5,0.3,1,0.4,1.5s0.2,1,0.4,1.5
			c0.1,0.5,0.4,0.9,0.6,1.4c0.3,0.4,0.6,0.8,1.1,1.1c0,0.6,0.1,1.1,0.2,1.6c0.1,0.5,0.2,1,0.2,1.5c1,2,2.1,4.1,3.3,6.1
			c1.1,2.1,1.9,4.2,2.3,6.5c0.1,0.6,0.3,0.9,0.7,1.1c0.3,0.1,0.5,0.3,0.6,0.6v2.6c0.7,0.6,1.1,1.3,1.4,2.1c0.3,0.8,0.5,1.6,0.6,2.4
			c0.1,0.8,0.2,1.7,0.3,2.5c0.1,0.9,0.2,1.7,0.4,2.5c-0.4,0.4-0.7,0.9-1,1.4c-0.3,0.5-0.5,1-0.5,1.6c0,0.5,0.1,0.8,0.2,1
			c-0.7-0.1-1.1,0.1-1.4,0.5c-0.2,0.4-0.4,0.8-0.5,1.3c-1,0.6-1.9,1.2-2.9,1.7c-1,0.6-1.9,1.2-2.7,2c-0.7,0.1-1.3,0.2-1.8,0.4
			c-0.5,0.2-1.1,0.5-1.8,0.7c-0.7,0.1-1.4,0.2-2.1,0.2h-2c-2,0-4.1-0.1-6.1-0.3c-2-0.2-4.1-0.4-6.1-0.7c-0.8-0.6-1.8-1-2.9-1.2
			s-2.1-0.4-3.2-0.5c-1-0.6-2.2-1.3-3.6-1.9c-1.4-0.6-2.7-0.9-3.9-0.9c-0.4-0.9-0.9-1.4-1.7-1.8c-0.8-0.3-1.6-0.5-2.4-0.6
			c0.1-0.2,0.1-0.4,0.1-0.7c0-0.4-0.1-0.7-0.4-0.8c-0.2-0.2-0.5-0.3-0.8-0.5c-0.3-0.1-0.6-0.3-1-0.4s-0.7-0.3-0.9-0.4
			c-0.7-0.4-1.2-0.9-1.7-1.5c-0.5-0.6-1-1.1-1.4-1.7c-0.5-0.6-1-1.1-1.5-1.7c-0.5-0.5-1.1-1-1.8-1.4c-0.2-1.2-0.5-2.4-0.8-3.6
			c-0.3-1.2-0.5-2.4-0.5-3.6c0-0.4,0.2-0.8,0.5-1.2c0.3-0.4,0.6-0.7,1-1c0.4-0.3,0.7-0.7,1.1-1c0.4-0.4,0.6-0.8,0.7-1.2
			c0.9,0.4,2,0.6,3.2,0.6c1.3,0,2.6-0.2,3.9-0.5c1.3-0.3,2.6-0.5,4-0.5c0.4,0,0.8,0,1.2,0.1s0.7,0.1,1.1,0.1c0.4,0,0.7-0.1,0.8-0.4
			c0.1-0.2,0.4-0.4,0.9-0.4c0.8,0,1.6,0.3,2.2,0.8c0.6,0.6,1.2,1.1,1.7,1.5c-0.1,0.7-0.3,1.3-0.8,1.6c-0.5,0.3-0.9,0.7-1.2,1.3
			c-1,0.1-1.8,0.2-2.5,0.4c-0.7,0.2-1.4,0.5-2,0.8c-0.7,0.3-1.4,0.5-2.1,0.8c-0.7,0.2-1.6,0.3-2.7,0.3c-0.4,0-0.7,0.2-0.9,0.7
			c-0.2,0.5-0.5,0.8-0.8,1c0.5,0.4,0.9,0.9,1.3,1.4c0.4,0.5,0.8,0.9,1.2,1.4c0.4,0.5,0.9,0.8,1.4,1.2c0.5,0.3,1.2,0.6,2,0.7
			c0.1,0.4,0.3,0.8,0.6,1c0.3,0.2,0.5,0.5,0.7,0.9c1.4,0.4,2.7,0.9,3.8,1.5c1.1,0.6,2.3,1.1,3.4,1.6c1.1,0.5,2.3,0.9,3.5,1.3
			c1.2,0.4,2.6,0.6,4.2,0.8c0.5,0.1,0.7,0.2,0.6,0.4c-0.1,0.2,0.1,0.4,0.4,0.4c0.2,0,0.5,0,0.9,0c0.3,0,0.6,0,0.9,0
			c0.7,0,1.3,0.1,1.9,0.2c0.6,0.1,1.2,0.3,1.9,0.5c0.7-0.2,1.6-0.4,2.8-0.6c1.1-0.2,2.2-0.5,3.3-0.8c1.1-0.3,1.9-0.8,2.7-1.4
			c0.7-0.6,1.1-1.3,1.1-2.3c0-1.7-0.4-3.2-1.2-4.6c-0.8-1.4-1.4-2.9-1.8-4.4c-0.1-0.5-0.2-1.1-0.3-1.8c-0.1-0.6-0.2-1.3-0.3-1.9
			c-0.2-0.6-0.4-1.2-0.6-1.7c-0.3-0.5-0.7-0.9-1.3-1.2c0-0.4-0.1-0.9-0.2-1.4c-0.1-0.5-0.5-0.8-1.2-0.9c-0.2-1.2-0.5-2.3-1-3.4
			c-0.5-1.1-1.1-2.2-1.6-3.2c-0.6-1.1-1.1-2.2-1.6-3.3c-0.5-1.1-0.8-2.3-0.9-3.5c-1.9,0-3.8,0.2-5.6,0.6c-1.8,0.4-3.6,0.8-5.4,1.3
			c-1.8,0.5-3.6,1-5.4,1.5c-1.8,0.5-3.6,0.9-5.4,1.2c-1.1-0.4-2-0.9-2.8-1.5c-0.8-0.6-1.9-1-3.2-1.1c0.2-0.7,0.3-1.5,0.5-2.3
			c0.1-0.9,0.3-1.7,0.6-2.5c0.3-0.8,0.7-1.5,1.3-2.1c0.5-0.6,1.3-1.1,2.2-1.3c1,0.2,2,0.2,3.3,0.2c1.8,0,3.6-0.2,5.2-0.6
			c1.7-0.4,3.4-0.9,5.2-1.4h0.7c1.7,0,3.6-0.2,5.7-0.6c2-0.4,3.9-0.9,5.5-1.5c0.2,0.1,0.3,0.2,0.3,0.4c0,0.1,0.1,0.2,0.3,0.3
			c0.7-0.5,1.5-0.9,2.6-1c1.1-0.1,2.2-0.2,3.4-0.2c1.2,0,2.3-0.1,3.4-0.2c1.1-0.1,2-0.4,2.6-1c0.8,0.3,1.7,0.4,2.7,0.5
			c0.9,0.1,1.9,0.1,2.8,0.1c1.2,0,2.4,0,3.6-0.1c1.2-0.1,2.4-0.1,3.6-0.2c-0.4-0.1-0.5-0.2-0.5-0.4c0-0.1,0.1-0.3,0.2-0.5
			c0.8,0.2,1.5,0.4,2.1,0.8c0.6,0.3,1.3,0.6,2.1,0.7c-0.2,0.3-0.3,0.6-0.3,0.9c0,0.6,0.3,1,0.8,1.3
			C353.7,260,354.2,260.3,354.6,260.6z"/>
		<path class="st9" d="M419.8,309c-0.2,0.7-0.6,1.3-1.1,1.8c-0.6,0.5-1.3,0.8-2,1.1c-0.8,0.3-1.6,0.4-2.4,0.5s-1.6,0.1-2.2,0.1
			c-0.3,0-0.6,0-0.9,0c-0.3,0-0.6,0-0.9,0c-0.3,0-0.5,0.1-0.5,0.4c0,0.3-0.2,0.5-0.5,0.6c-0.3-0.1-0.6-0.2-0.9-0.2
			c-0.3-0.1-0.6-0.1-0.9-0.1c-0.4,0-0.8,0-1.2,0.1c-0.4,0.1-0.8,0.1-1.1,0.1c-0.5,0-0.8-0.1-1-0.2c-0.2-0.1-0.4-0.2-0.5-0.4
			c-0.2-0.1-0.3-0.3-0.5-0.4c-0.2-0.2-0.4-0.3-0.7-0.4c-0.4-0.2-0.8-0.2-1-0.1c-0.3,0.1-0.7-0.1-1.2-0.5c-0.7-0.5-1.3-1.2-1.9-2
			c-0.5-0.8-1-1.6-1.5-2.4c-0.5-0.9-1-1.7-1.5-2.6c-0.5-0.9-1.2-1.6-1.9-2.2h-0.7c-1.1,0-1.8,0.4-2.3,1.2c-0.3-0.2-0.6-0.4-0.9-0.6
			c-0.3-0.2-0.6-0.4-1-0.6c-1.4,0.4-2.8,0.7-4.3,1c-1.5,0.3-3,0.4-4.5,0.4h-1.3c-0.4,0-0.8-0.1-1.2-0.2c-0.6,0.2-1.1,0.5-1.6,0.8
			c-0.5,0.3-1,0.4-1.6,0.4c-0.4,0-0.8-0.1-1.3-0.3c-0.4,0-0.5,0.1-0.5,0.4c0,0.3-0.2,0.4-0.6,0.4h-0.8c-0.8,0-1.7,0-2.5,0.1
			c-0.8,0.1-1.6,0.1-2.5,0.1c-1.1,0-2.3-0.1-3.5-0.4c-0.3,0.2-0.6,0.2-1,0.2c-0.2,0.1-0.4,0.3-0.5,0.5c-0.1,0.2-0.2,0.5-0.4,0.6
			c-0.1,0.2-0.3,0.3-0.5,0.5c-0.2,0.1-0.5,0.2-0.9,0.1c-0.1,0.6-0.4,1.1-0.9,1.5c-0.5,0.4-0.7,0.9-0.7,1.7c-0.7,0.3-1.2,0.7-1.6,1.2
			c-0.4,0.5-0.8,1-1.3,1.5c-0.4,0.5-0.9,1-1.3,1.5c-0.5,0.5-1,0.9-1.7,1.1c-0.3,0.3-0.4,0.8-0.3,1.5c-0.7,0.5-1.5,0.9-2.4,1.3
			c-1,0.4-1.9,0.6-2.7,0.6c-1.7,0-3-0.8-3.6-2.5c0-0.5,0-1.1,0.1-1.7s0.2-1.2,0.4-1.8s0.5-1.1,0.8-1.5c0.4-0.5,0.9-0.8,1.5-1
			c0-0.5-0.2-0.8-0.5-1c-0.4-0.2-0.5-0.5-0.5-1c1.6-0.7,3-1.6,4.2-2.7c1.2-1.1,2.3-2.3,3.3-3.6s2-2.5,3-3.8c1-1.3,2.2-2.4,3.4-3.4
			V293c1.8-1.7,3-3.6,3.5-5.8c0.7-0.1,1.1-0.4,1.3-0.8c0.2-0.4,0.3-0.9,0.3-1.5c0.3,0,0.5-0.1,0.6-0.4s0.3-0.3,0.8-0.2
			c0.5-1.3,1.1-2.4,1.8-3.5c0.7-1.1,1.3-2.1,2-3.2c0.7-1.1,1.3-2.2,1.8-3.4c0.5-1.2,0.9-2.5,1.1-3.9c0.8-0.1,1.3-0.4,1.4-1.1
			s0.2-1.3,0.3-1.8c0.9-0.7,1.6-1.6,2-2.6c0.5-1,0.9-2.1,1.2-3.2c0.4-1.1,0.8-2.2,1.2-3.3c0.5-1.1,1.1-2.1,1.9-2.9v-0.2
			c0-0.3-0.1-0.4-0.4-0.5c-0.2-0.1-0.4-0.3-0.4-0.5c0.1-0.1,0.1-0.1,0.1-0.2c0.7-0.3,1.3-0.7,1.6-1.3c0.4-0.6,0.9-1.1,1.6-1.3
			c1.3,0.9,2.4,1.5,3.3,1.6c1,0.2,2.2,0.3,3.8,0.4c0.8,0.7,1.2,1.6,1.3,2.7c0.1,1,0.3,2.1,0.6,3.1c0.5,1.7,1,3.4,1.6,5
			c0.6,1.6,1,3.3,1.3,5c0.2,1,0.5,2,1,2.9c0.5,0.9,0.8,1.8,1,2.8c0.1,0.7,0.1,1.6,0,2.5c-0.1,0.9,0,1.7,0.4,2.4l0.6,1.3
			c0.3,0.6,0.6,1.2,0.8,1.8c0.2,0.6,0.4,1.3,0.6,1.9c0.5,1.6,0.9,3.3,1.3,5.2c0.4,1.8,1,3.5,1.9,5c0.3,0.5,0.8,0.9,1.4,1.1
			c0.6,0.2,1.3,0.4,2.1,0.4c0.8,0.1,1.6,0.1,2.3,0.1c0.8,0,1.4,0,1.9,0h0.9c0.4,0,0.7,0.1,1.1,0.2c0.2,0.4,0.4,0.8,0.4,1.1
			c0,0.6-0.2,1.1-0.7,1.5c-0.5,0.4-0.7,0.8-0.7,1.3c0,0.3,0.1,0.6,0.4,0.9c-0.2-0.1-0.6-0.1-1.1-0.1c-1.4,0-2.7,0.2-4.1,0.6
			c0.5,0.9,1.1,1.7,1.9,2.3c0.8,0.6,1.7,1.2,2.6,1.7c0.6-0.4,1.2-0.6,1.9-0.6c0.7,0,1.4,0.1,2,0.4c0.6,0.3,1.3,0.4,2,0.4
			c0.5,0,0.9-0.1,1.2-0.2c0.5,0.5,0.9,1,1.2,1.5C418.9,308.1,419.3,308.6,419.8,309z M391.5,296.2c-0.1-0.9-0.3-1.6-0.6-2
			c-0.3-0.4-0.5-0.9-0.7-1.5c-0.2-0.7-0.4-1.5-0.5-2.4s-0.2-1.7-0.4-2.5c-0.4-1.8-0.9-3.6-1.4-5.4c-0.5-1.8-1.2-3.6-1.9-5.3
			c0.2-0.3,0.4-0.6,0.4-0.9v-0.2c-0.5-0.5-0.9-1.2-1.2-2c-0.2-0.8-0.5-1.5-0.7-2.3c-0.2-0.8-0.5-1.5-0.8-2.2
			c-0.3-0.7-0.9-1.2-1.6-1.6c-0.2,0.3-0.3,0.7-0.3,1.1c0,0.4,0,0.7,0.1,1c0.1,0.3,0.1,0.7,0.1,1c-0.6,0.3-1,0.7-1.3,1.2
			c-0.3,0.6-0.7,1-1.3,1.3c-0.5,1.7-1.2,3.3-2.1,4.8s-1.9,3-2.8,4.5c-1,1.5-1.9,3-2.8,4.5c-0.9,1.5-1.6,3.1-2.2,4.8
			c-0.8,0.5-1.3,1.1-1.6,1.8s-0.4,1.5-0.4,2.2c0.5,0.3,1.2,0.4,1.9,0.4c0.7,0,1.4,0,2,0c0.7,0,1.3,0.1,1.9,0.2
			c0.6,0.1,1.1,0.4,1.6,0.8c0.8-0.2,1.6-0.4,2.6-0.4c0.9-0.1,1.7-0.3,2.3-0.7c1.2,0.4,2.5,0.6,3.9,0.6c0.7,0,1.4-0.1,2.1-0.2
			c0.7-0.1,1.4-0.2,2-0.4c0.5,0.1,1,0.3,1.3,0.5c0.3,0.2,0.8,0.3,1.4,0.3c0.3-0.2,0.5-0.4,0.5-0.7
			C391.1,296.7,391.3,296.4,391.5,296.2z"/>
		<path class="st9" d="M544,238.7c-0.5,0.3-1,0.4-1.5,0.5c-0.5,0.1-1.1,0.1-1.7,0.2c-0.6,0.1-1.1,0.2-1.6,0.4
			c-0.5,0.2-0.8,0.5-1.1,0.9c-0.6-0.5-1.3-1-2-1.4c-0.7-0.4-1.4-0.8-2.2-1.2c-0.6,0.2-1.2,0.4-1.8,0.6c-0.6,0.3-1.2,0.4-1.8,0.4
			c-0.4,0-0.8-0.1-1.3-0.4c-0.5,0.3-1,0.6-1.7,0.8c-0.6,0.2-1.3,0.4-2,0.5c-0.7,0.2-1.3,0.4-1.9,0.6c-0.6,0.3-1,0.7-1.2,1.2
			c-0.1-0.3-0.4-0.3-0.9-0.2c-0.5,0.1-0.7,0-0.8-0.4c-1.9,0.6-3.9,1.1-5.9,1.5c-2,0.4-4,0.9-6,1.4c-2,0.5-3.9,1-5.9,1.6
			c-1.9,0.6-3.8,1.3-5.6,2.2c-0.1,0.1-0.1,0.1-0.1,0.2c0,0.5,0.1,1,0.3,1.5c0.2,0.5,0.3,0.9,0.5,1.4c-1.1,3.2-1.8,6.5-2.2,9.9
			c-0.4,3.4-0.8,6.7-1.4,9.9v0.3c0,0.3,0.1,0.5,0.4,0.6c0.2,0.1,0.4,0.4,0.4,0.7l-0.1,0.2c-0.3,0.2-0.5,0.4-0.6,0.7
			c-0.1,0.3-0.2,0.6-0.2,0.9c0,0.2,0.1,0.5,0.2,1c-1,3-1.7,6.1-2,9.3s-0.7,6.3-1.2,9.4l-0.8,5.3c-0.1,0.3-0.2,0.6-0.3,0.9
			c-0.1,0.3-0.1,0.6-0.1,0.9c0,1.7,0.1,3.4,0.4,5c0.3,1.6,0.3,3.3,0.2,5c0.5,0.7,0.8,1.5,0.8,2.2c0,0.3,0,0.5,0,0.8
			c0,0.3-0.1,0.5-0.1,0.8c0.8,0.7,1.7,1.2,2.8,1.5c1.1,0.3,2,0.8,2.8,1.4v0.3c0,0.5-0.1,1.1-0.3,1.6s-0.3,1-0.5,1.6
			c-0.1,0.4-0.3,1-0.4,1.8c-0.2,0.8-0.3,1.3-0.6,1.6c-0.3,0.4-0.7,0.7-1.3,1c-0.6,0.3-1.1,0.4-1.7,0.4c-0.2,0-0.4-0.1-0.8-0.2
			c-0.3-0.2-0.6-0.3-0.8-0.4c-0.3,0-0.7,0.1-1.2,0.4c-0.5,0.3-1,0.4-1.4,0.4c-0.2,0-0.5,0-0.6,0c-0.2,0-0.4-0.1-0.6-0.2
			c-0.2-0.5-0.6-1-1-1.4s-1-0.8-1.6-1.2c0.1-0.7-0.1-1.3-0.5-1.7c-0.4-0.4-0.7-0.9-1.1-1.4c-0.1-0.7-0.2-1.6-0.3-2.6
			c-0.1-1-0.6-1.7-1.4-2.1c0.3-0.4,0.5-0.9,0.5-1.5c0-0.3,0-0.6-0.1-0.9c-0.1-0.3-0.3-0.6-0.6-0.7v-0.2c-0.1-0.3,0-0.5,0.3-0.6
			c0.3-0.1,0.4-0.3,0.4-0.6v-0.3c-0.4-1.7-0.6-3.5-0.6-5.4c0-1.8,0.1-3.5,0.2-5.2c0.1-1.7,0.1-3.5,0-5.2c0.4-0.3,0.6-0.7,0.9-1.3
			c0.2-0.6,0.4-1.2,0.5-1.9c0.1-0.7,0.2-1.4,0.2-2s0.1-1.2,0.1-1.6c0.3-3,0.8-6,1.4-9c0.7-3,1.1-6,1.2-9.1c0.3-0.4,0.5-1,0.5-1.7
			c0.1-0.7,0.1-1.4,0.1-2.2c0-0.8,0.1-1.5,0.2-2.3c0.1-0.7,0.4-1.4,0.7-1.9c0-1.5,0.1-3,0.5-4.5c0.3-1.5,0.5-3,0.5-4.6
			c0-0.7-0.1-1.5-0.3-2.3c-0.6-0.2-1.1-0.3-1.6-0.3c-0.7,0-1.3,0.1-2,0.4c-0.7,0.2-1.2,0.6-1.5,1.1c-1.3,0.1-2.6,0.2-3.9,0.6
			c-1.3,0.3-2.5,0.5-3.8,0.5h-0.9c-0.2,0-0.5,0-0.8-0.1c-0.4,0.2-0.9,0.3-1.3,0.4c-0.5,0.1-0.6,0.4-0.6,1c-1.9,0.2-3.7,0.5-5.5,1
			c-1.8,0.5-3.5,1.1-5.3,1.7c-1.7,0.6-3.5,1.2-5.3,1.7c-1.8,0.5-3.6,0.9-5.5,1c-0.7,0.3-1.1,0.8-1.3,1.7c-1.3-0.1-2.4-0.4-3.3-0.9
			c-0.9-0.5-2-0.9-3.2-1.4c-0.4-1.1-0.5-2.2-0.5-3.2c0-1.3,0.3-2.6,0.9-3.8c0.6-1.2,1.6-2.1,2.9-2.7c0.3,0.1,0.6,0.1,0.8,0.1
			c0.2,0,0.5,0,0.8,0c1,0,1.9-0.2,2.9-0.5c1-0.3,2-0.5,3-0.5c0.3,0,0.6,0.1,1,0.2c0.4-0.2,0.9-0.4,1.6-0.5c0.6-0.1,1.2-0.3,1.8-0.4
			c0.6-0.1,1.1-0.3,1.6-0.6c0.5-0.3,0.8-0.6,0.9-1.1c0.3,0.2,0.6,0.3,1,0.4c0.4,0.1,0.7,0.1,1.1,0.1c0.8,0,1.6-0.1,2.4-0.4
			c0.8-0.3,1.5-0.7,2-1.3c0.4,0.4,1,0.6,1.8,0.6c0.8,0,1.7-0.2,2.5-0.6c0.8-0.4,1.6-0.6,2.4-0.6c0.6,0,1.1,0.2,1.4,0.6
			c0.7-0.5,1.4-0.9,2.3-1.1c0.9-0.3,1.8-0.5,2.8-0.7c0.9-0.2,1.8-0.5,2.6-0.7c0.8-0.3,1.5-0.6,1.9-1.1c0.3,0.1,0.8,0.1,1.4,0.1
			c1,0,2-0.1,2.9-0.4c0.9-0.2,1.9-0.5,2.8-0.7l1.9-0.2c0.5-0.1,0.9-0.2,1.3-0.4c0.4-0.2,0.8-0.4,1.2-0.6c0.4-0.2,0.9-0.3,1.3-0.4
			c0.5-0.1,1-0.1,1.7-0.1c1.4-0.7,3-1.2,4.6-1.6c1.6-0.4,3.3-0.7,5-1c1.7-0.3,3.3-0.6,5-1c1.6-0.4,3.2-1,4.6-1.8h0.3
			c1.2,0,2.4-0.2,3.6-0.6c1.2-0.4,2.3-0.9,3.3-1.5c0.2,0.1,0.4,0.1,0.5,0.1h0.6c1.7,0,3.3-0.2,4.9-0.6c1.6-0.4,3.3-0.6,5-0.6
			c1,0,1.8,0.1,2.4,0.4c0.6,0.2,1.1,0.5,1.6,0.9c0.5,0.3,1,0.7,1.5,1c0.5,0.3,1.2,0.6,2.1,0.7c0.5,0.9,0.8,1.9,0.8,2.9
			C544,236.6,544,237.6,544,238.7z"/>
		<path class="st9" d="M536,303.9c-0.3,0.4-0.7,0.8-1.1,1.2c-0.4,0.3-0.8,0.7-1.2,1.1c-0.4,0.2-0.9,0.2-1.4,0.2c-0.5,0-1,0-1.4,0
			c-0.5,0-0.9,0-1.3,0c-0.4,0-0.7,0.1-0.9,0.4c-0.5-0.1-0.8-0.3-1.1-0.6c-0.2-0.3-0.7-0.5-1.3-0.5c-0.2-0.1-0.5-0.1-0.7,0
			c-0.9-0.9-1.7-1.9-2.5-2.9c-0.8-1-1.5-2-2.1-2.9c-0.1-2-0.2-4-0.5-6c-0.1-0.5-0.2-1-0.3-1.4c-0.1-0.5-0.2-0.9-0.3-1.4
			c0-0.5,0-1.1,0.1-1.6c0.1-0.5,0.2-1,0.2-1.4c0.2-1.5,0.5-3.1,0.8-4.6c0.3-1.5,0.6-3,0.8-4.6c0.2-1.4,0.4-2.8,0.4-4.4
			c0-1.5-0.3-2.9-0.8-4.3l-0.1-0.4c0.1-0.4,0.3-0.8,0.4-1.1c0.1-0.3,0.3-0.6,0.3-1c0.1-0.6,0-1-0.5-1.3c0.2-0.4,0.5-0.7,0.9-0.8
			c0.4-0.1,0.7-0.4,0.7-0.9c0.1-0.2,0.1-0.4,0-0.6c0.5-0.2,1-0.3,1.5-0.4c0.5-0.1,1-0.1,1.5,0c0.8,0.1,1.5,0.3,2.1,0.7
			c0.6,0.3,1.2,0.7,1.7,1.2c1,2.6,1.4,5.3,1.2,8.1s-0.5,5.7-0.9,8.6c-0.4,2.9-0.7,5.7-0.8,8.4c-0.1,2.7,0.4,5.3,1.4,7.6l0.2,0.1
			c0.3,0.1,0.5,0,0.7-0.3c0.2-0.2,0.4-0.3,0.7-0.3c0.2,0.1,0.4,0.2,0.5,0.2c0.2,1.1,0.6,2.1,1.2,3C534.7,302,535.3,302.9,536,303.9z
			"/>
		<path class="st9" d="M604.1,262.4c-0.1,0.6-0.3,1.2-0.5,1.6c-0.2,0.5-0.3,1.1-0.1,1.8c-0.6,0.1-1.1,0.2-1.4,0.5
			c-0.3,0.3-0.6,0.6-0.8,1c-0.2,0.4-0.4,0.8-0.6,1.2c-0.2,0.4-0.5,0.8-0.8,1.1c0.5,1.9,0.8,3.9,0.8,5.8c0.1,2,0.2,3.9,0.5,5.8
			c0.3,2.4,0.8,4.9,1.4,7.2c0.6,2.4,0.9,4.8,0.9,7.2c0,0.7,0,1.4,0,2.1c0,0.6,0,1.3,0,2c0,0.4,0,0.9,0,1.3c0,0.5,0,0.9,0,1.3
			c0,1.5-0.2,3.1-0.7,4.6c-0.5,1.5-0.8,3.1-1,4.6c-0.7,0.6-1.3,1.2-1.9,1.9c-0.5,0.7-1,1.3-1.6,1.9s-1.2,1.1-1.9,1.6
			c-0.7,0.5-1.6,0.8-2.7,0.9c-0.2,0.5-0.5,0.9-1,1.2c-0.5,0.3-0.9,0.6-1.3,1.1h-0.2c-1.5,0-2.8-0.2-3.9-0.6c-1.1-0.4-2.1-0.8-3-1.3
			c-0.9-0.5-1.9-1-2.8-1.5c-1-0.5-2.1-1-3.3-1.3c-1.7-1.2-3.2-2.6-4.6-4c-1.4-1.5-3-2.8-4.7-4c-0.4-1.1-1-1.9-1.7-2.6
			c-0.7-0.7-1.4-1.5-2-2.4c-0.3-0.4-0.5-0.7-0.7-1c-0.2-0.3-0.3-0.7-0.6-1.1c-0.2-0.4-0.5-0.7-0.9-0.9c-0.4-0.2-0.7-0.3-1-0.6
			c-0.5-1.7-1.2-3.2-2.1-4.6c-0.9-1.4-2-2.7-3.2-4c-0.4,0.6-0.6,1.2-0.9,1.9c-0.2,0.7-0.4,1.3-0.6,2c-0.2,0.7-0.4,1.3-0.7,2
			c-0.3,0.7-0.6,1.3-1,1.8v0.2c0,0.3,0.1,0.4,0.4,0.5c0.2,0.1,0.4,0.2,0.4,0.5c0,0.1,0,0.1,0,0.2c0,0.1,0,0.1,0,0.2
			c-0.3,0.2-0.5,0.5-0.7,0.8c-0.2,0.3-0.5,0.5-0.9,0.6c0.1,0.3,0.1,0.5,0.1,0.8v0.7c0,1.5-0.2,3.1-0.6,4.6c-0.4,1.5-0.6,3.1-0.6,4.7
			v1c0,0.4,0,0.7,0.1,1c0.1,0.3,0.3,0.6,0.5,1c0.2,0.3,0.4,0.6,0.4,0.9c0,0.4-0.2,0.7-0.5,1c0.4,0.3,0.9,0.6,1.4,0.9s1,0.7,1.5,1.1
			c0.5,0.4,0.8,0.8,1.1,1.3c0.3,0.5,0.5,0.9,0.5,1.5c0,0.9-0.3,1.5-1,1.9c-0.7,0.4-1.5,0.7-2.4,0.9c-0.9,0.2-1.9,0.4-2.9,0.6
			c-1,0.2-1.8,0.5-2.5,1h-0.3c-0.7,0-1.3-0.2-1.6-0.6c-0.4-0.4-0.9-0.6-1.6-0.6c-1.1-1.7-1.9-3.5-2.3-5.5c-0.4-2.1-0.6-4-0.6-5.9
			c0-2.3,0.2-4.6,0.7-6.9c0.5-2.3,1-4.6,1.6-6.8s1.3-4.5,2.1-6.7c0.8-2.2,1.5-4.4,2.1-6.7l0.1-0.2c0-0.3-0.1-0.5-0.2-0.6
			c-0.2-0.1-0.2-0.3-0.2-0.5c0-0.1,0-0.2,0.1-0.2c0.2-0.5,0.4-1,0.6-1.5c0.2-0.5,0.4-1,0.5-1.6c0.4-1.5,0.6-3,0.8-4.6
			s0.2-3.1,0.3-4.7c0-1.5,0.1-3.1,0.2-4.7s0.3-3.1,0.6-4.7c0.5-0.4,0.9-0.9,1.4-1.4c0.4-0.5,1-0.9,1.6-1.3c1.2,0.1,2.4,0.2,3.6,0.5
			c1.2,0.3,2.3,0.7,3.4,1.3c0.7,2.3,1.2,4.6,1.5,6.9c0.3,2.3,0.7,4.6,1.4,6.9v0.2c0,0.3,0.2,0.4,0.5,0.4c0.3,0,0.6,0.1,0.8,0.3
			c-0.1,0.2-0.2,0.3-0.2,0.6c0,0.2,0,0.4,0,0.6v1.4c0.1,0.4,0.3,0.9,0.5,1.4c0.2,0.5,0.6,0.8,1.2,0.9c0.3,1.7,0.8,3.3,1.4,4.7
			c0.6,1.4,1.3,2.8,2.1,4.2c0.8,1.3,1.6,2.6,2.5,4s1.8,2.7,2.8,4.1c1.5,1,2.8,2.2,3.9,3.5c1.1,1.3,2.2,2.6,3.3,3.8
			c1.1,1.2,2.4,2.3,3.8,3.2c1.4,0.9,3.3,1.5,5.6,1.7c0.3-0.2,0.5-0.5,0.6-0.9l0.5-1.1c0.2-0.4,0.4-0.7,0.6-1
			c0.2-0.3,0.5-0.5,0.9-0.7c0.1-1.5,0.3-3,0.4-4.6c0.1-1.5,0.5-3,1.1-4.4c-0.3-0.5-0.5-1.1-0.5-1.8c0-0.5,0-1,0.1-1.5
			c0.1-0.5,0.1-1,0.1-1.4c0-1-0.2-1.8-0.7-2.5c0-0.4,0-0.8,0.1-1.2c0.1-0.4,0.2-0.8,0.5-1.2c-0.5-1.1-0.9-2.2-1.1-3.4
			c-0.3-1.2-0.4-2.4-0.4-3.6c0-0.7,0.1-1.4,0.3-2.2c-0.4-0.8-0.6-1.7-0.7-2.8l-0.4-3.3c-0.1-1.1-0.3-2.2-0.5-3.1
			c-0.2-1-0.7-1.7-1.4-2.3c0.4-0.5,0.5-1,0.5-1.7c0-1.1-0.2-2.1-0.5-3c-0.4-1-0.5-2-0.5-3c0-0.7,0.2-1.5,0.5-2.2
			c1.3,0.1,2.6,0.2,3.9,0.4c1.3,0.2,2.6,0.3,3.8,0.3c0.4,0.4,0.8,0.8,1.3,1c0.5,0.3,1,0.5,1.5,0.8c0.5,0.2,1.1,0.5,1.6,0.8
			C603.3,261.5,603.8,261.9,604.1,262.4z"/>
		<path class="st9" d="M707.3,270.7c-0.2,0.5-0.5,0.8-1,1s-1,0.3-1.6,0.4s-1,0.3-1.5,0.5c-0.5,0.2-0.7,0.6-0.9,1.2l-0.2,0.1
			c-0.2,0-0.4-0.1-0.5-0.2c-0.1-0.1-0.2-0.3-0.2-0.4c-0.1-0.1-0.1-0.3-0.2-0.4c-0.1-0.1-0.2-0.2-0.4-0.2c-0.7,0-1.3,0.1-1.9,0.2
			s-1.3,0.2-1.9,0.2c-0.9,0-1.7-0.1-2.4-0.3c-0.4,0.1-0.6,0.3-0.7,0.7c0,0.4-0.2,0.6-0.6,0.7c-0.3,0.1-0.7,0.1-1.1,0.1
			c-0.4,0-0.8,0-1.3,0.1L688,275c-1,0.2-1.9,0.3-2.9,0.3c-0.5,0-0.9,0-1.2-0.1c-0.9,0.6-1.9,1.1-3.1,1.4c-1.1,0.3-2.3,0.6-3.6,0.8
			c-1.2,0.2-2.4,0.5-3.6,0.9s-2.2,1-3.1,1.8c-0.5-0.1-0.9-0.2-1.3-0.2c-0.8,0-1.5,0.1-2.1,0.4c-0.6,0.3-1.2,0.6-1.9,0.8
			c-0.3,0.1-0.6,0.2-0.9,0.2c-0.3,0-0.6,0.1-1,0.2c-0.4,0.1-0.6,0.3-0.7,0.5c-0.1,0.2-0.3,0.5-0.6,0.7c0,1.9,0.2,3.8,0.6,5.7
			c0.4,1.9,0.6,3.8,0.6,5.7v0.3c0.1,0.9,0.5,1.7,1,2.5c0.5,0.8,0.8,1.6,0.8,2.4c0,0.3-0.1,0.6-0.2,0.9c1.6,0.3,2.6,1,3.1,2.1
			c0.5,1.1,0.9,2.3,1.3,3.5c0.3,1.3,0.8,2.4,1.4,3.5c0.6,1.1,1.7,1.7,3.4,2c0.1,0.5,0.2,1.1,0.3,1.6c0.1,0.6,0.1,1.1,0.1,1.6
			c0,0.7-0.1,1.5-0.3,2.2c-0.2,0.7-0.5,1.4-1.1,2c-0.9,0.1-1.6,0.1-2,0.1c-0.4,0-1.1,0.2-1.9,0.5c-1.2-0.6-2.3-1.4-3.2-2.2
			c-0.9-0.8-1.8-1.7-2.6-2.6s-1.6-1.9-2.4-2.9c-0.8-1-1.6-1.9-2.5-2.8c-3.1,0.7-6.3,1.2-9.6,1.4c-3.3,0.2-6.6,0.4-9.8,0.4
			c-0.1,0.1-0.3,0.2-0.5,0.2c-0.2,0-0.5,0-0.7,0c-0.2,0-0.4,0.1-0.5,0.2c-0.2,0.1-0.2,0.2-0.1,0.4c-0.4-0.2-0.9-0.4-1.4-0.4
			c-0.5-0.1-1-0.1-1.4-0.1c-0.3,0-0.6,0-0.9,0c-0.3,0-0.6,0.1-0.9,0.3c-2.3-0.4-4.5-0.9-6.6-1.6c-2.1-0.7-4.3-1.2-6.6-1.6
			c0-0.4-0.1-0.7-0.4-0.9c-0.2-0.2-0.5-0.5-0.6-0.8c-2.5-1.4-4.7-3.1-6.4-5c-1.7-2-2.4-4.4-2.1-7.2l-0.6-1.1c0-0.9,0.2-1.5,0.6-1.8
			c-0.2-0.4-0.7-0.7-1.3-1.1c0.5-0.7,1-1.5,1.4-2.3c0.4-0.8,0.7-1.7,0.9-2.6c0.1-0.3,0.1-0.5,0.1-0.7c0-0.2,0.1-0.5,0.2-0.7
			c0.1-0.3,0.3-0.7,0.5-1.1c0.2-0.4,0.4-0.8,0.6-1.1c1-1.8,2-3.6,3.2-5.2c1.2-1.7,2.7-3.1,4.5-4.4c0.1-0.9,0.4-1.7,0.9-2.3
			c0.5-0.6,1-1.2,1.6-1.7c0.6-0.5,1.1-1,1.7-1.6c0.6-0.5,1-1.2,1.3-1.9c1.2-0.9,2.4-1.8,3.7-2.6c1.2-0.9,2.3-1.9,3.1-3
			c1.1-0.3,2.1-0.7,3.1-1.2c1-0.5,1.8-1.2,2.4-2c1.4-0.1,2.9-0.3,4.3-0.7c1.4-0.4,2.9-0.6,4.5-0.6c0.7,0,1.5,0.1,2.4,0.4
			c0.9,0.2,1.6,0.7,2.1,1.2c0.1,0.1,0.1,0.2,0.1,0.4l0.1,0.4c0.1,0.1,0.1,0.2,0.2,0.3c0.1,0.1,0.3,0.1,0.5,0c0,1.2-0.2,2.4-0.5,3.6
			c-0.3,1.2-1.1,2.1-2.3,2.8c-0.8-0.2-1.6-0.3-2.5-0.3c-1.2,0-2.3,0.2-3.3,0.6c-1,0.4-2,0.9-2.9,1.4c-0.9,0.5-1.9,1-2.8,1.5
			c-1,0.5-2,0.9-3.1,1.1c-0.1,0.4-0.2,0.8-0.3,1.2c-0.1,0.3-0.1,0.7,0,1.2c-0.3,0-0.5,0-0.7-0.1c-0.2-0.1-0.4-0.1-0.7-0.1
			c-0.4,0-0.7,0.2-0.9,0.6c-0.2,0.4-0.3,0.8-0.4,1c-1.1,0.4-2.1,1-2.8,1.8c-0.8,0.8-1.4,1.6-2.1,2.5c-0.6,0.9-1.3,1.7-2,2.5
			c-0.7,0.8-1.6,1.4-2.7,1.8c-0.5,1.7-0.9,3.4-1.4,5s-1,3.3-1.6,5c0.2,0.6,0.3,1.3,0.3,2c0,0.9-0.1,1.6-0.3,2.3
			c0.3,0.4,0.6,0.9,0.9,1.5l1.1,1.8c0.4,0.6,0.7,1.2,1.1,1.8c0.4,0.5,0.8,0.9,1.1,1.2c0.7,0.4,1.7,0.8,3.1,1.2
			c1.4,0.3,2.6,0.9,3.7,1.7c0.1,0,0.3,0,0.5,0c0.2,0,0.3,0,0.5,0c0.7,0,1.5,0.2,2.3,0.5c0.8,0.3,1.4,0.5,1.6,0.5c3.4,0,7-0.2,11-0.6
			c4-0.4,7.7-0.9,11-1.5c0.1-0.5,0.2-1,0.2-1.4c0-0.7-0.1-1.4-0.4-2c-0.2-0.7-0.6-1.2-1.2-1.7c0-0.8,0-1.6,0-2.4c0-0.8,0-1.6,0-2.4
			c0-1.3-0.1-2.7-0.2-4.2c-0.1-1.5-0.4-2.9-0.9-4.2h-0.2c-0.8,0-1.5,0.2-2.1,0.5c-0.6,0.3-1.3,0.5-1.9,0.5c-0.4,0-0.7-0.1-0.9-0.2
			c-0.7,0.7-1.6,1.3-2.6,1.7c-1,0.4-2.1,0.7-3.3,1c-1.1,0.3-2.3,0.6-3.4,0.9c-1.1,0.3-2.1,0.8-3,1.4c-0.5-0.2-0.9-0.2-1.4-0.2
			c-0.4,0-0.8,0-1.2,0.1c-0.4,0.1-0.8,0.1-1.3,0.2c-1.3-1-1.9-2.2-1.9-3.6c0-0.7,0.1-1.5,0.4-2.2s0.6-1.4,1.1-2
			c0.3-0.2,0.7-0.3,1.1-0.3c0.4,0,0.8-0.1,1.3-0.2c0.4-0.1,0.8-0.2,1-0.4s0.4-0.5,0.5-0.9c0.2,0.2,0.3,0.2,0.5,0.2
			c0.1,0,0.2,0,0.4-0.1c0.1-0.1,0.2-0.1,0.4-0.1c0.1,0,0.2,0.1,0.3,0.2c0.1,0.1,0.1,0.2,0.1,0.3c2.6-1.2,5.2-2.3,8-3.1
			s5.5-1.6,8.3-2.3c2.8-0.7,5.6-1.3,8.4-2c2.8-0.6,5.6-1.3,8.4-2c0.4-0.3,0.9-0.6,1.4-0.7c0.5-0.2,0.9-0.4,1.3-0.7
			c0.4,0.2,0.9,0.3,1.5,0.3c0.8,0,1.8-0.1,2.8-0.4c1-0.3,1.8-0.7,2.5-1.1c0.2,0.1,0.5,0.1,0.6,0.1h0.6c1.2,0,2.3-0.2,3.4-0.5
			c1.1-0.3,2.1-0.7,3.1-1.3h0.5c1.9,0,3.7-0.2,5.6-0.6c1.8-0.4,3.7-0.6,5.6-0.6c2.5,0,4.6,0.6,6.5,1.7v1c0,0.4,0,0.8,0,1.2
			C707,269.9,707.1,270.3,707.3,270.7z"/>
		<path class="st9" d="M752.6,310.7c0,0.4-0.2,0.8-0.6,1c-0.4,0.3-0.9,0.5-1.4,0.8l-1.6,0.7c-0.5,0.2-0.9,0.5-1.1,0.9
			c-0.7-0.2-1.3-0.3-1.9-0.3c-0.6-0.1-1.3-0.1-1.9-0.1c-0.8,0-1.6,0.1-2.4,0.2c-0.8,0.1-1.5,0.5-2,1.1c-0.3-0.1-0.6-0.2-0.8-0.2
			h-0.7c-0.9,0-1.8,0.1-2.8,0.2c-0.9,0.1-1.9,0.2-2.8,0.2c-0.5,0-0.9,0-1.4-0.1c-0.5-0.1-0.9-0.2-1.2-0.5c-0.5,0.2-1.1,0.2-1.7,0.2
			c-0.8,0-1.5-0.1-2.3-0.3c-0.7-0.2-1.4-0.5-2.1-0.8c-0.7-0.3-1.4-0.6-2.1-0.8c-0.7-0.3-1.4-0.5-2.2-0.6l-0.6-1.1
			c-1-0.2-1.9-0.4-2.7-0.8c-0.8-0.3-1.6-0.7-2.4-1.2c-0.8-0.4-1.6-0.8-2.3-1.2c-0.8-0.4-1.5-0.7-2.3-0.8c-0.3-0.2-0.6-0.4-0.8-0.6
			c-0.2-0.2-0.4-0.5-0.5-0.8c-0.8-0.2-1.5-0.4-2.2-0.6l-1.9-0.9c-0.6-0.3-1.3-0.6-2-0.8c-0.8-0.2-1.6-0.4-2.7-0.4
			c-0.4-0.5-0.9-0.9-1.5-1.4c-0.7-0.4-1.3-0.6-2-0.6c-0.4,0-0.8,0.1-1,0.2v0.4c0,0.6,0.2,1.3,0.6,1.9c0.4,0.6,1,1.1,1.6,1.4
			c-0.1,0.1-0.1,0.3-0.1,0.5c0,0.3,0.1,0.6,0.2,1c0.1,0.3,0.4,0.5,0.9,0.6c-0.2,0.6-0.5,1.2-0.9,1.8c-0.4,0.6-0.8,1.2-1.4,1.7
			c-0.5,0.5-1.1,1-1.8,1.3c-0.6,0.3-1.3,0.5-2.1,0.5c-0.2,0.1-0.4,0.3-0.5,0.5c-0.1,0.2-0.2,0.4-0.2,0.7c0,0.2-0.1,0.5-0.2,0.7
			c-0.1,0.2-0.2,0.4-0.4,0.5c-0.2,0.1-0.6,0.1-1,0.1c-0.6,0-1.1-0.1-1.5-0.2c-0.4-0.2-0.9-0.4-1.4-0.6v-0.3c0-0.6-0.1-1.1-0.4-1.5
			c-0.3-0.4-0.6-0.7-0.9-1.1c-0.3-0.3-0.6-0.7-0.9-1.1c-0.3-0.4-0.4-0.9-0.4-1.5c-0.2,0.1-0.4,0.2-0.6,0.2c-0.2,0.1-0.3,0.2-0.4,0.3
			c-0.1-0.5-0.2-1-0.2-1.4c0-1.1,0.2-2.1,0.6-3c0.4-1,0.6-2,0.6-3v-1.2c0-1.2,0-2.4-0.1-3.6c-0.1-1.2-0.1-2.3-0.1-3.5c0-1,0-2,0.1-3
			c0.1-1,0.2-2,0.4-3c0.7-3.5,1.2-7,1.7-10.5c0.5-3.5,1.2-7,2.2-10.4c-0.1-0.3-0.1-0.5-0.2-0.8c-0.1-0.3-0.1-0.5-0.1-0.8
			c0-0.2,0-0.3,0.1-0.4c0.2-1.1,0.8-2,1.6-2.7c0.8-0.7,1.9-1.1,3.3-1.1h0.3c0.7,0.3,1.3,0.7,1.7,1.2c0.4,0.5,1,0.7,1.9,0.6
			c0,0.1,0,0.2,0,0.3c0,0.1,0,0.2,0,0.3c0,0.6,0.2,1,0.5,1.3c0.4,0.3,0.8,0.6,1.3,0.9c-0.3,0.5-0.5,1.1-0.6,1.8
			c-0.1,0.7-0.2,1.4-0.2,2.1c-0.1,0.7-0.2,1.4-0.3,2s-0.4,1.2-0.9,1.6c0.2,0.5,0.4,1.1,0.5,1.6c0.1,0.5,0.1,1.1,0.1,1.7
			c0,0.6,0,1.2-0.1,1.8c-0.1,0.6-0.1,1.2-0.1,1.9c0,0.6,0.1,1.1,0.3,1.6c1.3,0,2.1-0.6,2.3-1.7c1.6-0.4,3-0.9,4.2-1.6
			c1.2-0.7,2.4-1.4,3.6-2.1c1.1-0.7,2.3-1.5,3.4-2.3c1.1-0.8,2.4-1.5,3.8-2.1v-0.2c0-0.3,0.1-0.4,0.3-0.5c0.2-0.1,0.2-0.3,0.1-0.7
			c0.9-0.3,1.7-0.6,2.3-1.1c0.6-0.5,1.2-0.9,1.8-1.5l1.7-1.7c0.6-0.6,1.3-1.1,2-1.5c0.5-0.9,0.9-1.9,1.3-2.9c0.4-1,0.9-1.9,1.6-2.8
			c1.1,0,2.4,0.1,3.8,0.2c1.4,0.2,2.5,0.5,3.5,1.1c-0.1,0.4,0.1,0.7,0.6,0.9c-0.7,2.2-1.7,4.2-3,6c-1.3,1.8-3,3.3-5.2,4.5
			c-0.3,0.6-0.7,1.1-1.2,1.5c-0.5,0.4-1,0.8-1.4,1.2c-0.5,0.4-1,0.8-1.4,1.2c-0.5,0.4-0.9,0.9-1.2,1.5c-0.7,0.1-1.3,0.3-1.9,0.6
			c-0.5,0.3-1,0.6-1.4,0.9c-0.5,0.3-0.9,0.7-1.4,1c-0.5,0.3-1.1,0.5-1.7,0.7c-0.5,0.5-1,1-1.7,1.4c-0.6,0.4-1.3,0.7-1.9,1.1
			c-0.6,0.3-1.2,0.7-1.8,1.1c-0.5,0.4-0.9,0.9-1.2,1.6h-2.3c-0.7,1-1.5,1.9-2.6,2.5c-1.1,0.7-2.1,1.3-3.2,1.9c0.2,0.6,0.5,1.2,1,1.6
			c0.5,0.4,1,0.8,1.6,1.1c0.6,0.3,1.1,0.7,1.7,1c0.6,0.3,1.1,0.8,1.5,1.2c2.5,0.9,5,1.8,7.3,2.9s4.6,2.4,6.7,4
			c0.1-0.1,0.3-0.1,0.5-0.1c0.5,0,0.9,0.1,1.2,0.4c0.3,0.2,0.7,0.3,1.3,0.3c0.2,0.5,0.6,0.9,1,1.1c0.4,0.2,0.9,0.3,1.3,0.4
			c0.5,0.1,0.9,0.3,1.3,0.5c0.4,0.2,0.7,0.6,0.9,1.1c0.9,0.1,1.7,0.2,2.5,0.5c0.8,0.3,1.4,0.7,2,1.3h1.1c1.9,0,3.8,0.2,5.6,0.5
			s3.6,0.5,5.5,0.5c1,0,1.9-0.1,2.8-0.2c0.9-0.1,1.8-0.4,2.6-0.8c0.3,0.2,0.6,0.3,1,0.5c0.4,0.2,0.8,0.2,1.2,0.2
			c0.3,0,0.8-0.1,1.4-0.2c0.1,0.6,0.3,1.1,0.7,1.7C752.4,309.5,752.6,310.1,752.6,310.7z"/>
		<path class="st9" d="M843,284.4c-0.5,0.6-0.8,1.2-1.1,1.7c-0.2,0.6-0.3,1.2-0.2,2c-0.6,0.1-1.3,0.2-2,0.3
			c-0.8,0.1-1.5,0.2-2.3,0.3c-0.8,0.1-1.5,0.3-2.2,0.5c-0.7,0.2-1.2,0.5-1.6,1c-0.5-0.2-1-0.2-1.6-0.2c-0.7,0-1.4,0.1-2.1,0.2
			c-0.7,0.2-1.3,0.4-1.8,0.8h-1.5c-0.5,0-1,0-1.7,0.1c-0.6,0.1-1.2,0.2-1.7,0.5c-2.8,0-5.5,0.2-8.3,0.6c-2.7,0.4-5.5,0.6-8.3,0.6
			c-0.4,0-0.9,0-1.3-0.1c-0.5-0.1-0.9-0.1-1.3-0.1c-0.5,0-0.8,0.2-0.9,0.5c-0.1,0.3-0.4,0.5-0.9,0.5c-0.4,0-0.7-0.1-1.1-0.2
			c-0.4-0.1-0.8-0.2-1.1-0.2c-1.1,0-2.3,0.2-3.4,0.5c-1.1,0.3-2.3,0.5-3.5,0.6c0.2,1.2,0.5,2.4,0.6,3.7c0.2,1.2,0.3,2.5,0.4,3.8
			c0.7,0.9,1.3,1.8,1.9,2.6c0.6,0.9,1,1.8,1.3,2.9c1,0.6,1.9,1.4,2.7,2.2c0.8,0.9,1.6,1.6,2.6,2.3c-0.2,0.2-0.4,0.3-0.5,0.6
			c-0.1,0.2-0.3,0.4-0.4,0.6c-0.2,0.2-0.4,0.3-0.6,0.4c-0.3,0.1-0.6,0.1-1,0c0.1,0.2,0.1,0.4,0.1,0.8c0,0.5-0.1,0.9-0.4,1.2
			c-0.2,0.3-0.5,0.5-0.8,0.8c-0.3,0.2-0.6,0.4-1,0.7c-0.4,0.2-0.6,0.5-0.8,0.9c-0.8-0.4-1.6-0.8-2.3-1.2c-0.7-0.4-1.6-0.7-2.6-0.8
			c-0.7-1.3-1.4-2.5-2.3-3.7c-0.8-1.2-1.6-2.4-2.3-3.8c-0.3-0.6-0.6-1.3-0.8-2c-0.2-0.7-0.5-1.4-0.8-2c-0.3-0.7-0.6-1.3-0.9-2
			c-0.4-0.6-0.8-1.2-1.4-1.7c0.1-0.2,0.1-0.5,0.1-0.9c0-0.7-0.1-1.5-0.4-2.2c-0.2-0.7-0.5-1.4-0.6-2.2h-0.7c-1.5,0-2.9,0.1-4.2,0.4
			c-1.3,0.3-2.6,0.7-4,1.3c-0.5-0.3-1.1-0.4-1.8-0.4c-0.8,0-1.7,0.1-2.4,0.4c-0.8,0.3-1.5,0.7-2.2,1.1c-0.5-0.1-0.9-0.1-1.3-0.1
			c-0.4,0-0.8,0-1.2,0c-0.8,0-1.7,0-2.6,0.1c-0.9,0.1-1.7,0.1-2.6,0.2c-0.5,0.1-0.9,0.1-1.4,0c-0.5,0-0.9,0-1.3,0
			c-0.7,0.1-1.4,0.3-2.3,0.7c-0.9,0.4-1.7,0.6-2.5,0.8c-2.2,1.7-4.1,3.5-5.8,5.5c-1.7,2-3.2,4.2-4.6,6.4c-1.4,0.5-2.5,1.3-3.2,2.5
			c-0.7,1.2-1.3,2.3-1.9,3.5c-0.7,0.1-1.2,0.2-1.5,0.5c-0.4,0.3-0.6,0.6-0.8,1l-0.6,1.2c-0.2,0.4-0.5,0.8-0.9,1.1h-0.3
			c-0.6,0-1.2,0.1-1.7,0.3c-0.5,0.2-1.1,0.3-1.7,0.3c-0.8,0-1.4-0.2-1.7-0.6c-0.3-0.4-0.7-0.6-1.1-0.6c-0.1,0-0.2,0-0.4,0.1
			l-0.4,0.2c-0.2-0.4-0.5-0.9-0.8-1.5c-0.3-0.6-0.5-1.1-0.5-1.7c0-0.5,0.2-1,0.5-1.4c0.3-0.4,0.7-0.8,1-1.2c0.4-0.4,0.7-0.8,1-1.2
			c0.3-0.4,0.4-0.9,0.4-1.5c1-0.3,2-0.7,2.9-1.2c0.9-0.6,1.7-1.2,2.3-1.9c0.7-0.8,1.4-1.7,1.9-2.8c0.5-1.1,1.2-1.9,2-2.6
			c0.1-0.2,0.3-0.3,0.6-0.3c0.3,0,0.5-0.1,0.7-0.3c0.3-0.3,0.6-0.7,0.8-1.2c0.2-0.6,0.5-1,0.8-1.3c0.2-0.2,0.6-0.5,0.9-0.8
			c0.4-0.3,0.8-0.7,1.2-1c0.4-0.3,0.7-0.7,1-1c0.3-0.3,0.5-0.6,0.5-1c0-0.4-0.1-0.7-0.3-0.9s-0.4-0.4-0.5-0.6s-0.4-0.3-0.5-0.6
			c-0.2-0.2-0.3-0.5-0.3-0.9c0-0.4,0.1-0.8,0.3-1c0.2-0.3,0.2-0.7,0.1-1.3c1.1-0.7,2.3-1.4,3.6-2c1.3-0.6,2.7-0.7,4.2-0.5l0.3-0.2
			c0.1-0.1,0.2-0.2,0.4-0.2c0.7-0.9,1.3-1.8,1.8-2.7c0.5-1,0.8-1.9,1.1-3c0.2-0.2,0.5-0.3,0.8-0.3c0.3,0,0.6,0,0.9,0
			c1-1.8,2.1-3.4,3.2-4.8c1.1-1.5,1.9-3.2,2.3-5.2c0.4-0.2,0.6-0.4,0.8-0.6c0.2-0.3,0.3-0.5,0.5-0.8c0.1-0.3,0.3-0.6,0.5-0.8
			c0.2-0.3,0.5-0.5,0.8-0.6v-0.2c0-0.3,0.1-0.6,0.3-0.8c0.2-0.2,0.3-0.6,0.1-1c0.2,0,0.4-0.1,0.5-0.2c0.1-0.1,0.2-0.2,0.3-0.4
			c0.1-0.2,0.2-0.3,0.4-0.4c0.1-0.1,0.4-0.2,0.7-0.1c0.2-1.2,0.6-2.3,1.1-3.3s1-2.1,1.6-3.1c0.6-1,1.2-2.1,1.8-3.1
			c0.6-1,1.2-2,1.8-3.1c1-0.3,2-0.6,3.1-1c1.1-0.4,2.2-0.6,3.2-0.6c1.3,0,2.5,0.4,3.4,1.2c0.9,0.8,1.7,1.7,2.3,2.8
			c0.6,1.1,1.1,2.3,1.5,3.5s0.7,2.3,0.9,3.1c0.2,0.6,0.5,1.3,0.9,1.9c0.4,0.6,0.6,1.3,0.6,2c0,0.3,0,0.5-0.1,0.8
			c-0.1,0.2-0.2,0.5-0.3,0.8c0.7,1.2,1.2,2.6,1.5,4.1c0.3,1.5,0.5,2.9,0.5,4.3v1c0,0.3,0,0.7-0.1,1c0.5,1,0.9,1.8,1.2,2.4
			c0.3,0.6,0.5,1.5,0.5,2.7c0,0.3,0.1,0.5,0.5,0.6c0.3,0.1,0.5,0.3,0.5,0.5c0,0.1,0,0.2-0.1,0.3l-0.2,0.3c0.1,0.3,0.3,0.5,0.8,0.4
			c0.5,0,0.7,0.1,0.9,0.4c1-0.1,2.2-0.2,3.4-0.2c1.3,0,2.6,0,3.9,0c1.3,0,2.6-0.1,3.8-0.2c1.2-0.1,2.3-0.4,3.2-0.8
			c0.4,0,0.8,0.1,1,0.4c0.2,0.2,0.5,0.4,0.9,0.4c0.3,0,0.4-0.1,0.4-0.4c-0.1-0.3,0.2-0.4,0.6-0.3h0.5c2.6,0,5.2-0.1,7.7-0.4
			c2.5-0.3,5.1-0.7,7.7-1.1c1-0.2,2.2-0.4,3.7-0.6c1.5-0.2,2.7-0.4,3.6-0.4c0.5,0,1.1,0,1.7,0.1c0.6,0.1,1.1,0.1,1.7,0.1
			c0.7,0,1.4-0.1,2.1-0.2c0.7-0.1,1.4-0.3,2-0.6c0.4,0.1,0.6,0.2,0.8,0.4s0.3,0.4,0.5,0.6c0.1,0.2,0.3,0.4,0.5,0.5
			C842.3,284.3,842.6,284.4,843,284.4z M780.8,287.5c0-2.4-0.3-5-0.8-7.8s-1.3-5.4-2.2-7.7c0.4,0,0.6-0.1,0.6-0.3
			c0.1-0.2,0.1-0.4,0.1-0.6v-0.5c-0.3-0.5-0.5-1-0.6-1.6c-0.1-0.6-0.2-1.2-0.4-1.8c-0.1-0.6-0.3-1.1-0.6-1.6
			c-0.3-0.5-0.7-0.9-1.3-1.2H775c-1,1.1-1.8,2.2-2.5,3.1c-0.7,1-1.2,2.1-1.4,3.5c-0.7,0.1-1.2,0.3-1.4,0.9c-0.2,0.5-0.5,0.9-1,1.1
			v0.2c0,0.4-0.1,0.7-0.3,1c-0.2,0.3-0.3,0.6-0.3,1c-0.8,0.7-1.5,1.5-2.1,2.4c-0.5,0.9-1.1,1.8-1.5,2.8c-0.5,1-1,1.9-1.5,2.8
			c-0.5,0.9-1.2,1.7-2,2.4v0.5c0,0.6-0.2,1.1-0.5,1.4c-0.4,0.3-0.6,0.7-0.7,1.2c0.3,0.1,0.5,0.1,0.7,0.1h0.8c0.4,0,0.7-0.1,0.9-0.2
			c0.2-0.1,0.5-0.3,0.8-0.5c-0.1,0.6,0.2,0.9,0.9,0.9c0.7,0,1.3,0,1.8,0c2.5,0,5-0.2,7.5-0.5c2.5-0.3,5-0.5,7.5-0.6V287.5z
			 M844.4,263.4c0,0.9-0.1,1.6-0.4,2.2c-0.2,0.6-0.6,1.1-0.9,1.6c-0.4,0.5-0.8,0.9-1.3,1.4c-0.5,0.5-1,0.9-1.5,1.5
			c-1-0.3-2-0.5-3-0.5c-0.7,0-1.5,0.1-2.3,0.2c-0.8,0.1-1.4,0.4-2,0.8c-0.3-0.1-0.6-0.1-1-0.1h-0.9c-1,0-2,0.1-3,0.2s-2,0.2-3,0.2
			c-0.5,0-1,0-1.4-0.1c-0.5-0.1-0.9-0.2-1.3-0.5c-1.6,0.8-3.4,1.4-5.2,1.8c-1.9,0.4-3.8,0.7-5.7,0.9c-1.9,0.2-3.9,0.4-5.8,0.5
			c-2,0.1-3.8,0.3-5.6,0.5c-1.4-0.4-2.4-1.1-3-2.1s-1-2.1-1.1-3.4c0.7-0.7,1.4-1.2,2.3-1.6c0.9-0.4,1.8-0.7,2.8-0.8
			c1-0.2,2-0.3,3-0.4c1-0.1,2-0.2,3-0.4c0.7-0.1,1.4-0.3,2.1-0.5c0.7-0.2,1.4-0.5,2-0.8c0.1-0.1,0.2-0.1,0.4-0.1
			c0.4,0,0.6,0.1,0.8,0.3c0.1,0.2,0.4,0.3,0.8,0.3h0.5c1.8-0.5,3.5-1,5.2-1.3c1.6-0.3,3.3-0.6,4.9-0.8c1.6-0.2,3.3-0.3,4.9-0.4
			c1.7-0.1,3.4-0.2,5.3-0.3c0.8-0.1,1.9-0.1,3.2-0.3c1.3-0.1,2.3-0.2,3.1-0.2c0.4,0,0.7,0.1,1,0.3c0.3,0.2,0.6,0.4,0.9,0.7
			s0.6,0.5,0.9,0.7c0.3,0.2,0.6,0.3,1,0.3c0.3,0,0.6-0.1,0.9-0.2V263.4z M865.4,306.1c-0.4,0.7-0.9,1.2-1.4,1.6
			c-0.5,0.4-0.8,1-0.9,1.8c-2.8,0.7-5.6,1.3-8.5,1.8c-2.9,0.4-5.8,0.8-8.7,1.2c-2.9,0.4-5.7,0.9-8.5,1.4c-2.8,0.5-5.5,1.2-8.3,2
			h-0.2c-0.2,0-0.3-0.1-0.5-0.2c-0.2-0.1-0.3-0.2-0.6-0.2c-0.2,0-0.7,0.1-1.4,0.3c-0.7,0.2-1.1,0.5-1.2,0.9h-1.3
			c-1.4,0-2.8,0.1-4.2,0.2c-1.4,0.1-2.8,0.2-4.2,0.2c-2.2,0-4.5-0.3-6.7-1c-0.1-0.7-0.4-1.4-0.9-2c-0.5-0.6-0.9-1.3-1.2-2
			c0.1-0.6,0.3-1.1,0.8-1.5c0.5-0.4,1-0.7,1.6-0.8c0.6-0.2,1.3-0.3,1.9-0.5c0.7-0.1,1.2-0.3,1.7-0.6c0.7,0.1,1.4,0.2,2.1,0.2
			c0.7,0.1,1.4,0.1,2.1,0.1c1.8,0,3.6-0.1,5.5-0.3c1.8-0.2,3.7-0.4,5.5-0.7c1.8-0.2,3.7-0.5,5.6-0.7c1.9-0.2,3.7-0.3,5.6-0.3
			c0.5,0,0.9-0.1,1.4-0.3c0.5-0.2,0.9-0.3,1.4-0.3c0.4,0,0.8,0.1,1.1,0.4c2.3-0.7,4.7-1.3,7.1-1.8c2.4-0.5,4.9-0.8,7.3-0.8
			c1.4,0,2.8,0.1,4.2,0.4C862.9,304.9,864.2,305.4,865.4,306.1z"/>
		<path class="st9" d="M973.9,300.9c-0.1,0.8-0.4,1.4-0.9,1.8c-0.5,0.4-1.1,0.8-1.8,1.2c-0.3-0.1-0.6-0.1-0.9-0.1
			c-0.3,0-0.6,0-0.9,0c-1.9-0.1-3.6,0.2-5.3,0.6c-1.7,0.5-3.4,0.8-5.1,1c-0.6,0.1-1.2,0.1-1.7,0.1c-0.5,0-1,0-1.6,0.1
			c-1.9,0.3-4,0.5-6.1,0.6c-2.2,0.2-4.3,0.4-6.5,0.6s-4.3,0.5-6.4,0.9c-2.1,0.3-4,0.8-5.8,1.5c-0.2-0.1-0.4-0.2-0.5-0.4
			s-0.4-0.2-0.6-0.2c-0.6,0-1.2,0.1-1.7,0.2s-1.1,0.2-1.6,0.2c-0.6,0.3-1.3,0.5-1.9,0.7c-0.7,0.1-1.4,0.2-2.1,0.3
			c-0.7,0.1-1.4,0.2-2,0.4c-0.7,0.2-1.3,0.5-1.9,0.9c-0.5-0.2-1.1-0.3-1.8-0.4c-0.7,0-1.2-0.2-1.4-0.6c-1.4,0.6-2.8,1-4.4,1.1
			c-1.5,0.2-3.1,0.2-4.7,0.2c-1-0.1-2.2-0.2-3.5-0.4c-1.3-0.2-2.7-0.5-4-0.9c-1.3-0.4-2.6-0.9-3.7-1.4c-1.1-0.6-2-1.2-2.6-2
			c-0.4-0.5-0.7-1.1-0.9-1.8c-0.2-0.6-0.6-1.1-1.3-1.4c0.2-1.2,0.4-2.4,0.6-3.6c0.2-1.2,0.5-2.4,0.7-3.6c1.2-0.9,2.3-1.9,3.4-2.9
			c1.1-1,2.1-2.1,3.1-3.2c1.1-0.5,2.2-1.1,3.2-1.8c1-0.7,2-1.4,3-2.1s2-1.4,3-2.1c1-0.7,2.1-1.3,3.2-1.8c0.2-0.4,0.4-0.7,0.8-0.9
			c0.3-0.2,0.7-0.5,1-0.7s0.7-0.5,1-0.8c0.3-0.3,0.5-0.7,0.6-1.1c2.1-1.1,3.9-2.5,5.5-4.2c1.6-1.7,2.6-3.6,3.1-5.8
			c-1-0.7-2.2-1.2-3.5-1.5c-1.3-0.2-2.6-0.4-4-0.5c-1.2-0.1-2.5-0.1-3.8,0c-1.3,0.1-2.6,0-3.9-0.1c-1.3,0.4-2.7,0.6-4.1,0.7
			c-1.4,0.1-2.8,0.2-4.2,0.3c-1.4,0.1-2.8,0.2-4.1,0.5c-1.4,0.2-2.7,0.7-3.9,1.3c-0.2,0-0.5,0-0.7-0.1c-0.2-0.1-0.4-0.1-0.7-0.1
			c-1.9-0.1-3.7,0.3-5.4,1c-1.7,0.7-3.3,1.4-5,2.1c-0.1,0.2-0.2,0.4-0.2,0.5c0,0.3,0.1,0.6,0.2,0.9c0.1,0.3,0.2,0.6,0.2,0.9
			c-0.1,0.1-0.1,0.1-0.1,0.2c0,0.1,0,0.1-0.1,0.2c-0.1,0.3-0.1,0.5-0.2,0.7c-0.1,0.2-0.2,0.5-0.3,0.7c-0.7,1.7-1,3.4-1.1,5
			c-0.1,1.4-0.1,2.7,0,4.1c0.1,1.3,0.1,2.7,0,4.1c-0.1,1.7-0.4,3.3-0.9,4.8c0.3,1.3,0.6,2.6,0.8,4c0.2,1.4,0.5,2.8,0.9,4.2
			c0.4,1.4,0.8,2.7,1.3,4c0.5,1.3,1.2,2.5,2,3.7c-0.1,0.1,0,0.2,0.1,0.2c0.1,0.1,0.2,0.1,0.4,0.1h0.7c0.3,0,0.4,0.1,0.4,0.3
			c0.1,0.2,0.2,0.3,0.3,0.4c0.1,0.1,0.2,0.3,0.4,0.4c0.1,0.2,0.1,0.4,0,0.6c-0.1,1.1-0.4,2-0.9,3c-0.5,0.9-0.9,1.9-1,3
			c-0.7,0.2-1.4,0.2-2,0.2c-1-0.1-1.9-0.3-2.7-0.8s-1.5-1-2.2-1.6c-0.7-0.6-1.3-1.3-1.9-2c-0.6-0.7-1.3-1.2-2-1.7
			c-0.4-1.5-0.8-3.1-1.2-5c-0.4-1.8-1-3.4-1.9-4.6c0.2-0.5,0.4-1.1,0.4-1.8c0.1-1.1,0-2.1-0.3-3.2c-0.3-1-0.3-2.1-0.2-3.2
			c0-0.6,0.1-1.2,0.2-1.8c0.1-0.6,0.3-1.2,0.3-1.8c0.1-0.9,0-1.8-0.3-2.6c-0.3-0.9-0.4-1.7-0.3-2.6c0.1-0.4,0.2-0.8,0.3-1.2
			c0.1-0.4,0.4-0.8,0.7-1.1c-0.3-0.6-0.4-1.3-0.3-1.8c0.1-0.9,0.2-1.8,0.4-2.6c0.2-0.8,0.3-1.6,0.4-2.4c0-0.4,0-0.8-0.1-1.2
			c-0.1-0.4-0.2-0.8-0.3-1.2l-0.8-0.2c-0.4,0-0.7,0.1-1,0.2c-0.3,0.2-0.6,0.3-0.9,0.6c-0.2,0.2-0.5,0.4-0.6,0.5
			c-0.2,0.1-0.4,0.2-0.5,0.2c-0.1,0-0.3,0-0.4,0c-0.2,0-0.3,0-0.4,0c-0.1,0-0.3,0.1-0.7,0.3c-0.3,0.2-0.7,0.4-1.2,0.7
			c-0.5,0.2-0.9,0.5-1.3,0.7c-0.4,0.2-0.8,0.4-1,0.4c-0.7-0.1-1.2-0.3-1.6-0.6c-0.4-0.3-0.8-0.6-1.1-0.9c-0.3-0.3-0.7-0.6-1-0.8
			c-0.4-0.2-0.8-0.3-1.4-0.3c-0.2-0.3-0.3-0.7-0.3-1c0-0.4,0-0.7,0-1.1v-1.3c0.4-0.7,1-1.3,1.7-1.7c0.7-0.5,1.4-0.8,2.2-1.2l2.3-1
			c0.8-0.3,1.5-0.7,2.2-1.2h0.8c1.1,0.1,2-0.1,2.8-0.6c0.8-0.4,1.6-0.9,2.3-1.5c0.7-0.6,1.5-1.1,2.2-1.7c0.8-0.6,1.6-1,2.5-1.4
			c0.7,0.3,1.4,0.5,2.1,0.7c0.7,0.2,1.5,0.3,2.3,0.4c0.8,0,1.6-0.1,2.4-0.3c0.8-0.2,1.5-0.6,2-1.2c0.3,0.1,0.6,0.2,0.8,0.2
			c0.2,0,0.5,0,0.8,0c0.9,0.1,1.8-0.1,2.7-0.4c0.9-0.3,1.8-0.7,2.6-1.1c1.2,0.1,2.4,0,3.6-0.2c1.2-0.2,2.3-0.4,3.5-0.6
			c1.2-0.2,2.3-0.4,3.5-0.6c1.2-0.2,2.4-0.3,3.6-0.2c2,0.1,3.9-0.1,5.9-0.5c1.9-0.4,3.9-0.5,5.9-0.4c1.4,0.1,2.8,0.1,4.1,0.3
			s2.7,0.2,4.1,0.1c0.8,0.3,1.5,0.6,2.1,0.8c0.6,0.2,1.4,0.3,2.4,0.2c1.9,1.4,3.7,3.1,5.2,5v1.4c-0.1,1.2-0.3,2.4-0.7,3.6
			c-0.4,1.2-0.9,2.3-1.5,3.5c-0.6,1.1-1.2,2.3-1.9,3.4c-0.7,1.1-1.3,2.2-1.9,3.2c-3.9,3.1-7.8,6.3-11.7,9.3c-3.9,3.1-8,6.1-12.1,8.9
			c-0.1,0.5-0.3,1-0.5,1.4c-0.2,0.4-0.3,0.9-0.4,1.4c0,0.3,0,0.5,0.1,0.6c0.4,0.1,0.8,0.3,1.1,0.6c0.3,0.3,0.4,0.7,0.3,1.2h0.8
			c0.3,0,0.5,0.1,0.5,0.3l1.4,0.1c2.3,0.1,4.6,0.1,6.9-0.2c2.3-0.2,4.6-0.5,6.9-0.7c2.3-0.3,4.6-0.5,6.9-0.8
			c2.3-0.2,4.6-0.4,6.9-0.4c0.5-0.2,1.1-0.3,1.7-0.4c0.6-0.1,1.1-0.3,1.6-0.6h0.3c0.4,0,0.7,0.1,0.9,0.3c0.2,0.2,0.5,0.3,0.9,0.4
			c0.3,0,0.6-0.1,0.9-0.2c0.3-0.1,0.7-0.2,1-0.2c0.8-0.2,1.7-0.3,2.7-0.4c0.9-0.1,1.9-0.1,2.8-0.2c3.5-0.3,7-0.4,10.4-0.5
			c3.4-0.1,6.9-0.5,10.3-1.2c0.3,0.4,0.7,0.6,1.3,0.8c0.5,0.1,1.1,0.3,1.7,0.4c0.6,0.1,1.2,0.3,1.7,0.4
			C973.3,300.1,973.7,300.4,973.9,300.9z"/>
	</g>
</g>
</svg>
