<?xml version="1.0" encoding="utf-8"?>
<!-- Generator: Adobe Illustrator 24.0.1, SVG Export Plug-In . SVG Version: 6.00 Build 0)  -->
<svg version="1.1" xmlns="http://www.w3.org/2000/svg" xmlns:xlink="http://www.w3.org/1999/xlink" x="0px" y="0px"
	 viewBox="0 0 460 360" style="enable-background:new 0 0 460 360;" xml:space="preserve">
<style type="text/css">
	.st0{fill:#70726F;}
	.st1{fill:#6D1C03;}
	.st2{fill:#D1A16B;}
	.st3{fill:#511502;}
	.st4{fill:#F2BC79;}
	.st5{fill:#876645;}
	.st6{fill:#1E0C07;}
	.st7{fill:#684F33;}
	.st8{fill:#0E0496;}
	.st9{fill:#C1272D;}
	.st10{fill:#C1656B;}
	.st11{fill:#11090A;}
	.st12{fill:#FF001F;}
	.st13{fill:#EDE6E7;}
	.st14{fill:#C45860;}
	.st15{fill:#54252B;}
	.st16{fill:#2B1317;}
	.st17{fill:#E2DDDC;}
	.st18{fill:#CC4627;}
	.st19{fill:#84250B;}
	.st20{fill:#0D1C68;}
	.st21{fill:#333187;}
	.st22{fill:#BA9A78;}
	.st23{fill:#8C615A;}
	.st24{fill:#8E3B2B;}
	.st25{fill:#B79776;}
	.st26{fill:#AA6913;}
	.st27{fill:#BCA486;}
	.st28{fill:#F2930A;}
	.st29{opacity:0.54;fill:#E8C497;}
	.st30{fill:#916631;}
	.st31{fill:#543204;}
	.st32{fill:#071144;}
	.st33{fill:#D7D9E2;}
	.st34{fill:#C95062;}
	.st35{fill:#050303;}
	.st36{fill:#A00D0D;}
	.st37{fill:#F7F6F5;}
	.st38{fill:#736357;}
</style>
<g id="Layer_6">
</g>
<g id="Layer_1">
</g>
<g id="Layer_2">
</g>
<g id="slange">
</g>
<g id="abehoved">
</g>
<g id="tiger">
	<g>
		<g>
			<g>
				<path class="st26" d="M155.8,79.2l-9.5,7.5l-42.5,33.4l-11.1,8.7L81.8,30.1c-0.1-1.7,1.2-3.5,2.6-2.6L155.8,79.2z"/>
				<path class="st27" d="M146.3,86.7l-42.5,33.4l-5.2-61.2c-0.1-1.7,1.7-2.8,3.1-1.8L146.3,86.7z"/>
			</g>
			<g>
				<path class="st26" d="M381.9,27.6l-15.7,89.7l-10.9-4.9l-52.9-23.8l-9.4-4.2l85.5-58.6C379.8,24.9,382,25.9,381.9,27.6z"/>
				<path class="st27" d="M364.3,58.1l-9,54.4l-52.9-23.8l59-32.7C362.8,55.2,364.6,56.4,364.3,58.1z"/>
			</g>
			<path class="st28" d="M408.5,207.7c0,47.8-28.6,90.3-72.6,116.6c-29.6,17.7-66.2,28.2-105.8,28.2c-39.9,0-76.7-10.6-106.4-28.6
				c-14.9-9-28-19.8-38.7-32.1c-10.2-11.6-18.3-24.4-24-38.2c-1.7-4-3.1-8.2-4.3-12.4c-3.2-10.8-4.8-22-4.8-33.6
				c0-4.4,0.2-8.8,0.7-13.2c0.5-4.9,1.4-9.7,2.5-14.4c0,0,0,0,0-0.1c0,0,0-0.1,0-0.1c2.2-9.3,5.5-18.3,9.8-26.9c0,0,0,0,0,0
				c2.7-5.4,5.9-10.7,9.4-15.8c0.1-0.2,0.3-0.4,0.4-0.6c0,0,0,0,0,0c18.6-26.7,47.3-48.2,81.8-60.9c0,0,0,0,0,0
				c8.1-3,16.6-5.5,25.3-7.5c0.1,0,0.1,0,0.2,0c0.2-0.1,0.4-0.1,0.4-0.1c0,0,0,0,0,0c0,0,0.1,0,0.1,0c8.3-1.9,16.8-3.2,25.5-4.1
				c1.8-0.2,3.6-0.3,5.5-0.5h0c5.4-0.4,11-0.6,16.5-0.6c6.3,0,12.5,0.3,18.6,0.8h0c20.1,1.7,39.3,6.1,56.8,12.8
				c3.7,1.4,7.3,2.9,10.9,4.5c14.7,6.6,28.2,14.9,40,24.5c3.5,2.9,6.9,5.8,10.1,8.9C392.7,139.5,408.5,172.1,408.5,207.7z"/>
			<path d="M182.6,68l0,0.2l-13,47.9l-13-40.4c0,0,0,0,0,0c8.1-3,16.6-5.5,25.3-7.5c0.1,0,0.1,0,0.2,0c0.2-0.1,0.4-0.1,0.4-0.1
				C182.5,68,182.5,68,182.6,68C182.6,68,182.6,68,182.6,68z"/>
			<path d="M208.1,63.9l-19.2,46l-6.4-41.7l0-0.1c0,0,0.1,0,0.1,0C190.9,66.2,199.4,64.8,208.1,63.9z"/>
			<path d="M277.4,67.9l0,0.2l13,47.9l13-40.4c0,0,0,0,0,0c-8.1-3-16.6-5.5-25.3-7.5c-0.1,0-0.1,0-0.2,0c-0.2-0.1-0.4-0.1-0.4-0.1
				C277.5,68,277.5,68,277.4,67.9C277.4,67.9,277.4,67.9,277.4,67.9z"/>
			<path d="M251.9,63.8l19.2,46l6.4-41.7l0-0.1c0,0-0.1,0-0.1,0C269.1,66.1,260.6,64.7,251.9,63.8z"/>
			<path d="M111.9,178L55,180c0,0,0-0.1,0-0.1c2.2-9.3,5.5-18.3,9.8-26.9c0,0,0,0,0,0c2.7-5.4,5.9-10.7,9.4-15.8L111.9,178z"/>
			<path d="M109.4,208.1l-52.8,33.2c-3.2-10.8-4.8-22-4.8-33.6c0-4.4,0.2-8.8,0.7-13.2L109.4,208.1z"/>
			<path d="M118,239.9l-33,51.9c-10.2-11.6-18.3-24.4-24-38.2L118,239.9z"/>
			<path d="M347.9,177.7l56.9,2c0,0,0-0.1,0-0.1c-2.2-9.3-5.5-18.3-9.8-26.9c0,0,0,0,0,0c-2.7-5.4-5.9-10.7-9.4-15.8L347.9,177.7z"
				/>
			<path d="M350.5,207.7l52.8,33.2c3.2-10.8,4.8-22,4.8-33.6c0-4.4-0.2-8.8-0.7-13.2L350.5,207.7z"/>
			<path d="M341.9,239.6l33,51.9c10.2-11.6,18.3-24.4,24-38.2L341.9,239.6z"/>
			<path class="st29" d="M335.9,324.3c-29.6,17.7-66.2,28.2-105.8,28.2c-39.9,0-76.7-10.6-106.4-28.6l52.3-99.4l55.7-105.7l54,106.5
				L335.9,324.3z"/>
			<path class="st30" d="M212.6,63.7l17.9-4.3l18.6,4.3c1.1,0,2.3,2.7,2.5,4l18.5,127.6c0.3,1.7-0.9,3.3-2.3,3.3h-75.2
				c-1.5,0-2.6-1.6-2.3-3.3l19.2-128.4C209.6,65.5,211.2,64.5,212.6,63.7z"/>
			<polygon class="st31" points="230.3,243.3 210.1,220.1 190,196.9 230,196.7 270,196.5 250.1,219.9 			"/>
			<path class="st32" d="M282.1,288.9c0,0-8.6,27.5-40.4,24.1c-31.8-3.4-65.3-6.9-62.8-24.1c0,0,3.1-1.9,7.8-4.2
				c2.7-1.3,5.9-2.7,9.4-3.9c1.3-0.5,2.7-0.9,4.1-1.3c2-0.6,4-1.1,6-1.4c1.5-0.3,3-0.5,4.5-0.6c1.9-0.2,3.8-0.2,5.7,0
				c1,0.1,1.9,0.2,2.9,0.4c0.2,0,0.3,0.1,0.5,0.1c0.9,0.2,1.8,0.4,2.6,0.7c0.1,0,0.2,0.1,0.2,0.1c0.1,0,0.1,0,0.1,0
				c0.2,0.1,0.5,0.2,0.8,0.2c2.9,0.9,5.5,1.3,7.8,1.4c0.4,0,0.7,0,1.1,0h0c0.1,0,0.2,0,0.4,0c0.8,0,1.6-0.1,2.4-0.2
				c0.6-0.1,1.1-0.2,1.6-0.3c4.5-1,8-3.1,11.9-4.7c1.4-0.6,2.8-1,4.3-1.3c1.6-0.3,3.2-0.5,5.1-0.3c1.4,0.1,2.9,0.4,4.3,0.8
				c2.5,0.7,4.8,1.9,7,3.2c2.8,1.7,5.3,3.8,7.3,5.7C280.1,286.2,282.1,288.9,282.1,288.9z"/>
			<path class="st33" d="M248.7,275.1l-6.9,16.4l-6.5-11.4c0.6-0.1,1.1-0.2,1.6-0.3C241.3,278.8,244.8,276.6,248.7,275.1z"/>
			<path class="st33" d="M232.8,280.2l-5.7,11.2l-7.2-13.7c0.9,0.2,1.8,0.4,2.6,0.7c0.1,0,0.2,0.1,0.2,0.1c0.1,0,0.1,0,0.1,0
				c0.2,0.1,0.5,0.2,0.8,0.2c2.9,0.9,5.5,1.3,7.8,1.4c0.4,0,0.7,0,1.1,0h0C232.6,280.3,232.7,280.3,232.8,280.2z"/>
			<path class="st33" d="M216.5,277.3l-3.2,21l-7-20.4c1.5-0.3,3-0.5,4.5-0.6C212.7,277.2,214.7,277.2,216.5,277.3z"/>
			<path class="st33" d="M262.3,274.2l-7.7,21.6l-1.7-22c1.6-0.3,3.2-0.5,5.1-0.3C259.5,273.5,260.9,273.8,262.3,274.2z"/>
			<path class="st33" d="M276.7,283l-8.3,5.8l1-11.5C272.1,279.1,274.7,281.1,276.7,283z"/>
			<path class="st33" d="M196.2,280.7V294l-9.4-9.4C189.5,283.4,192.7,282,196.2,280.7z"/>
			<path class="st34" d="M221,310.7c0,0,23.6-16.8,33.6,1.4c4.9,8.9-2.6,26.6-6.9,18.1C243.1,320.9,221,310.7,221,310.7z"/>
			<g>
				<g>
					<path class="st35" d="M178.1,178c0,10.2-10.5,12-22.3,12s-21.5-8.3-21.5-18.5c0-10.2-0.7-21.1,11.2-21.1S178.1,167.8,178.1,178
						z"/>
					<ellipse class="st36" cx="161.4" cy="175.8" rx="8.2" ry="6.4"/>
				</g>
				<ellipse class="st37" cx="157.5" cy="172.4" rx="1.7" ry="2.1"/>
			</g>
			<g>
				<g>
					<path class="st35" d="M281.3,177.1c0,10.2,10.5,12,22.3,12s21.5-8.3,21.5-18.5c0-10.2,0.7-21.1-11.2-21.1
						S281.3,166.9,281.3,177.1z"/>
					<ellipse class="st36" cx="298" cy="175" rx="8.2" ry="6.4"/>
				</g>
				<ellipse class="st37" cx="301.9" cy="171.6" rx="1.7" ry="2.1"/>
			</g>
		</g>
		<g>
			<path class="st38" d="M252.4,235.3c0,0,50.7-15.5,63-38.3c6.4-11.9-2.6,3.6-20.7,16.8C278.1,225.9,252.4,235.3,252.4,235.3z"/>
			<path class="st38" d="M257,243.5c0,0,53,3.2,72.4-13.9c10.2-8.9-3.7,2.5-25.3,8.5C284.3,243.7,257,243.5,257,243.5z"/>
			<path class="st38" d="M256.3,256.7c0,0,51.5,12.7,73.7-0.6c11.6-7-4.1,1.8-26.4,3.8C283.1,261.7,256.3,256.7,256.3,256.7z"/>
		</g>
		<g>
			<path class="st38" d="M206,236.1c0,0-50.7-15.5-63-38.3c-6.4-11.9,2.6,3.6,20.7,16.8C180.4,226.7,206,236.1,206,236.1z"/>
			<path class="st38" d="M201.5,244.3c0,0-53,3.2-72.4-13.9c-10.2-8.9,3.7,2.5,25.3,8.5C174.1,244.4,201.5,244.3,201.5,244.3z"/>
			<path class="st38" d="M202.2,257.4c0,0-51.5,12.7-73.7-0.6c-11.6-7,4.1,1.8,26.4,3.8C175.3,262.5,202.2,257.4,202.2,257.4z"/>
		</g>
	</g>
</g>
</svg>
